G04 #@! TF.GenerationSoftware,KiCad,Pcbnew,(5.1.0)-1*
G04 #@! TF.CreationDate,2019-05-22T09:29:33+02:00*
G04 #@! TF.ProjectId,A320,41333230-2e6b-4696-9361-645f70636258,1*
G04 #@! TF.SameCoordinates,Original*
G04 #@! TF.FileFunction,Legend,Top*
G04 #@! TF.FilePolarity,Positive*
%FSLAX46Y46*%
G04 Gerber Fmt 4.6, Leading zero omitted, Abs format (unit mm)*
G04 Created by KiCad (PCBNEW (5.1.0)-1) date 2019-05-22 09:29:33*
%MOMM*%
%LPD*%
G04 APERTURE LIST*
%ADD10C,0.250000*%
%ADD11C,0.120000*%
%ADD12C,0.200000*%
%ADD13C,0.010000*%
%ADD14C,0.150000*%
G04 APERTURE END LIST*
D10*
X146812000Y-78613000D02*
X146812000Y-92710000D01*
X138811000Y-96647000D02*
X151130000Y-96647000D01*
X150622000Y-97917000D02*
X139319000Y-97917000D01*
X140589000Y-77216000D02*
X141097000Y-75565000D01*
X139700000Y-77343000D02*
X143510000Y-77216000D01*
X143510000Y-86741000D02*
X138430000Y-86741000D01*
X151511000Y-86741000D02*
X146812000Y-86741000D01*
X97409000Y-40132000D02*
X97409000Y-37846000D01*
X93091000Y-38989000D02*
X93218000Y-38735000D01*
D11*
X93091000Y-38989000D02*
X92964000Y-39370000D01*
D10*
X91313000Y-38354000D02*
X93091000Y-38989000D01*
X106807000Y-55753000D02*
X106172000Y-56769000D01*
X126238000Y-66040000D02*
X125476000Y-67183000D01*
X89154000Y-46482000D02*
X88646000Y-47371000D01*
X138303000Y-49022000D02*
X138303000Y-54229000D01*
X91313000Y-36322000D02*
X91313000Y-38354000D01*
D11*
X130683000Y-51689000D02*
X129286000Y-55118000D01*
X117602000Y-47244000D02*
X116459000Y-50546000D01*
X104648000Y-42799000D02*
X103505000Y-45974000D01*
X92075000Y-41910000D02*
X132842000Y-56388000D01*
D10*
X90551000Y-35941000D02*
X90551000Y-40132000D01*
X90551000Y-40132000D02*
X82931000Y-37465000D01*
X93218000Y-38735000D02*
X134112000Y-52832000D01*
D11*
X92075000Y-41910000D02*
X92964000Y-39370000D01*
D10*
X165227000Y-88392000D02*
X168148000Y-90043000D01*
X79121000Y-42418000D02*
X165227000Y-88392000D01*
X132588000Y-56896000D02*
X83312000Y-39370000D01*
X159639000Y-66548000D02*
X137033000Y-58547000D01*
X78867000Y-41021000D02*
X165227000Y-86614000D01*
X155829000Y-57912000D02*
X159639000Y-57912000D01*
X150241000Y-59055000D02*
X155829000Y-57912000D01*
X150241000Y-59055000D02*
X150241000Y-54737000D01*
X140335000Y-59182000D02*
X150241000Y-59055000D01*
X140335000Y-54610000D02*
X140335000Y-59182000D01*
X163195000Y-77978000D02*
X165227000Y-77978000D01*
X163195000Y-77978000D02*
G75*
G02X159639000Y-74422000I0J3556000D01*
G01*
X159639000Y-54610000D02*
X159639000Y-74422000D01*
X139192000Y-54610000D02*
X165227000Y-54610000D01*
X139192000Y-49022000D02*
X139192000Y-54610000D01*
X220980000Y-90297000D02*
X220980000Y-93980000D01*
X219837000Y-90297000D02*
X220980000Y-90297000D01*
X219837000Y-92583000D02*
X219837000Y-90297000D01*
X220980000Y-93980000D02*
X219837000Y-92583000D01*
X224155000Y-86233000D02*
X223012000Y-87630000D01*
X224155000Y-84455000D02*
X224155000Y-86233000D01*
X223520000Y-81661000D02*
X224155000Y-84455000D01*
X220345000Y-81661000D02*
X223520000Y-81661000D01*
X228219000Y-86233000D02*
X229362000Y-87630000D01*
X228219000Y-84455000D02*
X228219000Y-86233000D01*
X228854000Y-81661000D02*
X228219000Y-84455000D01*
X232029000Y-81661000D02*
X228854000Y-81661000D01*
X230759000Y-78105000D02*
X230251000Y-76454000D01*
X231521000Y-78232000D02*
X227838000Y-78105000D01*
X227838000Y-87630000D02*
X232918000Y-87630000D01*
X219710000Y-87630000D02*
X224536000Y-87630000D01*
X227838000Y-94107000D02*
X232791000Y-94107000D01*
X219837000Y-94107000D02*
X224536000Y-94107000D01*
X227838000Y-93599000D02*
G75*
G02X224536000Y-93599000I-1651000J0D01*
G01*
X227838000Y-77724000D02*
X227838000Y-93599000D01*
X224536000Y-79502000D02*
X224536000Y-93599000D01*
X232410000Y-97536000D02*
X220218000Y-97536000D01*
X220726000Y-98806000D02*
X232029000Y-98806000D01*
X292481000Y-41910000D02*
X206121000Y-87503000D01*
X206121000Y-89281000D02*
X203200000Y-90932000D01*
X245110000Y-66929000D02*
X245872000Y-68072000D01*
X282194000Y-47371000D02*
X282702000Y-48260000D01*
X280035000Y-39243000D02*
X278257000Y-39878000D01*
D11*
X278257000Y-39878000D02*
X278384000Y-40259000D01*
D10*
X273939000Y-41021000D02*
X273939000Y-38735000D01*
X232156000Y-55499000D02*
X206121000Y-55499000D01*
X232156000Y-49911000D02*
X232156000Y-55499000D01*
X278257000Y-39878000D02*
X278130000Y-39624000D01*
X292227000Y-43307000D02*
X206121000Y-89281000D01*
X238760000Y-57785000D02*
X288036000Y-40259000D01*
X208153000Y-78867000D02*
G75*
G03X211709000Y-75311000I0J3556000D01*
G01*
X211709000Y-55499000D02*
X211709000Y-75311000D01*
X280797000Y-36830000D02*
X280797000Y-41021000D01*
X278130000Y-39624000D02*
X237236000Y-53721000D01*
D11*
X279273000Y-42799000D02*
X278384000Y-40259000D01*
D10*
X231013000Y-60071000D02*
X221107000Y-59944000D01*
X231013000Y-55499000D02*
X231013000Y-60071000D01*
X208153000Y-78867000D02*
X206121000Y-78867000D01*
X215519000Y-58801000D02*
X211709000Y-58801000D01*
X233045000Y-49911000D02*
X233045000Y-55118000D01*
X221107000Y-59944000D02*
X215519000Y-58801000D01*
X221107000Y-59944000D02*
X221107000Y-55626000D01*
X280035000Y-37211000D02*
X280035000Y-39243000D01*
D11*
X240665000Y-52578000D02*
X242062000Y-56007000D01*
X253746000Y-48133000D02*
X254889000Y-51435000D01*
D10*
X264541000Y-56642000D02*
X265176000Y-57658000D01*
X280797000Y-41021000D02*
X288417000Y-38354000D01*
D11*
X266700000Y-43688000D02*
X267843000Y-46863000D01*
X279273000Y-42799000D02*
X238506000Y-57277000D01*
D10*
X211709000Y-67437000D02*
X234315000Y-59436000D01*
X147828000Y-80772000D02*
X147193000Y-83566000D01*
X150876000Y-80772000D02*
X147828000Y-80772000D01*
X143129000Y-85344000D02*
X141986000Y-86741000D01*
X143129000Y-83566000D02*
X143129000Y-85344000D01*
X142494000Y-80772000D02*
X143129000Y-83566000D01*
X139192000Y-80772000D02*
X142494000Y-80772000D01*
X151511000Y-91694000D02*
X151511000Y-89408000D01*
X150368000Y-93091000D02*
X151511000Y-91694000D01*
X151511000Y-89408000D02*
X150368000Y-89408000D01*
X150368000Y-89408000D02*
X150368000Y-93091000D01*
X147193000Y-85344000D02*
X148336000Y-86741000D01*
X147193000Y-83566000D02*
X147193000Y-85344000D01*
X143510000Y-93218000D02*
X138430000Y-93218000D01*
X151511000Y-93218000D02*
X146812000Y-93218000D01*
X143510000Y-92710000D02*
G75*
G03X146812000Y-92710000I1651000J0D01*
G01*
X143510000Y-76835000D02*
X143510000Y-92710000D01*
D12*
X106816523Y-158860380D02*
X106340333Y-158860380D01*
X106340333Y-157860380D01*
X107149857Y-158336571D02*
X107483190Y-158336571D01*
X107626047Y-158860380D02*
X107149857Y-158860380D01*
X107149857Y-157860380D01*
X107626047Y-157860380D01*
X108054619Y-158860380D02*
X108054619Y-157860380D01*
X108292714Y-157860380D01*
X108435571Y-157908000D01*
X108530809Y-158003238D01*
X108578428Y-158098476D01*
X108626047Y-158288952D01*
X108626047Y-158431809D01*
X108578428Y-158622285D01*
X108530809Y-158717523D01*
X108435571Y-158812761D01*
X108292714Y-158860380D01*
X108054619Y-158860380D01*
X109768904Y-158574666D02*
X110245095Y-158574666D01*
X109673666Y-158860380D02*
X110007000Y-157860380D01*
X110340333Y-158860380D01*
X110673666Y-158193714D02*
X110673666Y-158860380D01*
X110673666Y-158288952D02*
X110721285Y-158241333D01*
X110816523Y-158193714D01*
X110959380Y-158193714D01*
X111054619Y-158241333D01*
X111102238Y-158336571D01*
X111102238Y-158860380D01*
X111435571Y-158193714D02*
X111816523Y-158193714D01*
X111578428Y-157860380D02*
X111578428Y-158717523D01*
X111626047Y-158812761D01*
X111721285Y-158860380D01*
X111816523Y-158860380D01*
X112149857Y-158860380D02*
X112149857Y-158193714D01*
X112149857Y-157860380D02*
X112102238Y-157908000D01*
X112149857Y-157955619D01*
X112197476Y-157908000D01*
X112149857Y-157860380D01*
X112149857Y-157955619D01*
X112626047Y-158479428D02*
X113387952Y-158479428D01*
X114435571Y-158765142D02*
X114387952Y-158812761D01*
X114245095Y-158860380D01*
X114149857Y-158860380D01*
X114007000Y-158812761D01*
X113911761Y-158717523D01*
X113864142Y-158622285D01*
X113816523Y-158431809D01*
X113816523Y-158288952D01*
X113864142Y-158098476D01*
X113911761Y-158003238D01*
X114007000Y-157908000D01*
X114149857Y-157860380D01*
X114245095Y-157860380D01*
X114387952Y-157908000D01*
X114435571Y-157955619D01*
X115007000Y-158860380D02*
X114911761Y-158812761D01*
X114864142Y-158765142D01*
X114816523Y-158669904D01*
X114816523Y-158384190D01*
X114864142Y-158288952D01*
X114911761Y-158241333D01*
X115007000Y-158193714D01*
X115149857Y-158193714D01*
X115245095Y-158241333D01*
X115292714Y-158288952D01*
X115340333Y-158384190D01*
X115340333Y-158669904D01*
X115292714Y-158765142D01*
X115245095Y-158812761D01*
X115149857Y-158860380D01*
X115007000Y-158860380D01*
X115911761Y-158860380D02*
X115816523Y-158812761D01*
X115768904Y-158717523D01*
X115768904Y-157860380D01*
X116435571Y-158860380D02*
X116340333Y-158812761D01*
X116292714Y-158717523D01*
X116292714Y-157860380D01*
X116816523Y-158860380D02*
X116816523Y-158193714D01*
X116816523Y-157860380D02*
X116768904Y-157908000D01*
X116816523Y-157955619D01*
X116864142Y-157908000D01*
X116816523Y-157860380D01*
X116816523Y-157955619D01*
X117245095Y-158812761D02*
X117340333Y-158860380D01*
X117530809Y-158860380D01*
X117626047Y-158812761D01*
X117673666Y-158717523D01*
X117673666Y-158669904D01*
X117626047Y-158574666D01*
X117530809Y-158527047D01*
X117387952Y-158527047D01*
X117292714Y-158479428D01*
X117245095Y-158384190D01*
X117245095Y-158336571D01*
X117292714Y-158241333D01*
X117387952Y-158193714D01*
X117530809Y-158193714D01*
X117626047Y-158241333D01*
X118102238Y-158860380D02*
X118102238Y-158193714D01*
X118102238Y-157860380D02*
X118054619Y-157908000D01*
X118102238Y-157955619D01*
X118149857Y-157908000D01*
X118102238Y-157860380D01*
X118102238Y-157955619D01*
X118721285Y-158860380D02*
X118626047Y-158812761D01*
X118578428Y-158765142D01*
X118530809Y-158669904D01*
X118530809Y-158384190D01*
X118578428Y-158288952D01*
X118626047Y-158241333D01*
X118721285Y-158193714D01*
X118864142Y-158193714D01*
X118959380Y-158241333D01*
X119007000Y-158288952D01*
X119054619Y-158384190D01*
X119054619Y-158669904D01*
X119007000Y-158765142D01*
X118959380Y-158812761D01*
X118864142Y-158860380D01*
X118721285Y-158860380D01*
X119483190Y-158193714D02*
X119483190Y-158860380D01*
X119483190Y-158288952D02*
X119530809Y-158241333D01*
X119626047Y-158193714D01*
X119768904Y-158193714D01*
X119864142Y-158241333D01*
X119911761Y-158336571D01*
X119911761Y-158860380D01*
X121626047Y-158860380D02*
X121149857Y-158860380D01*
X121149857Y-157860380D01*
X121959380Y-158860380D02*
X121959380Y-158193714D01*
X121959380Y-157860380D02*
X121911761Y-157908000D01*
X121959380Y-157955619D01*
X122007000Y-157908000D01*
X121959380Y-157860380D01*
X121959380Y-157955619D01*
X122864142Y-158193714D02*
X122864142Y-159003238D01*
X122816523Y-159098476D01*
X122768904Y-159146095D01*
X122673666Y-159193714D01*
X122530809Y-159193714D01*
X122435571Y-159146095D01*
X122864142Y-158812761D02*
X122768904Y-158860380D01*
X122578428Y-158860380D01*
X122483190Y-158812761D01*
X122435571Y-158765142D01*
X122387952Y-158669904D01*
X122387952Y-158384190D01*
X122435571Y-158288952D01*
X122483190Y-158241333D01*
X122578428Y-158193714D01*
X122768904Y-158193714D01*
X122864142Y-158241333D01*
X123340333Y-158860380D02*
X123340333Y-157860380D01*
X123768904Y-158860380D02*
X123768904Y-158336571D01*
X123721285Y-158241333D01*
X123626047Y-158193714D01*
X123483190Y-158193714D01*
X123387952Y-158241333D01*
X123340333Y-158288952D01*
X124102238Y-158193714D02*
X124483190Y-158193714D01*
X124245095Y-157860380D02*
X124245095Y-158717523D01*
X124292714Y-158812761D01*
X124387952Y-158860380D01*
X124483190Y-158860380D01*
X124816523Y-158860380D02*
X124816523Y-158193714D01*
X124816523Y-157860380D02*
X124768904Y-157908000D01*
X124816523Y-157955619D01*
X124864142Y-157908000D01*
X124816523Y-157860380D01*
X124816523Y-157955619D01*
X125292714Y-158193714D02*
X125292714Y-158860380D01*
X125292714Y-158288952D02*
X125340333Y-158241333D01*
X125435571Y-158193714D01*
X125578428Y-158193714D01*
X125673666Y-158241333D01*
X125721285Y-158336571D01*
X125721285Y-158860380D01*
X126626047Y-158193714D02*
X126626047Y-159003238D01*
X126578428Y-159098476D01*
X126530809Y-159146095D01*
X126435571Y-159193714D01*
X126292714Y-159193714D01*
X126197476Y-159146095D01*
X126626047Y-158812761D02*
X126530809Y-158860380D01*
X126340333Y-158860380D01*
X126245095Y-158812761D01*
X126197476Y-158765142D01*
X126149857Y-158669904D01*
X126149857Y-158384190D01*
X126197476Y-158288952D01*
X126245095Y-158241333D01*
X126340333Y-158193714D01*
X126530809Y-158193714D01*
X126626047Y-158241333D01*
X127816523Y-158812761D02*
X127959380Y-158860380D01*
X128197476Y-158860380D01*
X128292714Y-158812761D01*
X128340333Y-158765142D01*
X128387952Y-158669904D01*
X128387952Y-158574666D01*
X128340333Y-158479428D01*
X128292714Y-158431809D01*
X128197476Y-158384190D01*
X128006999Y-158336571D01*
X127911761Y-158288952D01*
X127864142Y-158241333D01*
X127816523Y-158146095D01*
X127816523Y-158050857D01*
X127864142Y-157955619D01*
X127911761Y-157908000D01*
X128006999Y-157860380D01*
X128245095Y-157860380D01*
X128387952Y-157908000D01*
X128721285Y-158193714D02*
X128959380Y-158860380D01*
X129197476Y-158193714D02*
X128959380Y-158860380D01*
X128864142Y-159098476D01*
X128816523Y-159146095D01*
X128721285Y-159193714D01*
X129530809Y-158812761D02*
X129626047Y-158860380D01*
X129816523Y-158860380D01*
X129911761Y-158812761D01*
X129959380Y-158717523D01*
X129959380Y-158669904D01*
X129911761Y-158574666D01*
X129816523Y-158527047D01*
X129673666Y-158527047D01*
X129578428Y-158479428D01*
X129530809Y-158384190D01*
X129530809Y-158336571D01*
X129578428Y-158241333D01*
X129673666Y-158193714D01*
X129816523Y-158193714D01*
X129911761Y-158241333D01*
X130245095Y-158193714D02*
X130626047Y-158193714D01*
X130387952Y-157860380D02*
X130387952Y-158717523D01*
X130435571Y-158812761D01*
X130530809Y-158860380D01*
X130626047Y-158860380D01*
X131340333Y-158812761D02*
X131245095Y-158860380D01*
X131054619Y-158860380D01*
X130959380Y-158812761D01*
X130911761Y-158717523D01*
X130911761Y-158336571D01*
X130959380Y-158241333D01*
X131054619Y-158193714D01*
X131245095Y-158193714D01*
X131340333Y-158241333D01*
X131387952Y-158336571D01*
X131387952Y-158431809D01*
X130911761Y-158527047D01*
X131816523Y-158860380D02*
X131816523Y-158193714D01*
X131816523Y-158288952D02*
X131864142Y-158241333D01*
X131959380Y-158193714D01*
X132102238Y-158193714D01*
X132197476Y-158241333D01*
X132245095Y-158336571D01*
X132245095Y-158860380D01*
X132245095Y-158336571D02*
X132292714Y-158241333D01*
X132387952Y-158193714D01*
X132530809Y-158193714D01*
X132626047Y-158241333D01*
X132673666Y-158336571D01*
X132673666Y-158860380D01*
X110840333Y-159893714D02*
X111221285Y-159893714D01*
X110983190Y-160560380D02*
X110983190Y-159703238D01*
X111030809Y-159608000D01*
X111126047Y-159560380D01*
X111221285Y-159560380D01*
X111697476Y-160560380D02*
X111602238Y-160512761D01*
X111554619Y-160465142D01*
X111507000Y-160369904D01*
X111507000Y-160084190D01*
X111554619Y-159988952D01*
X111602238Y-159941333D01*
X111697476Y-159893714D01*
X111840333Y-159893714D01*
X111935571Y-159941333D01*
X111983190Y-159988952D01*
X112030809Y-160084190D01*
X112030809Y-160369904D01*
X111983190Y-160465142D01*
X111935571Y-160512761D01*
X111840333Y-160560380D01*
X111697476Y-160560380D01*
X112459380Y-160560380D02*
X112459380Y-159893714D01*
X112459380Y-160084190D02*
X112507000Y-159988952D01*
X112554619Y-159941333D01*
X112649857Y-159893714D01*
X112745095Y-159893714D01*
X113792714Y-160274666D02*
X114268904Y-160274666D01*
X113697476Y-160560380D02*
X114030809Y-159560380D01*
X114364142Y-160560380D01*
X114697476Y-160560380D02*
X114697476Y-159893714D01*
X114697476Y-159560380D02*
X114649857Y-159608000D01*
X114697476Y-159655619D01*
X114745095Y-159608000D01*
X114697476Y-159560380D01*
X114697476Y-159655619D01*
X115173666Y-160560380D02*
X115173666Y-159893714D01*
X115173666Y-160084190D02*
X115221285Y-159988952D01*
X115268904Y-159941333D01*
X115364142Y-159893714D01*
X115459380Y-159893714D01*
X115792714Y-160560380D02*
X115792714Y-159560380D01*
X115792714Y-159941333D02*
X115887952Y-159893714D01*
X116078428Y-159893714D01*
X116173666Y-159941333D01*
X116221285Y-159988952D01*
X116268904Y-160084190D01*
X116268904Y-160369904D01*
X116221285Y-160465142D01*
X116173666Y-160512761D01*
X116078428Y-160560380D01*
X115887952Y-160560380D01*
X115792714Y-160512761D01*
X117126047Y-159893714D02*
X117126047Y-160560380D01*
X116697476Y-159893714D02*
X116697476Y-160417523D01*
X116745095Y-160512761D01*
X116840333Y-160560380D01*
X116983190Y-160560380D01*
X117078428Y-160512761D01*
X117126047Y-160465142D01*
X117554619Y-160512761D02*
X117649857Y-160560380D01*
X117840333Y-160560380D01*
X117935571Y-160512761D01*
X117983190Y-160417523D01*
X117983190Y-160369904D01*
X117935571Y-160274666D01*
X117840333Y-160227047D01*
X117697476Y-160227047D01*
X117602238Y-160179428D01*
X117554619Y-160084190D01*
X117554619Y-160036571D01*
X117602238Y-159941333D01*
X117697476Y-159893714D01*
X117840333Y-159893714D01*
X117935571Y-159941333D01*
X119126047Y-160274666D02*
X119602238Y-160274666D01*
X119030809Y-160560380D02*
X119364142Y-159560380D01*
X119697476Y-160560380D01*
X119935571Y-159560380D02*
X120554619Y-159560380D01*
X120221285Y-159941333D01*
X120364142Y-159941333D01*
X120459380Y-159988952D01*
X120507000Y-160036571D01*
X120554619Y-160131809D01*
X120554619Y-160369904D01*
X120507000Y-160465142D01*
X120459380Y-160512761D01*
X120364142Y-160560380D01*
X120078428Y-160560380D01*
X119983190Y-160512761D01*
X119935571Y-160465142D01*
X120935571Y-159655619D02*
X120983190Y-159608000D01*
X121078428Y-159560380D01*
X121316523Y-159560380D01*
X121411761Y-159608000D01*
X121459380Y-159655619D01*
X121507000Y-159750857D01*
X121507000Y-159846095D01*
X121459380Y-159988952D01*
X120887952Y-160560380D01*
X121507000Y-160560380D01*
X122126047Y-159560380D02*
X122221285Y-159560380D01*
X122316523Y-159608000D01*
X122364142Y-159655619D01*
X122411761Y-159750857D01*
X122459380Y-159941333D01*
X122459380Y-160179428D01*
X122411761Y-160369904D01*
X122364142Y-160465142D01*
X122316523Y-160512761D01*
X122221285Y-160560380D01*
X122126047Y-160560380D01*
X122030809Y-160512761D01*
X121983190Y-160465142D01*
X121935571Y-160369904D01*
X121887952Y-160179428D01*
X121887952Y-159941333D01*
X121935571Y-159750857D01*
X121983190Y-159655619D01*
X122030809Y-159608000D01*
X122126047Y-159560380D01*
X123983190Y-160036571D02*
X123649857Y-160036571D01*
X123649857Y-160560380D02*
X123649857Y-159560380D01*
X124126047Y-159560380D01*
X124935571Y-160560380D02*
X124935571Y-160036571D01*
X124887952Y-159941333D01*
X124792714Y-159893714D01*
X124602238Y-159893714D01*
X124507000Y-159941333D01*
X124935571Y-160512761D02*
X124840333Y-160560380D01*
X124602238Y-160560380D01*
X124507000Y-160512761D01*
X124459380Y-160417523D01*
X124459380Y-160322285D01*
X124507000Y-160227047D01*
X124602238Y-160179428D01*
X124840333Y-160179428D01*
X124935571Y-160131809D01*
X125411761Y-160560380D02*
X125411761Y-159893714D01*
X125411761Y-159988952D02*
X125459380Y-159941333D01*
X125554619Y-159893714D01*
X125697476Y-159893714D01*
X125792714Y-159941333D01*
X125840333Y-160036571D01*
X125840333Y-160560380D01*
X125840333Y-160036571D02*
X125887952Y-159941333D01*
X125983190Y-159893714D01*
X126126047Y-159893714D01*
X126221285Y-159941333D01*
X126268904Y-160036571D01*
X126268904Y-160560380D01*
X126745095Y-160560380D02*
X126745095Y-159893714D01*
X126745095Y-159560380D02*
X126697476Y-159608000D01*
X126745095Y-159655619D01*
X126792714Y-159608000D01*
X126745095Y-159560380D01*
X126745095Y-159655619D01*
X127364142Y-160560380D02*
X127268904Y-160512761D01*
X127221285Y-160417523D01*
X127221285Y-159560380D01*
X127649857Y-159893714D02*
X127887952Y-160560380D01*
X128126047Y-159893714D02*
X127887952Y-160560380D01*
X127792714Y-160798476D01*
X127745095Y-160846095D01*
X127649857Y-160893714D01*
X104077333Y-140930380D02*
X104267809Y-140930380D01*
X104363047Y-140978000D01*
X104458285Y-141073238D01*
X104505904Y-141263714D01*
X104505904Y-141597047D01*
X104458285Y-141787523D01*
X104363047Y-141882761D01*
X104267809Y-141930380D01*
X104077333Y-141930380D01*
X103982095Y-141882761D01*
X103886857Y-141787523D01*
X103839238Y-141597047D01*
X103839238Y-141263714D01*
X103886857Y-141073238D01*
X103982095Y-140978000D01*
X104077333Y-140930380D01*
X104934476Y-141930380D02*
X104934476Y-140930380D01*
X105505904Y-141930380D02*
X105077333Y-141358952D01*
X105505904Y-140930380D02*
X104934476Y-141501809D01*
X105886857Y-141025619D02*
X105934476Y-140978000D01*
X106029714Y-140930380D01*
X106267809Y-140930380D01*
X106363047Y-140978000D01*
X106410666Y-141025619D01*
X106458285Y-141120857D01*
X106458285Y-141216095D01*
X106410666Y-141358952D01*
X105839238Y-141930380D01*
X106458285Y-141930380D01*
X106886857Y-140930380D02*
X106886857Y-141739904D01*
X106934476Y-141835142D01*
X106982095Y-141882761D01*
X107077333Y-141930380D01*
X107267809Y-141930380D01*
X107363047Y-141882761D01*
X107410666Y-141835142D01*
X107458285Y-141739904D01*
X107458285Y-140930380D01*
X108601142Y-142025619D02*
X108505904Y-141978000D01*
X108410666Y-141882761D01*
X108267809Y-141739904D01*
X108172571Y-141692285D01*
X108077333Y-141692285D01*
X108124952Y-141930380D02*
X108029714Y-141882761D01*
X107934476Y-141787523D01*
X107886857Y-141597047D01*
X107886857Y-141263714D01*
X107934476Y-141073238D01*
X108029714Y-140978000D01*
X108124952Y-140930380D01*
X108315428Y-140930380D01*
X108410666Y-140978000D01*
X108505904Y-141073238D01*
X108553523Y-141263714D01*
X108553523Y-141597047D01*
X108505904Y-141787523D01*
X108410666Y-141882761D01*
X108315428Y-141930380D01*
X108124952Y-141930380D01*
X109458285Y-141930380D02*
X108982095Y-141930380D01*
X108982095Y-140930380D01*
X111267809Y-141025619D02*
X111315428Y-140978000D01*
X111410666Y-140930380D01*
X111648761Y-140930380D01*
X111744000Y-140978000D01*
X111791619Y-141025619D01*
X111839238Y-141120857D01*
X111839238Y-141216095D01*
X111791619Y-141358952D01*
X111220190Y-141930380D01*
X111839238Y-141930380D01*
X112458285Y-140930380D02*
X112553523Y-140930380D01*
X112648761Y-140978000D01*
X112696380Y-141025619D01*
X112744000Y-141120857D01*
X112791619Y-141311333D01*
X112791619Y-141549428D01*
X112744000Y-141739904D01*
X112696380Y-141835142D01*
X112648761Y-141882761D01*
X112553523Y-141930380D01*
X112458285Y-141930380D01*
X112363047Y-141882761D01*
X112315428Y-141835142D01*
X112267809Y-141739904D01*
X112220190Y-141549428D01*
X112220190Y-141311333D01*
X112267809Y-141120857D01*
X112315428Y-141025619D01*
X112363047Y-140978000D01*
X112458285Y-140930380D01*
X113744000Y-141930380D02*
X113172571Y-141930380D01*
X113458285Y-141930380D02*
X113458285Y-140930380D01*
X113363047Y-141073238D01*
X113267809Y-141168476D01*
X113172571Y-141216095D01*
X114220190Y-141930380D02*
X114410666Y-141930380D01*
X114505904Y-141882761D01*
X114553523Y-141835142D01*
X114648761Y-141692285D01*
X114696380Y-141501809D01*
X114696380Y-141120857D01*
X114648761Y-141025619D01*
X114601142Y-140978000D01*
X114505904Y-140930380D01*
X114315428Y-140930380D01*
X114220190Y-140978000D01*
X114172571Y-141025619D01*
X114124952Y-141120857D01*
X114124952Y-141358952D01*
X114172571Y-141454190D01*
X114220190Y-141501809D01*
X114315428Y-141549428D01*
X114505904Y-141549428D01*
X114601142Y-141501809D01*
X114648761Y-141454190D01*
X114696380Y-141358952D01*
X115839238Y-140882761D02*
X114982095Y-142168476D01*
X116363047Y-140930380D02*
X116458285Y-140930380D01*
X116553523Y-140978000D01*
X116601142Y-141025619D01*
X116648761Y-141120857D01*
X116696380Y-141311333D01*
X116696380Y-141549428D01*
X116648761Y-141739904D01*
X116601142Y-141835142D01*
X116553523Y-141882761D01*
X116458285Y-141930380D01*
X116363047Y-141930380D01*
X116267809Y-141882761D01*
X116220190Y-141835142D01*
X116172571Y-141739904D01*
X116124952Y-141549428D01*
X116124952Y-141311333D01*
X116172571Y-141120857D01*
X116220190Y-141025619D01*
X116267809Y-140978000D01*
X116363047Y-140930380D01*
X117601142Y-140930380D02*
X117124952Y-140930380D01*
X117077333Y-141406571D01*
X117124952Y-141358952D01*
X117220190Y-141311333D01*
X117458285Y-141311333D01*
X117553523Y-141358952D01*
X117601142Y-141406571D01*
X117648761Y-141501809D01*
X117648761Y-141739904D01*
X117601142Y-141835142D01*
X117553523Y-141882761D01*
X117458285Y-141930380D01*
X117220190Y-141930380D01*
X117124952Y-141882761D01*
X117077333Y-141835142D01*
D10*
X291592000Y-149096390D02*
G75*
G03X258217417Y-150303695I-9498584J-199327304D01*
G01*
X291592000Y-151511000D02*
G75*
G02X258217417Y-150303695I-9498584J199327304D01*
G01*
X292989000Y-144907000D02*
X292989000Y-155829000D01*
X299212000Y-190881000D02*
X301371000Y-189611000D01*
X304673000Y-190881000D02*
X290703000Y-158115000D01*
X302133000Y-190881000D02*
X305689000Y-190881000D01*
X306451000Y-192659000D02*
X292989000Y-155956000D01*
X303022000Y-192532000D02*
X284226000Y-157226000D01*
X285242000Y-159004000D02*
X293497000Y-157607000D01*
X287655000Y-170942000D02*
X291465000Y-170942000D01*
X282448000Y-162560000D02*
X299593000Y-190627000D01*
X292354000Y-172466000D02*
X296164000Y-171196000D01*
X281813000Y-162814000D02*
X286004000Y-160909000D01*
X284861000Y-141986000D02*
X293370000Y-143510000D01*
X287528000Y-129667000D02*
X291338000Y-129667000D01*
X282321000Y-138049000D02*
X299466000Y-109982000D01*
X292227000Y-128143000D02*
X296037000Y-129413000D01*
X281686000Y-137795000D02*
X285877000Y-139700000D01*
X299085000Y-109728000D02*
X301244000Y-110998000D01*
X304546000Y-109728000D02*
X290322000Y-142875000D01*
X302006000Y-109728000D02*
X305562000Y-109728000D01*
X306324000Y-107950000D02*
X292989000Y-144907000D01*
X302895000Y-108077000D02*
X283972000Y-143637000D01*
X268351000Y-141224000D02*
X268351000Y-159512000D01*
X244729000Y-137795000D02*
X244729000Y-163576000D01*
X274447000Y-158496000D02*
X300228000Y-154940000D01*
X293624000Y-145034000D02*
X300228000Y-145796000D01*
X274447000Y-142240000D02*
X293624000Y-145034000D01*
X300228000Y-145796000D02*
X300228000Y-154940000D01*
X313817000Y-149098000D02*
X313817000Y-151638000D01*
X182118000Y-137795000D02*
X182118000Y-163576000D01*
X99568000Y-137795000D02*
X99568000Y-163576000D01*
X74041000Y-158242000D02*
X73152000Y-157226000D01*
X73152000Y-157226000D02*
X70612000Y-155956000D01*
X70612000Y-155956000D02*
X68453000Y-154559000D01*
X69977000Y-158877000D02*
X70739000Y-156083000D01*
X65024000Y-154813000D02*
X65659000Y-156210000D01*
X65659000Y-156210000D02*
X69977000Y-158877000D01*
X69977000Y-158877000D02*
X74041000Y-160655000D01*
X74041000Y-160655000D02*
X74041000Y-158242000D01*
X68453000Y-154559000D02*
X67310000Y-150622000D01*
X65659000Y-156210000D02*
X68326000Y-154559000D01*
X67310000Y-150622000D02*
X62865000Y-150622000D01*
X62865000Y-150622000D02*
X65024000Y-154813000D01*
X69977000Y-142113000D02*
X70739000Y-144907000D01*
D11*
X68326000Y-146431000D02*
X68453000Y-146558000D01*
D10*
X65659000Y-144780000D02*
X68326000Y-146431000D01*
X67310000Y-150368000D02*
X62865000Y-150368000D01*
X68453000Y-146431000D02*
X67310000Y-150368000D01*
X70612000Y-145034000D02*
X68453000Y-146431000D01*
X73152000Y-143764000D02*
X70612000Y-145034000D01*
X74041000Y-142748000D02*
X73152000Y-143764000D01*
X74041000Y-140335000D02*
X74041000Y-142748000D01*
X69977000Y-142113000D02*
X74041000Y-140335000D01*
X65659000Y-144780000D02*
X69977000Y-142113000D01*
X65024000Y-146177000D02*
X65659000Y-144780000D01*
X62865000Y-150368000D02*
X65024000Y-146177000D01*
X76327000Y-138811000D02*
X76327000Y-162560000D01*
X57807658Y-146601051D02*
G75*
G03X53340000Y-149860000I8867341J-16847948D01*
G01*
X57656195Y-154689357D02*
G75*
G02X53340001Y-151510999I9018805J16767357D01*
G01*
X58928000Y-144907000D02*
X58928000Y-156591000D01*
X138208000Y-137668000D02*
X138208000Y-163703000D01*
D11*
X236058000Y-57522000D02*
X234858000Y-57522000D01*
X234858000Y-55762000D02*
X236058000Y-55762000D01*
X234858000Y-51317000D02*
X236058000Y-51317000D01*
X236058000Y-53077000D02*
X234858000Y-53077000D01*
X73797000Y-40041000D02*
G75*
G02X73797000Y-36921000I0J1560000D01*
G01*
X77657000Y-36921000D02*
X73797000Y-36921000D01*
X77657000Y-40041000D02*
X73797000Y-40041000D01*
X77657000Y-36921000D02*
X77657000Y-40041000D01*
X77657000Y-40441000D02*
X76537000Y-40441000D01*
X76537000Y-40441000D02*
X76537000Y-40041000D01*
X76537000Y-40041000D02*
X77657000Y-40041000D01*
X77657000Y-40041000D02*
X77657000Y-40441000D01*
X80327000Y-37211000D02*
X77657000Y-37211000D01*
X77657000Y-37211000D02*
X77657000Y-37211000D01*
X77657000Y-37211000D02*
X80327000Y-37211000D01*
X80327000Y-37211000D02*
X80327000Y-37211000D01*
X80327000Y-39751000D02*
X77657000Y-39751000D01*
X77657000Y-39751000D02*
X77657000Y-39751000D01*
X77657000Y-39751000D02*
X80327000Y-39751000D01*
X80327000Y-39751000D02*
X80327000Y-39751000D01*
X75374000Y-35814000D02*
X75374000Y-35814000D01*
X75244000Y-35814000D02*
X75374000Y-35814000D01*
X75244000Y-35814000D02*
X75244000Y-35814000D01*
X75374000Y-35814000D02*
X75244000Y-35814000D01*
X75374000Y-33274000D02*
X75374000Y-33274000D01*
X75244000Y-33274000D02*
X75374000Y-33274000D01*
X75244000Y-33274000D02*
X75244000Y-33274000D01*
X75374000Y-33274000D02*
X75244000Y-33274000D01*
X75244000Y-36104000D02*
X75244000Y-36504000D01*
X74124000Y-36104000D02*
X75244000Y-36104000D01*
X74124000Y-36504000D02*
X74124000Y-36104000D01*
X75244000Y-36504000D02*
X74124000Y-36504000D01*
X75244000Y-32984000D02*
X75244000Y-36104000D01*
X75244000Y-36104000D02*
X71384000Y-36104000D01*
X75244000Y-32984000D02*
X71384000Y-32984000D01*
X71384000Y-36104000D02*
G75*
G02X71384000Y-32984000I0J1560000D01*
G01*
X136316000Y-56633000D02*
X135116000Y-56633000D01*
X135116000Y-54873000D02*
X136316000Y-54873000D01*
X136316000Y-52188000D02*
X135116000Y-52188000D01*
X135116000Y-50428000D02*
X136316000Y-50428000D01*
D13*
G36*
X229463629Y-161146066D02*
G01*
X229503111Y-161146467D01*
X229618800Y-161149259D01*
X229715689Y-161157550D01*
X229797081Y-161172232D01*
X229866277Y-161194193D01*
X229926580Y-161224322D01*
X229981292Y-161263510D01*
X230000833Y-161280532D01*
X230033250Y-161320363D01*
X230062480Y-161374413D01*
X230085009Y-161434323D01*
X230097321Y-161491739D01*
X230098600Y-161512956D01*
X230090583Y-161571769D01*
X230069101Y-161636013D01*
X230038001Y-161696821D01*
X230001134Y-161745330D01*
X229995146Y-161751182D01*
X229944421Y-161792321D01*
X229888875Y-161824435D01*
X229825304Y-161848365D01*
X229750506Y-161864953D01*
X229661278Y-161875041D01*
X229554418Y-161879469D01*
X229505472Y-161879845D01*
X229443238Y-161879545D01*
X229399472Y-161878292D01*
X229370069Y-161875554D01*
X229350921Y-161870801D01*
X229337923Y-161863501D01*
X229330955Y-161857267D01*
X229324374Y-161849694D01*
X229319212Y-161839924D01*
X229315297Y-161825340D01*
X229312457Y-161803326D01*
X229310520Y-161771264D01*
X229309316Y-161726536D01*
X229308672Y-161666526D01*
X229308417Y-161588617D01*
X229308378Y-161512956D01*
X229308130Y-161412041D01*
X229308183Y-161331427D01*
X229309143Y-161292822D01*
X229455133Y-161292822D01*
X229455133Y-161733089D01*
X229548266Y-161733004D01*
X229604307Y-161731396D01*
X229663001Y-161727256D01*
X229711972Y-161721464D01*
X229713462Y-161721226D01*
X229792608Y-161702090D01*
X229853998Y-161672287D01*
X229900695Y-161629878D01*
X229930365Y-161583961D01*
X229948647Y-161533026D01*
X229947229Y-161485200D01*
X229926012Y-161433933D01*
X229884511Y-161380899D01*
X229827002Y-161341600D01*
X229752250Y-161315331D01*
X229702292Y-161306035D01*
X229645584Y-161299507D01*
X229585481Y-161294782D01*
X229534361Y-161292817D01*
X229531333Y-161292808D01*
X229455133Y-161292822D01*
X229309143Y-161292822D01*
X229309740Y-161268851D01*
X229314002Y-161222055D01*
X229322170Y-161188778D01*
X229335444Y-161166759D01*
X229355026Y-161153739D01*
X229382117Y-161147457D01*
X229417918Y-161145653D01*
X229463629Y-161146066D01*
X229463629Y-161146066D01*
G37*
X229463629Y-161146066D02*
X229503111Y-161146467D01*
X229618800Y-161149259D01*
X229715689Y-161157550D01*
X229797081Y-161172232D01*
X229866277Y-161194193D01*
X229926580Y-161224322D01*
X229981292Y-161263510D01*
X230000833Y-161280532D01*
X230033250Y-161320363D01*
X230062480Y-161374413D01*
X230085009Y-161434323D01*
X230097321Y-161491739D01*
X230098600Y-161512956D01*
X230090583Y-161571769D01*
X230069101Y-161636013D01*
X230038001Y-161696821D01*
X230001134Y-161745330D01*
X229995146Y-161751182D01*
X229944421Y-161792321D01*
X229888875Y-161824435D01*
X229825304Y-161848365D01*
X229750506Y-161864953D01*
X229661278Y-161875041D01*
X229554418Y-161879469D01*
X229505472Y-161879845D01*
X229443238Y-161879545D01*
X229399472Y-161878292D01*
X229370069Y-161875554D01*
X229350921Y-161870801D01*
X229337923Y-161863501D01*
X229330955Y-161857267D01*
X229324374Y-161849694D01*
X229319212Y-161839924D01*
X229315297Y-161825340D01*
X229312457Y-161803326D01*
X229310520Y-161771264D01*
X229309316Y-161726536D01*
X229308672Y-161666526D01*
X229308417Y-161588617D01*
X229308378Y-161512956D01*
X229308130Y-161412041D01*
X229308183Y-161331427D01*
X229309143Y-161292822D01*
X229455133Y-161292822D01*
X229455133Y-161733089D01*
X229548266Y-161733004D01*
X229604307Y-161731396D01*
X229663001Y-161727256D01*
X229711972Y-161721464D01*
X229713462Y-161721226D01*
X229792608Y-161702090D01*
X229853998Y-161672287D01*
X229900695Y-161629878D01*
X229930365Y-161583961D01*
X229948647Y-161533026D01*
X229947229Y-161485200D01*
X229926012Y-161433933D01*
X229884511Y-161380899D01*
X229827002Y-161341600D01*
X229752250Y-161315331D01*
X229702292Y-161306035D01*
X229645584Y-161299507D01*
X229585481Y-161294782D01*
X229534361Y-161292817D01*
X229531333Y-161292808D01*
X229455133Y-161292822D01*
X229309143Y-161292822D01*
X229309740Y-161268851D01*
X229314002Y-161222055D01*
X229322170Y-161188778D01*
X229335444Y-161166759D01*
X229355026Y-161153739D01*
X229382117Y-161147457D01*
X229417918Y-161145653D01*
X229463629Y-161146066D01*
G36*
X230872206Y-161146146D02*
G01*
X230941614Y-161146518D01*
X230994003Y-161147385D01*
X231032153Y-161148946D01*
X231058841Y-161151403D01*
X231076847Y-161154957D01*
X231088951Y-161159810D01*
X231097931Y-161166161D01*
X231101182Y-161169084D01*
X231120957Y-161200142D01*
X231124518Y-161235828D01*
X231111509Y-161267510D01*
X231105494Y-161273913D01*
X231095765Y-161280121D01*
X231080099Y-161284910D01*
X231055592Y-161288514D01*
X231019339Y-161291164D01*
X230968435Y-161293095D01*
X230899974Y-161294539D01*
X230837383Y-161295418D01*
X230589666Y-161298467D01*
X230586281Y-161363378D01*
X230582895Y-161428289D01*
X230751042Y-161428289D01*
X230824041Y-161428919D01*
X230877483Y-161431553D01*
X230914372Y-161437309D01*
X230937712Y-161447304D01*
X230950506Y-161462656D01*
X230955758Y-161484482D01*
X230956555Y-161504738D01*
X230954077Y-161529592D01*
X230944723Y-161547906D01*
X230925617Y-161560637D01*
X230893882Y-161568741D01*
X230846641Y-161573176D01*
X230781017Y-161574899D01*
X230745199Y-161575045D01*
X230584022Y-161575045D01*
X230584022Y-161733089D01*
X230832378Y-161733089D01*
X230913787Y-161733202D01*
X230975658Y-161733712D01*
X231021032Y-161734870D01*
X231052946Y-161736930D01*
X231074441Y-161740146D01*
X231088557Y-161744772D01*
X231098332Y-161751059D01*
X231103311Y-161755667D01*
X231120390Y-161782560D01*
X231125889Y-161806467D01*
X231118037Y-161835667D01*
X231103311Y-161857267D01*
X231095454Y-161864066D01*
X231085312Y-161869346D01*
X231070156Y-161873298D01*
X231047259Y-161876113D01*
X231013891Y-161877982D01*
X230967325Y-161879098D01*
X230904833Y-161879651D01*
X230823686Y-161879833D01*
X230781578Y-161879845D01*
X230691402Y-161879765D01*
X230621076Y-161879398D01*
X230567871Y-161878552D01*
X230529060Y-161877036D01*
X230501913Y-161874659D01*
X230483702Y-161871229D01*
X230471700Y-161866554D01*
X230463178Y-161860444D01*
X230459844Y-161857267D01*
X230453245Y-161849670D01*
X230448073Y-161839870D01*
X230444154Y-161825239D01*
X230441316Y-161803152D01*
X230439385Y-161770982D01*
X230438188Y-161726103D01*
X230437552Y-161665889D01*
X230437303Y-161587713D01*
X230437266Y-161514923D01*
X230437300Y-161421707D01*
X230437535Y-161348431D01*
X230438170Y-161292458D01*
X230439406Y-161251151D01*
X230441444Y-161221872D01*
X230444483Y-161201984D01*
X230448723Y-161188850D01*
X230454365Y-161179832D01*
X230461609Y-161172293D01*
X230463394Y-161170612D01*
X230472055Y-161163172D01*
X230482118Y-161157409D01*
X230496375Y-161153112D01*
X230517617Y-161150064D01*
X230548636Y-161148051D01*
X230592223Y-161146860D01*
X230651169Y-161146275D01*
X230728266Y-161146083D01*
X230782999Y-161146067D01*
X230872206Y-161146146D01*
X230872206Y-161146146D01*
G37*
X230872206Y-161146146D02*
X230941614Y-161146518D01*
X230994003Y-161147385D01*
X231032153Y-161148946D01*
X231058841Y-161151403D01*
X231076847Y-161154957D01*
X231088951Y-161159810D01*
X231097931Y-161166161D01*
X231101182Y-161169084D01*
X231120957Y-161200142D01*
X231124518Y-161235828D01*
X231111509Y-161267510D01*
X231105494Y-161273913D01*
X231095765Y-161280121D01*
X231080099Y-161284910D01*
X231055592Y-161288514D01*
X231019339Y-161291164D01*
X230968435Y-161293095D01*
X230899974Y-161294539D01*
X230837383Y-161295418D01*
X230589666Y-161298467D01*
X230586281Y-161363378D01*
X230582895Y-161428289D01*
X230751042Y-161428289D01*
X230824041Y-161428919D01*
X230877483Y-161431553D01*
X230914372Y-161437309D01*
X230937712Y-161447304D01*
X230950506Y-161462656D01*
X230955758Y-161484482D01*
X230956555Y-161504738D01*
X230954077Y-161529592D01*
X230944723Y-161547906D01*
X230925617Y-161560637D01*
X230893882Y-161568741D01*
X230846641Y-161573176D01*
X230781017Y-161574899D01*
X230745199Y-161575045D01*
X230584022Y-161575045D01*
X230584022Y-161733089D01*
X230832378Y-161733089D01*
X230913787Y-161733202D01*
X230975658Y-161733712D01*
X231021032Y-161734870D01*
X231052946Y-161736930D01*
X231074441Y-161740146D01*
X231088557Y-161744772D01*
X231098332Y-161751059D01*
X231103311Y-161755667D01*
X231120390Y-161782560D01*
X231125889Y-161806467D01*
X231118037Y-161835667D01*
X231103311Y-161857267D01*
X231095454Y-161864066D01*
X231085312Y-161869346D01*
X231070156Y-161873298D01*
X231047259Y-161876113D01*
X231013891Y-161877982D01*
X230967325Y-161879098D01*
X230904833Y-161879651D01*
X230823686Y-161879833D01*
X230781578Y-161879845D01*
X230691402Y-161879765D01*
X230621076Y-161879398D01*
X230567871Y-161878552D01*
X230529060Y-161877036D01*
X230501913Y-161874659D01*
X230483702Y-161871229D01*
X230471700Y-161866554D01*
X230463178Y-161860444D01*
X230459844Y-161857267D01*
X230453245Y-161849670D01*
X230448073Y-161839870D01*
X230444154Y-161825239D01*
X230441316Y-161803152D01*
X230439385Y-161770982D01*
X230438188Y-161726103D01*
X230437552Y-161665889D01*
X230437303Y-161587713D01*
X230437266Y-161514923D01*
X230437300Y-161421707D01*
X230437535Y-161348431D01*
X230438170Y-161292458D01*
X230439406Y-161251151D01*
X230441444Y-161221872D01*
X230444483Y-161201984D01*
X230448723Y-161188850D01*
X230454365Y-161179832D01*
X230461609Y-161172293D01*
X230463394Y-161170612D01*
X230472055Y-161163172D01*
X230482118Y-161157409D01*
X230496375Y-161153112D01*
X230517617Y-161150064D01*
X230548636Y-161148051D01*
X230592223Y-161146860D01*
X230651169Y-161146275D01*
X230728266Y-161146083D01*
X230782999Y-161146067D01*
X230872206Y-161146146D01*
G36*
X231893297Y-161147351D02*
G01*
X231968112Y-161152581D01*
X232037694Y-161160750D01*
X232097998Y-161171550D01*
X232144980Y-161184673D01*
X232174594Y-161199813D01*
X232179140Y-161204269D01*
X232194946Y-161238850D01*
X232190153Y-161274351D01*
X232165636Y-161304725D01*
X232164466Y-161305596D01*
X232150046Y-161314954D01*
X232134992Y-161319876D01*
X232113995Y-161320473D01*
X232081743Y-161316861D01*
X232032927Y-161309154D01*
X232029000Y-161308505D01*
X231956261Y-161299569D01*
X231877783Y-161295161D01*
X231799073Y-161295119D01*
X231725639Y-161299279D01*
X231662989Y-161307479D01*
X231616630Y-161319557D01*
X231613584Y-161320771D01*
X231579952Y-161339615D01*
X231568136Y-161358685D01*
X231577386Y-161377439D01*
X231606953Y-161395337D01*
X231656089Y-161411837D01*
X231724043Y-161426396D01*
X231769355Y-161433406D01*
X231863544Y-161446889D01*
X231938456Y-161459214D01*
X231997283Y-161471449D01*
X232043215Y-161484661D01*
X232079445Y-161499917D01*
X232109162Y-161518285D01*
X232135558Y-161540831D01*
X232156770Y-161562971D01*
X232181935Y-161593819D01*
X232194319Y-161620345D01*
X232198192Y-161653026D01*
X232198333Y-161664995D01*
X232195424Y-161704712D01*
X232183798Y-161734259D01*
X232163677Y-161760486D01*
X232122784Y-161800576D01*
X232077183Y-161831149D01*
X232023487Y-161853203D01*
X231958308Y-161867735D01*
X231878256Y-161875741D01*
X231779943Y-161878218D01*
X231763711Y-161878177D01*
X231698151Y-161876818D01*
X231633134Y-161873730D01*
X231575748Y-161869356D01*
X231533078Y-161864140D01*
X231529628Y-161863541D01*
X231487204Y-161853491D01*
X231451220Y-161840796D01*
X231430850Y-161829190D01*
X231411893Y-161798572D01*
X231410573Y-161762918D01*
X231426915Y-161731144D01*
X231430571Y-161727551D01*
X231445685Y-161716876D01*
X231464585Y-161712276D01*
X231493838Y-161713059D01*
X231529349Y-161717127D01*
X231569030Y-161720762D01*
X231624655Y-161723828D01*
X231689594Y-161726053D01*
X231757215Y-161727164D01*
X231775000Y-161727237D01*
X231842872Y-161726964D01*
X231892546Y-161725646D01*
X231928390Y-161722827D01*
X231954776Y-161718050D01*
X231976074Y-161710857D01*
X231988874Y-161704867D01*
X232017000Y-161688233D01*
X232034932Y-161673168D01*
X232037553Y-161668897D01*
X232032024Y-161651263D01*
X232005740Y-161634192D01*
X231960522Y-161618458D01*
X231898192Y-161604838D01*
X231879829Y-161601804D01*
X231783910Y-161586738D01*
X231707359Y-161574146D01*
X231647220Y-161563111D01*
X231600540Y-161552720D01*
X231564363Y-161542056D01*
X231535735Y-161530205D01*
X231511702Y-161516251D01*
X231489308Y-161499281D01*
X231465598Y-161478378D01*
X231457620Y-161471049D01*
X231429647Y-161443699D01*
X231414840Y-161422029D01*
X231409048Y-161397232D01*
X231408111Y-161365983D01*
X231418425Y-161304705D01*
X231449248Y-161252640D01*
X231500405Y-161209958D01*
X231571717Y-161176825D01*
X231622600Y-161161964D01*
X231677900Y-161152366D01*
X231744147Y-161146936D01*
X231817294Y-161145367D01*
X231893297Y-161147351D01*
X231893297Y-161147351D01*
G37*
X231893297Y-161147351D02*
X231968112Y-161152581D01*
X232037694Y-161160750D01*
X232097998Y-161171550D01*
X232144980Y-161184673D01*
X232174594Y-161199813D01*
X232179140Y-161204269D01*
X232194946Y-161238850D01*
X232190153Y-161274351D01*
X232165636Y-161304725D01*
X232164466Y-161305596D01*
X232150046Y-161314954D01*
X232134992Y-161319876D01*
X232113995Y-161320473D01*
X232081743Y-161316861D01*
X232032927Y-161309154D01*
X232029000Y-161308505D01*
X231956261Y-161299569D01*
X231877783Y-161295161D01*
X231799073Y-161295119D01*
X231725639Y-161299279D01*
X231662989Y-161307479D01*
X231616630Y-161319557D01*
X231613584Y-161320771D01*
X231579952Y-161339615D01*
X231568136Y-161358685D01*
X231577386Y-161377439D01*
X231606953Y-161395337D01*
X231656089Y-161411837D01*
X231724043Y-161426396D01*
X231769355Y-161433406D01*
X231863544Y-161446889D01*
X231938456Y-161459214D01*
X231997283Y-161471449D01*
X232043215Y-161484661D01*
X232079445Y-161499917D01*
X232109162Y-161518285D01*
X232135558Y-161540831D01*
X232156770Y-161562971D01*
X232181935Y-161593819D01*
X232194319Y-161620345D01*
X232198192Y-161653026D01*
X232198333Y-161664995D01*
X232195424Y-161704712D01*
X232183798Y-161734259D01*
X232163677Y-161760486D01*
X232122784Y-161800576D01*
X232077183Y-161831149D01*
X232023487Y-161853203D01*
X231958308Y-161867735D01*
X231878256Y-161875741D01*
X231779943Y-161878218D01*
X231763711Y-161878177D01*
X231698151Y-161876818D01*
X231633134Y-161873730D01*
X231575748Y-161869356D01*
X231533078Y-161864140D01*
X231529628Y-161863541D01*
X231487204Y-161853491D01*
X231451220Y-161840796D01*
X231430850Y-161829190D01*
X231411893Y-161798572D01*
X231410573Y-161762918D01*
X231426915Y-161731144D01*
X231430571Y-161727551D01*
X231445685Y-161716876D01*
X231464585Y-161712276D01*
X231493838Y-161713059D01*
X231529349Y-161717127D01*
X231569030Y-161720762D01*
X231624655Y-161723828D01*
X231689594Y-161726053D01*
X231757215Y-161727164D01*
X231775000Y-161727237D01*
X231842872Y-161726964D01*
X231892546Y-161725646D01*
X231928390Y-161722827D01*
X231954776Y-161718050D01*
X231976074Y-161710857D01*
X231988874Y-161704867D01*
X232017000Y-161688233D01*
X232034932Y-161673168D01*
X232037553Y-161668897D01*
X232032024Y-161651263D01*
X232005740Y-161634192D01*
X231960522Y-161618458D01*
X231898192Y-161604838D01*
X231879829Y-161601804D01*
X231783910Y-161586738D01*
X231707359Y-161574146D01*
X231647220Y-161563111D01*
X231600540Y-161552720D01*
X231564363Y-161542056D01*
X231535735Y-161530205D01*
X231511702Y-161516251D01*
X231489308Y-161499281D01*
X231465598Y-161478378D01*
X231457620Y-161471049D01*
X231429647Y-161443699D01*
X231414840Y-161422029D01*
X231409048Y-161397232D01*
X231408111Y-161365983D01*
X231418425Y-161304705D01*
X231449248Y-161252640D01*
X231500405Y-161209958D01*
X231571717Y-161176825D01*
X231622600Y-161161964D01*
X231677900Y-161152366D01*
X231744147Y-161146936D01*
X231817294Y-161145367D01*
X231893297Y-161147351D01*
G36*
X232661178Y-161168645D02*
G01*
X232667758Y-161176218D01*
X232672921Y-161185987D01*
X232676836Y-161200571D01*
X232679676Y-161222585D01*
X232681613Y-161254648D01*
X232682817Y-161299375D01*
X232683461Y-161359385D01*
X232683716Y-161437294D01*
X232683755Y-161512956D01*
X232683686Y-161606802D01*
X232683362Y-161680689D01*
X232682614Y-161737232D01*
X232681268Y-161779049D01*
X232679154Y-161808757D01*
X232676100Y-161828973D01*
X232671934Y-161842314D01*
X232666484Y-161851398D01*
X232661178Y-161857267D01*
X232628174Y-161876947D01*
X232593009Y-161875181D01*
X232561545Y-161853717D01*
X232554316Y-161845337D01*
X232548666Y-161835614D01*
X232544401Y-161821861D01*
X232541327Y-161801389D01*
X232539248Y-161771512D01*
X232537970Y-161729541D01*
X232537299Y-161672789D01*
X232537041Y-161598567D01*
X232537000Y-161514537D01*
X232537000Y-161201485D01*
X232564709Y-161173776D01*
X232598863Y-161150463D01*
X232631994Y-161149623D01*
X232661178Y-161168645D01*
X232661178Y-161168645D01*
G37*
X232661178Y-161168645D02*
X232667758Y-161176218D01*
X232672921Y-161185987D01*
X232676836Y-161200571D01*
X232679676Y-161222585D01*
X232681613Y-161254648D01*
X232682817Y-161299375D01*
X232683461Y-161359385D01*
X232683716Y-161437294D01*
X232683755Y-161512956D01*
X232683686Y-161606802D01*
X232683362Y-161680689D01*
X232682614Y-161737232D01*
X232681268Y-161779049D01*
X232679154Y-161808757D01*
X232676100Y-161828973D01*
X232671934Y-161842314D01*
X232666484Y-161851398D01*
X232661178Y-161857267D01*
X232628174Y-161876947D01*
X232593009Y-161875181D01*
X232561545Y-161853717D01*
X232554316Y-161845337D01*
X232548666Y-161835614D01*
X232544401Y-161821861D01*
X232541327Y-161801389D01*
X232539248Y-161771512D01*
X232537970Y-161729541D01*
X232537299Y-161672789D01*
X232537041Y-161598567D01*
X232537000Y-161514537D01*
X232537000Y-161201485D01*
X232564709Y-161173776D01*
X232598863Y-161150463D01*
X232631994Y-161149623D01*
X232661178Y-161168645D01*
G36*
X233634919Y-161151599D02*
G01*
X233703435Y-161163095D01*
X233756057Y-161180967D01*
X233790292Y-161204499D01*
X233799621Y-161217924D01*
X233809107Y-161249148D01*
X233802723Y-161277395D01*
X233782570Y-161304182D01*
X233751255Y-161316713D01*
X233705817Y-161315696D01*
X233670674Y-161308906D01*
X233592581Y-161295971D01*
X233512774Y-161294742D01*
X233423445Y-161305241D01*
X233398771Y-161309690D01*
X233315709Y-161333108D01*
X233250727Y-161367945D01*
X233204539Y-161413604D01*
X233177855Y-161469494D01*
X233172337Y-161498388D01*
X233175949Y-161557012D01*
X233199271Y-161608879D01*
X233240176Y-161652978D01*
X233296541Y-161688299D01*
X233366240Y-161713829D01*
X233447148Y-161728559D01*
X233537140Y-161731478D01*
X233634090Y-161721575D01*
X233639564Y-161720641D01*
X233678125Y-161713459D01*
X233699506Y-161706521D01*
X233708773Y-161696227D01*
X233710994Y-161678976D01*
X233711044Y-161669841D01*
X233711044Y-161631489D01*
X233642569Y-161631489D01*
X233582100Y-161627347D01*
X233540835Y-161614147D01*
X233516825Y-161590730D01*
X233508123Y-161555936D01*
X233508017Y-161551394D01*
X233513108Y-161521654D01*
X233530567Y-161500419D01*
X233563061Y-161486366D01*
X233613257Y-161478173D01*
X233661877Y-161475161D01*
X233732544Y-161473433D01*
X233783802Y-161476070D01*
X233818761Y-161485800D01*
X233840530Y-161505353D01*
X233852220Y-161537456D01*
X233856940Y-161584838D01*
X233857800Y-161647071D01*
X233856391Y-161716535D01*
X233852152Y-161763786D01*
X233845064Y-161789012D01*
X233843689Y-161790988D01*
X233804772Y-161822508D01*
X233747714Y-161847470D01*
X233676131Y-161865340D01*
X233593642Y-161875586D01*
X233503861Y-161877673D01*
X233410408Y-161871068D01*
X233355444Y-161862956D01*
X233269234Y-161838554D01*
X233189108Y-161798662D01*
X233122023Y-161746887D01*
X233111827Y-161736539D01*
X233078698Y-161693035D01*
X233048806Y-161639118D01*
X233025643Y-161582592D01*
X233012702Y-161531259D01*
X233011142Y-161511544D01*
X233017782Y-161470419D01*
X233035432Y-161419252D01*
X233060703Y-161365394D01*
X233090211Y-161316195D01*
X233116281Y-161283334D01*
X233177235Y-161234452D01*
X233256031Y-161195545D01*
X233349843Y-161167494D01*
X233455850Y-161151179D01*
X233553000Y-161147192D01*
X233634919Y-161151599D01*
X233634919Y-161151599D01*
G37*
X233634919Y-161151599D02*
X233703435Y-161163095D01*
X233756057Y-161180967D01*
X233790292Y-161204499D01*
X233799621Y-161217924D01*
X233809107Y-161249148D01*
X233802723Y-161277395D01*
X233782570Y-161304182D01*
X233751255Y-161316713D01*
X233705817Y-161315696D01*
X233670674Y-161308906D01*
X233592581Y-161295971D01*
X233512774Y-161294742D01*
X233423445Y-161305241D01*
X233398771Y-161309690D01*
X233315709Y-161333108D01*
X233250727Y-161367945D01*
X233204539Y-161413604D01*
X233177855Y-161469494D01*
X233172337Y-161498388D01*
X233175949Y-161557012D01*
X233199271Y-161608879D01*
X233240176Y-161652978D01*
X233296541Y-161688299D01*
X233366240Y-161713829D01*
X233447148Y-161728559D01*
X233537140Y-161731478D01*
X233634090Y-161721575D01*
X233639564Y-161720641D01*
X233678125Y-161713459D01*
X233699506Y-161706521D01*
X233708773Y-161696227D01*
X233710994Y-161678976D01*
X233711044Y-161669841D01*
X233711044Y-161631489D01*
X233642569Y-161631489D01*
X233582100Y-161627347D01*
X233540835Y-161614147D01*
X233516825Y-161590730D01*
X233508123Y-161555936D01*
X233508017Y-161551394D01*
X233513108Y-161521654D01*
X233530567Y-161500419D01*
X233563061Y-161486366D01*
X233613257Y-161478173D01*
X233661877Y-161475161D01*
X233732544Y-161473433D01*
X233783802Y-161476070D01*
X233818761Y-161485800D01*
X233840530Y-161505353D01*
X233852220Y-161537456D01*
X233856940Y-161584838D01*
X233857800Y-161647071D01*
X233856391Y-161716535D01*
X233852152Y-161763786D01*
X233845064Y-161789012D01*
X233843689Y-161790988D01*
X233804772Y-161822508D01*
X233747714Y-161847470D01*
X233676131Y-161865340D01*
X233593642Y-161875586D01*
X233503861Y-161877673D01*
X233410408Y-161871068D01*
X233355444Y-161862956D01*
X233269234Y-161838554D01*
X233189108Y-161798662D01*
X233122023Y-161746887D01*
X233111827Y-161736539D01*
X233078698Y-161693035D01*
X233048806Y-161639118D01*
X233025643Y-161582592D01*
X233012702Y-161531259D01*
X233011142Y-161511544D01*
X233017782Y-161470419D01*
X233035432Y-161419252D01*
X233060703Y-161365394D01*
X233090211Y-161316195D01*
X233116281Y-161283334D01*
X233177235Y-161234452D01*
X233256031Y-161195545D01*
X233349843Y-161167494D01*
X233455850Y-161151179D01*
X233553000Y-161147192D01*
X233634919Y-161151599D01*
G36*
X234284886Y-161150448D02*
G01*
X234308452Y-161164273D01*
X234339265Y-161186881D01*
X234378922Y-161219338D01*
X234429020Y-161262708D01*
X234491157Y-161318058D01*
X234566928Y-161386451D01*
X234653666Y-161465084D01*
X234834289Y-161628878D01*
X234839933Y-161409029D01*
X234841971Y-161333351D01*
X234843937Y-161276994D01*
X234846266Y-161236706D01*
X234849394Y-161209235D01*
X234853755Y-161191329D01*
X234859784Y-161179737D01*
X234867916Y-161171208D01*
X234872228Y-161167623D01*
X234906759Y-161148670D01*
X234939617Y-161151441D01*
X234965682Y-161167633D01*
X234992333Y-161189199D01*
X234995648Y-161504151D01*
X234996565Y-161596779D01*
X234997032Y-161669544D01*
X234996887Y-161725161D01*
X234995968Y-161766342D01*
X234994113Y-161795803D01*
X234991161Y-161816255D01*
X234986950Y-161830413D01*
X234981318Y-161840991D01*
X234975073Y-161849474D01*
X234961561Y-161865207D01*
X234948117Y-161875636D01*
X234932876Y-161879639D01*
X234913974Y-161876094D01*
X234889545Y-161863879D01*
X234857727Y-161841871D01*
X234816652Y-161808949D01*
X234764458Y-161763991D01*
X234699278Y-161705875D01*
X234625444Y-161639099D01*
X234360155Y-161398458D01*
X234354511Y-161617589D01*
X234352469Y-161693128D01*
X234350498Y-161749354D01*
X234348161Y-161789524D01*
X234345019Y-161816896D01*
X234340636Y-161834728D01*
X234334576Y-161846279D01*
X234326400Y-161854807D01*
X234322216Y-161858282D01*
X234285235Y-161877372D01*
X234250292Y-161874493D01*
X234219864Y-161850100D01*
X234212903Y-161840286D01*
X234207477Y-161828826D01*
X234203397Y-161812968D01*
X234200471Y-161789963D01*
X234198508Y-161757062D01*
X234197317Y-161711516D01*
X234196708Y-161650573D01*
X234196489Y-161571486D01*
X234196466Y-161512956D01*
X234196540Y-161421407D01*
X234196887Y-161349687D01*
X234197699Y-161295045D01*
X234199167Y-161254732D01*
X234201481Y-161225998D01*
X234204833Y-161206093D01*
X234209412Y-161192268D01*
X234215411Y-161181772D01*
X234219864Y-161175811D01*
X234231150Y-161161691D01*
X234241699Y-161151029D01*
X234253107Y-161144892D01*
X234266970Y-161144343D01*
X234284886Y-161150448D01*
X234284886Y-161150448D01*
G37*
X234284886Y-161150448D02*
X234308452Y-161164273D01*
X234339265Y-161186881D01*
X234378922Y-161219338D01*
X234429020Y-161262708D01*
X234491157Y-161318058D01*
X234566928Y-161386451D01*
X234653666Y-161465084D01*
X234834289Y-161628878D01*
X234839933Y-161409029D01*
X234841971Y-161333351D01*
X234843937Y-161276994D01*
X234846266Y-161236706D01*
X234849394Y-161209235D01*
X234853755Y-161191329D01*
X234859784Y-161179737D01*
X234867916Y-161171208D01*
X234872228Y-161167623D01*
X234906759Y-161148670D01*
X234939617Y-161151441D01*
X234965682Y-161167633D01*
X234992333Y-161189199D01*
X234995648Y-161504151D01*
X234996565Y-161596779D01*
X234997032Y-161669544D01*
X234996887Y-161725161D01*
X234995968Y-161766342D01*
X234994113Y-161795803D01*
X234991161Y-161816255D01*
X234986950Y-161830413D01*
X234981318Y-161840991D01*
X234975073Y-161849474D01*
X234961561Y-161865207D01*
X234948117Y-161875636D01*
X234932876Y-161879639D01*
X234913974Y-161876094D01*
X234889545Y-161863879D01*
X234857727Y-161841871D01*
X234816652Y-161808949D01*
X234764458Y-161763991D01*
X234699278Y-161705875D01*
X234625444Y-161639099D01*
X234360155Y-161398458D01*
X234354511Y-161617589D01*
X234352469Y-161693128D01*
X234350498Y-161749354D01*
X234348161Y-161789524D01*
X234345019Y-161816896D01*
X234340636Y-161834728D01*
X234334576Y-161846279D01*
X234326400Y-161854807D01*
X234322216Y-161858282D01*
X234285235Y-161877372D01*
X234250292Y-161874493D01*
X234219864Y-161850100D01*
X234212903Y-161840286D01*
X234207477Y-161828826D01*
X234203397Y-161812968D01*
X234200471Y-161789963D01*
X234198508Y-161757062D01*
X234197317Y-161711516D01*
X234196708Y-161650573D01*
X234196489Y-161571486D01*
X234196466Y-161512956D01*
X234196540Y-161421407D01*
X234196887Y-161349687D01*
X234197699Y-161295045D01*
X234199167Y-161254732D01*
X234201481Y-161225998D01*
X234204833Y-161206093D01*
X234209412Y-161192268D01*
X234215411Y-161181772D01*
X234219864Y-161175811D01*
X234231150Y-161161691D01*
X234241699Y-161151029D01*
X234253107Y-161144892D01*
X234266970Y-161144343D01*
X234284886Y-161150448D01*
G36*
X235815343Y-161146260D02*
G01*
X235891701Y-161147174D01*
X235950217Y-161149311D01*
X235993255Y-161153175D01*
X236023183Y-161159267D01*
X236042368Y-161168090D01*
X236053176Y-161180146D01*
X236057973Y-161195939D01*
X236059127Y-161215970D01*
X236059133Y-161218335D01*
X236058131Y-161240992D01*
X236053396Y-161258503D01*
X236042333Y-161271574D01*
X236022348Y-161280913D01*
X235990846Y-161287227D01*
X235945232Y-161291222D01*
X235882913Y-161293606D01*
X235801293Y-161295086D01*
X235776277Y-161295414D01*
X235534200Y-161298467D01*
X235530814Y-161363378D01*
X235527429Y-161428289D01*
X235695576Y-161428289D01*
X235761266Y-161428531D01*
X235808172Y-161429556D01*
X235840083Y-161431811D01*
X235860791Y-161435742D01*
X235874084Y-161441798D01*
X235883755Y-161450424D01*
X235883817Y-161450493D01*
X235901356Y-161484112D01*
X235900722Y-161520448D01*
X235882314Y-161551423D01*
X235878671Y-161554607D01*
X235865741Y-161562812D01*
X235848024Y-161568521D01*
X235821570Y-161572162D01*
X235782432Y-161574167D01*
X235726662Y-161574964D01*
X235690994Y-161575045D01*
X235528555Y-161575045D01*
X235528555Y-161733089D01*
X235775161Y-161733089D01*
X235856580Y-161733231D01*
X235918410Y-161733814D01*
X235963637Y-161735068D01*
X235995248Y-161737227D01*
X236016231Y-161740523D01*
X236029573Y-161745189D01*
X236038261Y-161751457D01*
X236040450Y-161753733D01*
X236056614Y-161785280D01*
X236057797Y-161821168D01*
X236044536Y-161852285D01*
X236034043Y-161862271D01*
X236023129Y-161867769D01*
X236006217Y-161872022D01*
X235980633Y-161875180D01*
X235943701Y-161877392D01*
X235892746Y-161878806D01*
X235825094Y-161879572D01*
X235738069Y-161879838D01*
X235718394Y-161879845D01*
X235629911Y-161879787D01*
X235561227Y-161879467D01*
X235509564Y-161878667D01*
X235472145Y-161877167D01*
X235446190Y-161874749D01*
X235428922Y-161871194D01*
X235417562Y-161866282D01*
X235409332Y-161859795D01*
X235404817Y-161855138D01*
X235398021Y-161846889D01*
X235392712Y-161836669D01*
X235388706Y-161821800D01*
X235385821Y-161799602D01*
X235383874Y-161767393D01*
X235382681Y-161722496D01*
X235382061Y-161662228D01*
X235381829Y-161583911D01*
X235381800Y-161517994D01*
X235381871Y-161425628D01*
X235382208Y-161353117D01*
X235382998Y-161297737D01*
X235384426Y-161256765D01*
X235386679Y-161227478D01*
X235389943Y-161207153D01*
X235394404Y-161193066D01*
X235400248Y-161182495D01*
X235405197Y-161175811D01*
X235428594Y-161146067D01*
X235718774Y-161146067D01*
X235815343Y-161146260D01*
X235815343Y-161146260D01*
G37*
X235815343Y-161146260D02*
X235891701Y-161147174D01*
X235950217Y-161149311D01*
X235993255Y-161153175D01*
X236023183Y-161159267D01*
X236042368Y-161168090D01*
X236053176Y-161180146D01*
X236057973Y-161195939D01*
X236059127Y-161215970D01*
X236059133Y-161218335D01*
X236058131Y-161240992D01*
X236053396Y-161258503D01*
X236042333Y-161271574D01*
X236022348Y-161280913D01*
X235990846Y-161287227D01*
X235945232Y-161291222D01*
X235882913Y-161293606D01*
X235801293Y-161295086D01*
X235776277Y-161295414D01*
X235534200Y-161298467D01*
X235530814Y-161363378D01*
X235527429Y-161428289D01*
X235695576Y-161428289D01*
X235761266Y-161428531D01*
X235808172Y-161429556D01*
X235840083Y-161431811D01*
X235860791Y-161435742D01*
X235874084Y-161441798D01*
X235883755Y-161450424D01*
X235883817Y-161450493D01*
X235901356Y-161484112D01*
X235900722Y-161520448D01*
X235882314Y-161551423D01*
X235878671Y-161554607D01*
X235865741Y-161562812D01*
X235848024Y-161568521D01*
X235821570Y-161572162D01*
X235782432Y-161574167D01*
X235726662Y-161574964D01*
X235690994Y-161575045D01*
X235528555Y-161575045D01*
X235528555Y-161733089D01*
X235775161Y-161733089D01*
X235856580Y-161733231D01*
X235918410Y-161733814D01*
X235963637Y-161735068D01*
X235995248Y-161737227D01*
X236016231Y-161740523D01*
X236029573Y-161745189D01*
X236038261Y-161751457D01*
X236040450Y-161753733D01*
X236056614Y-161785280D01*
X236057797Y-161821168D01*
X236044536Y-161852285D01*
X236034043Y-161862271D01*
X236023129Y-161867769D01*
X236006217Y-161872022D01*
X235980633Y-161875180D01*
X235943701Y-161877392D01*
X235892746Y-161878806D01*
X235825094Y-161879572D01*
X235738069Y-161879838D01*
X235718394Y-161879845D01*
X235629911Y-161879787D01*
X235561227Y-161879467D01*
X235509564Y-161878667D01*
X235472145Y-161877167D01*
X235446190Y-161874749D01*
X235428922Y-161871194D01*
X235417562Y-161866282D01*
X235409332Y-161859795D01*
X235404817Y-161855138D01*
X235398021Y-161846889D01*
X235392712Y-161836669D01*
X235388706Y-161821800D01*
X235385821Y-161799602D01*
X235383874Y-161767393D01*
X235382681Y-161722496D01*
X235382061Y-161662228D01*
X235381829Y-161583911D01*
X235381800Y-161517994D01*
X235381871Y-161425628D01*
X235382208Y-161353117D01*
X235382998Y-161297737D01*
X235384426Y-161256765D01*
X235386679Y-161227478D01*
X235389943Y-161207153D01*
X235394404Y-161193066D01*
X235400248Y-161182495D01*
X235405197Y-161175811D01*
X235428594Y-161146067D01*
X235718774Y-161146067D01*
X235815343Y-161146260D01*
G36*
X236603309Y-161146275D02*
G01*
X236732288Y-161150636D01*
X236841991Y-161163861D01*
X236934226Y-161186741D01*
X237010802Y-161220070D01*
X237073527Y-161264638D01*
X237124212Y-161321236D01*
X237164663Y-161390658D01*
X237165459Y-161392351D01*
X237189601Y-161454483D01*
X237198203Y-161509509D01*
X237191231Y-161564887D01*
X237168654Y-161628073D01*
X237164372Y-161637689D01*
X237135172Y-161693966D01*
X237102356Y-161737451D01*
X237060002Y-161774417D01*
X237002190Y-161811135D01*
X236998831Y-161813052D01*
X236948504Y-161837227D01*
X236891621Y-161855282D01*
X236824527Y-161867839D01*
X236743565Y-161875522D01*
X236645082Y-161878953D01*
X236610286Y-161879251D01*
X236444594Y-161879845D01*
X236421197Y-161850100D01*
X236414257Y-161840319D01*
X236408842Y-161828897D01*
X236404765Y-161813095D01*
X236401837Y-161790175D01*
X236399867Y-161757396D01*
X236399225Y-161733089D01*
X236555844Y-161733089D01*
X236649726Y-161733089D01*
X236704664Y-161731483D01*
X236761060Y-161727255D01*
X236807345Y-161721292D01*
X236810139Y-161720790D01*
X236892348Y-161698736D01*
X236956114Y-161665600D01*
X237003452Y-161619847D01*
X237036382Y-161559939D01*
X237042108Y-161544061D01*
X237047721Y-161519333D01*
X237045291Y-161494902D01*
X237033467Y-161462400D01*
X237026340Y-161446434D01*
X237003000Y-161404006D01*
X236974880Y-161374240D01*
X236943940Y-161353511D01*
X236881966Y-161326537D01*
X236802651Y-161306998D01*
X236710253Y-161295746D01*
X236643333Y-161293270D01*
X236555844Y-161292822D01*
X236555844Y-161733089D01*
X236399225Y-161733089D01*
X236398668Y-161712021D01*
X236398050Y-161651311D01*
X236397825Y-161572526D01*
X236397800Y-161510920D01*
X236397800Y-161201485D01*
X236425509Y-161173776D01*
X236437806Y-161162544D01*
X236451103Y-161154853D01*
X236469672Y-161150040D01*
X236497786Y-161147446D01*
X236539717Y-161146410D01*
X236599737Y-161146270D01*
X236603309Y-161146275D01*
X236603309Y-161146275D01*
G37*
X236603309Y-161146275D02*
X236732288Y-161150636D01*
X236841991Y-161163861D01*
X236934226Y-161186741D01*
X237010802Y-161220070D01*
X237073527Y-161264638D01*
X237124212Y-161321236D01*
X237164663Y-161390658D01*
X237165459Y-161392351D01*
X237189601Y-161454483D01*
X237198203Y-161509509D01*
X237191231Y-161564887D01*
X237168654Y-161628073D01*
X237164372Y-161637689D01*
X237135172Y-161693966D01*
X237102356Y-161737451D01*
X237060002Y-161774417D01*
X237002190Y-161811135D01*
X236998831Y-161813052D01*
X236948504Y-161837227D01*
X236891621Y-161855282D01*
X236824527Y-161867839D01*
X236743565Y-161875522D01*
X236645082Y-161878953D01*
X236610286Y-161879251D01*
X236444594Y-161879845D01*
X236421197Y-161850100D01*
X236414257Y-161840319D01*
X236408842Y-161828897D01*
X236404765Y-161813095D01*
X236401837Y-161790175D01*
X236399867Y-161757396D01*
X236399225Y-161733089D01*
X236555844Y-161733089D01*
X236649726Y-161733089D01*
X236704664Y-161731483D01*
X236761060Y-161727255D01*
X236807345Y-161721292D01*
X236810139Y-161720790D01*
X236892348Y-161698736D01*
X236956114Y-161665600D01*
X237003452Y-161619847D01*
X237036382Y-161559939D01*
X237042108Y-161544061D01*
X237047721Y-161519333D01*
X237045291Y-161494902D01*
X237033467Y-161462400D01*
X237026340Y-161446434D01*
X237003000Y-161404006D01*
X236974880Y-161374240D01*
X236943940Y-161353511D01*
X236881966Y-161326537D01*
X236802651Y-161306998D01*
X236710253Y-161295746D01*
X236643333Y-161293270D01*
X236555844Y-161292822D01*
X236555844Y-161733089D01*
X236399225Y-161733089D01*
X236398668Y-161712021D01*
X236398050Y-161651311D01*
X236397825Y-161572526D01*
X236397800Y-161510920D01*
X236397800Y-161201485D01*
X236425509Y-161173776D01*
X236437806Y-161162544D01*
X236451103Y-161154853D01*
X236469672Y-161150040D01*
X236497786Y-161147446D01*
X236539717Y-161146410D01*
X236599737Y-161146270D01*
X236603309Y-161146275D01*
G36*
X239329665Y-161148034D02*
G01*
X239349255Y-161155035D01*
X239350010Y-161155377D01*
X239376613Y-161175678D01*
X239391270Y-161196561D01*
X239394138Y-161206352D01*
X239393996Y-161219361D01*
X239389961Y-161237895D01*
X239381146Y-161264257D01*
X239366669Y-161300752D01*
X239345645Y-161349687D01*
X239317188Y-161413365D01*
X239280415Y-161494093D01*
X239260175Y-161538216D01*
X239223625Y-161616985D01*
X239189315Y-161689423D01*
X239158552Y-161752880D01*
X239132648Y-161804708D01*
X239112910Y-161842259D01*
X239100650Y-161862884D01*
X239098224Y-161865733D01*
X239067183Y-161878302D01*
X239032121Y-161876619D01*
X239004000Y-161861332D01*
X239002854Y-161860089D01*
X238991668Y-161843154D01*
X238972904Y-161810170D01*
X238948875Y-161765380D01*
X238921897Y-161713032D01*
X238912201Y-161693742D01*
X238839014Y-161547150D01*
X238759240Y-161706393D01*
X238730767Y-161761415D01*
X238704350Y-161809132D01*
X238682148Y-161845893D01*
X238666319Y-161868044D01*
X238660954Y-161872741D01*
X238619257Y-161879102D01*
X238584849Y-161865733D01*
X238574728Y-161851446D01*
X238557214Y-161819692D01*
X238533735Y-161773597D01*
X238505720Y-161716285D01*
X238474599Y-161650880D01*
X238441799Y-161580507D01*
X238408750Y-161508291D01*
X238376881Y-161437355D01*
X238347619Y-161370825D01*
X238322395Y-161311826D01*
X238302636Y-161263481D01*
X238289772Y-161228915D01*
X238285231Y-161211253D01*
X238285277Y-161210613D01*
X238296326Y-161188388D01*
X238318410Y-161165753D01*
X238319710Y-161164768D01*
X238346853Y-161149425D01*
X238371958Y-161149574D01*
X238381368Y-161152466D01*
X238392834Y-161158718D01*
X238405010Y-161171014D01*
X238419357Y-161191908D01*
X238437336Y-161223949D01*
X238460407Y-161269688D01*
X238490030Y-161331677D01*
X238516745Y-161388898D01*
X238547480Y-161455226D01*
X238575021Y-161514874D01*
X238597938Y-161564725D01*
X238614798Y-161601664D01*
X238624173Y-161622573D01*
X238625540Y-161625845D01*
X238631689Y-161620497D01*
X238645822Y-161598109D01*
X238666057Y-161561946D01*
X238690515Y-161515277D01*
X238700248Y-161496022D01*
X238733217Y-161431004D01*
X238758643Y-161383654D01*
X238778612Y-161351219D01*
X238795210Y-161330946D01*
X238810524Y-161320082D01*
X238826640Y-161315875D01*
X238837143Y-161315400D01*
X238855670Y-161317042D01*
X238871904Y-161323831D01*
X238888035Y-161338566D01*
X238906251Y-161364044D01*
X238928739Y-161403061D01*
X238957689Y-161458414D01*
X238973662Y-161489903D01*
X238999570Y-161540087D01*
X239022167Y-161581704D01*
X239039458Y-161611242D01*
X239049450Y-161625189D01*
X239050809Y-161625770D01*
X239057261Y-161614793D01*
X239071708Y-161586290D01*
X239092703Y-161543244D01*
X239118797Y-161488638D01*
X239148546Y-161425454D01*
X239163180Y-161394071D01*
X239201250Y-161313078D01*
X239231905Y-161250756D01*
X239256737Y-161205071D01*
X239277337Y-161173989D01*
X239295298Y-161155478D01*
X239312210Y-161147504D01*
X239329665Y-161148034D01*
X239329665Y-161148034D01*
G37*
X239329665Y-161148034D02*
X239349255Y-161155035D01*
X239350010Y-161155377D01*
X239376613Y-161175678D01*
X239391270Y-161196561D01*
X239394138Y-161206352D01*
X239393996Y-161219361D01*
X239389961Y-161237895D01*
X239381146Y-161264257D01*
X239366669Y-161300752D01*
X239345645Y-161349687D01*
X239317188Y-161413365D01*
X239280415Y-161494093D01*
X239260175Y-161538216D01*
X239223625Y-161616985D01*
X239189315Y-161689423D01*
X239158552Y-161752880D01*
X239132648Y-161804708D01*
X239112910Y-161842259D01*
X239100650Y-161862884D01*
X239098224Y-161865733D01*
X239067183Y-161878302D01*
X239032121Y-161876619D01*
X239004000Y-161861332D01*
X239002854Y-161860089D01*
X238991668Y-161843154D01*
X238972904Y-161810170D01*
X238948875Y-161765380D01*
X238921897Y-161713032D01*
X238912201Y-161693742D01*
X238839014Y-161547150D01*
X238759240Y-161706393D01*
X238730767Y-161761415D01*
X238704350Y-161809132D01*
X238682148Y-161845893D01*
X238666319Y-161868044D01*
X238660954Y-161872741D01*
X238619257Y-161879102D01*
X238584849Y-161865733D01*
X238574728Y-161851446D01*
X238557214Y-161819692D01*
X238533735Y-161773597D01*
X238505720Y-161716285D01*
X238474599Y-161650880D01*
X238441799Y-161580507D01*
X238408750Y-161508291D01*
X238376881Y-161437355D01*
X238347619Y-161370825D01*
X238322395Y-161311826D01*
X238302636Y-161263481D01*
X238289772Y-161228915D01*
X238285231Y-161211253D01*
X238285277Y-161210613D01*
X238296326Y-161188388D01*
X238318410Y-161165753D01*
X238319710Y-161164768D01*
X238346853Y-161149425D01*
X238371958Y-161149574D01*
X238381368Y-161152466D01*
X238392834Y-161158718D01*
X238405010Y-161171014D01*
X238419357Y-161191908D01*
X238437336Y-161223949D01*
X238460407Y-161269688D01*
X238490030Y-161331677D01*
X238516745Y-161388898D01*
X238547480Y-161455226D01*
X238575021Y-161514874D01*
X238597938Y-161564725D01*
X238614798Y-161601664D01*
X238624173Y-161622573D01*
X238625540Y-161625845D01*
X238631689Y-161620497D01*
X238645822Y-161598109D01*
X238666057Y-161561946D01*
X238690515Y-161515277D01*
X238700248Y-161496022D01*
X238733217Y-161431004D01*
X238758643Y-161383654D01*
X238778612Y-161351219D01*
X238795210Y-161330946D01*
X238810524Y-161320082D01*
X238826640Y-161315875D01*
X238837143Y-161315400D01*
X238855670Y-161317042D01*
X238871904Y-161323831D01*
X238888035Y-161338566D01*
X238906251Y-161364044D01*
X238928739Y-161403061D01*
X238957689Y-161458414D01*
X238973662Y-161489903D01*
X238999570Y-161540087D01*
X239022167Y-161581704D01*
X239039458Y-161611242D01*
X239049450Y-161625189D01*
X239050809Y-161625770D01*
X239057261Y-161614793D01*
X239071708Y-161586290D01*
X239092703Y-161543244D01*
X239118797Y-161488638D01*
X239148546Y-161425454D01*
X239163180Y-161394071D01*
X239201250Y-161313078D01*
X239231905Y-161250756D01*
X239256737Y-161205071D01*
X239277337Y-161173989D01*
X239295298Y-161155478D01*
X239312210Y-161147504D01*
X239329665Y-161148034D01*
G36*
X239773614Y-161152877D02*
G01*
X239797327Y-161167647D01*
X239823978Y-161189227D01*
X239823978Y-161510773D01*
X239823893Y-161604830D01*
X239823529Y-161678932D01*
X239822724Y-161735704D01*
X239821313Y-161777768D01*
X239819133Y-161807748D01*
X239816021Y-161828267D01*
X239811814Y-161841949D01*
X239806348Y-161851416D01*
X239802472Y-161856082D01*
X239771034Y-161876575D01*
X239735233Y-161875739D01*
X239703873Y-161858264D01*
X239677222Y-161836684D01*
X239677222Y-161189227D01*
X239703873Y-161167647D01*
X239729594Y-161151949D01*
X239750600Y-161146067D01*
X239773614Y-161152877D01*
X239773614Y-161152877D01*
G37*
X239773614Y-161152877D02*
X239797327Y-161167647D01*
X239823978Y-161189227D01*
X239823978Y-161510773D01*
X239823893Y-161604830D01*
X239823529Y-161678932D01*
X239822724Y-161735704D01*
X239821313Y-161777768D01*
X239819133Y-161807748D01*
X239816021Y-161828267D01*
X239811814Y-161841949D01*
X239806348Y-161851416D01*
X239802472Y-161856082D01*
X239771034Y-161876575D01*
X239735233Y-161875739D01*
X239703873Y-161858264D01*
X239677222Y-161836684D01*
X239677222Y-161189227D01*
X239703873Y-161167647D01*
X239729594Y-161151949D01*
X239750600Y-161146067D01*
X239773614Y-161152877D01*
G36*
X240548065Y-161146163D02*
G01*
X240626772Y-161146542D01*
X240687863Y-161147333D01*
X240733817Y-161148670D01*
X240767114Y-161150683D01*
X240790236Y-161153506D01*
X240805662Y-161157269D01*
X240815871Y-161162105D01*
X240820813Y-161165822D01*
X240846457Y-161198358D01*
X240849559Y-161232138D01*
X240833711Y-161262826D01*
X240823348Y-161275089D01*
X240812196Y-161283450D01*
X240796035Y-161288657D01*
X240770642Y-161291457D01*
X240731798Y-161292596D01*
X240675280Y-161292821D01*
X240664180Y-161292822D01*
X240518244Y-161292822D01*
X240518244Y-161563756D01*
X240518148Y-161649154D01*
X240517711Y-161714864D01*
X240516712Y-161763774D01*
X240514928Y-161798773D01*
X240512137Y-161822749D01*
X240508117Y-161838593D01*
X240502645Y-161849191D01*
X240495666Y-161857267D01*
X240462734Y-161877112D01*
X240428354Y-161875548D01*
X240397176Y-161852906D01*
X240394886Y-161850100D01*
X240387429Y-161839492D01*
X240381747Y-161827081D01*
X240377601Y-161809850D01*
X240374750Y-161784784D01*
X240372954Y-161748867D01*
X240371972Y-161699083D01*
X240371564Y-161632417D01*
X240371489Y-161556589D01*
X240371489Y-161292822D01*
X240232127Y-161292822D01*
X240172322Y-161292418D01*
X240130918Y-161290840D01*
X240103748Y-161287547D01*
X240086646Y-161281992D01*
X240075443Y-161273631D01*
X240074083Y-161272178D01*
X240057725Y-161238939D01*
X240059172Y-161201362D01*
X240077978Y-161168645D01*
X240085250Y-161162298D01*
X240094627Y-161157266D01*
X240108609Y-161153396D01*
X240129696Y-161150537D01*
X240160389Y-161148535D01*
X240203189Y-161147239D01*
X240260595Y-161146498D01*
X240335110Y-161146158D01*
X240429233Y-161146068D01*
X240449260Y-161146067D01*
X240548065Y-161146163D01*
X240548065Y-161146163D01*
G37*
X240548065Y-161146163D02*
X240626772Y-161146542D01*
X240687863Y-161147333D01*
X240733817Y-161148670D01*
X240767114Y-161150683D01*
X240790236Y-161153506D01*
X240805662Y-161157269D01*
X240815871Y-161162105D01*
X240820813Y-161165822D01*
X240846457Y-161198358D01*
X240849559Y-161232138D01*
X240833711Y-161262826D01*
X240823348Y-161275089D01*
X240812196Y-161283450D01*
X240796035Y-161288657D01*
X240770642Y-161291457D01*
X240731798Y-161292596D01*
X240675280Y-161292821D01*
X240664180Y-161292822D01*
X240518244Y-161292822D01*
X240518244Y-161563756D01*
X240518148Y-161649154D01*
X240517711Y-161714864D01*
X240516712Y-161763774D01*
X240514928Y-161798773D01*
X240512137Y-161822749D01*
X240508117Y-161838593D01*
X240502645Y-161849191D01*
X240495666Y-161857267D01*
X240462734Y-161877112D01*
X240428354Y-161875548D01*
X240397176Y-161852906D01*
X240394886Y-161850100D01*
X240387429Y-161839492D01*
X240381747Y-161827081D01*
X240377601Y-161809850D01*
X240374750Y-161784784D01*
X240372954Y-161748867D01*
X240371972Y-161699083D01*
X240371564Y-161632417D01*
X240371489Y-161556589D01*
X240371489Y-161292822D01*
X240232127Y-161292822D01*
X240172322Y-161292418D01*
X240130918Y-161290840D01*
X240103748Y-161287547D01*
X240086646Y-161281992D01*
X240075443Y-161273631D01*
X240074083Y-161272178D01*
X240057725Y-161238939D01*
X240059172Y-161201362D01*
X240077978Y-161168645D01*
X240085250Y-161162298D01*
X240094627Y-161157266D01*
X240108609Y-161153396D01*
X240129696Y-161150537D01*
X240160389Y-161148535D01*
X240203189Y-161147239D01*
X240260595Y-161146498D01*
X240335110Y-161146158D01*
X240429233Y-161146068D01*
X240449260Y-161146067D01*
X240548065Y-161146163D01*
G36*
X241813823Y-161151533D02*
G01*
X241845202Y-161173776D01*
X241872911Y-161201485D01*
X241872911Y-161510920D01*
X241872838Y-161602799D01*
X241872495Y-161674840D01*
X241871692Y-161729780D01*
X241870241Y-161770360D01*
X241867952Y-161799317D01*
X241864636Y-161819391D01*
X241860105Y-161833321D01*
X241854169Y-161843845D01*
X241849514Y-161850100D01*
X241818783Y-161874673D01*
X241783496Y-161877341D01*
X241751245Y-161862271D01*
X241740588Y-161853374D01*
X241733464Y-161841557D01*
X241729167Y-161822526D01*
X241726991Y-161791992D01*
X241726228Y-161745662D01*
X241726155Y-161709871D01*
X241726155Y-161575045D01*
X241229444Y-161575045D01*
X241229444Y-161697700D01*
X241228931Y-161753787D01*
X241226876Y-161792333D01*
X241222508Y-161818361D01*
X241215056Y-161836897D01*
X241206047Y-161850100D01*
X241175144Y-161874604D01*
X241140196Y-161877506D01*
X241106738Y-161860089D01*
X241097604Y-161850959D01*
X241091152Y-161838855D01*
X241086897Y-161820001D01*
X241084352Y-161790620D01*
X241083029Y-161746937D01*
X241082443Y-161685175D01*
X241082375Y-161671000D01*
X241081891Y-161554631D01*
X241081641Y-161458727D01*
X241081723Y-161381177D01*
X241082231Y-161319869D01*
X241083262Y-161272690D01*
X241084913Y-161237530D01*
X241087279Y-161212276D01*
X241090457Y-161194817D01*
X241094544Y-161183041D01*
X241099634Y-161174835D01*
X241105266Y-161168645D01*
X241137128Y-161148844D01*
X241170357Y-161151533D01*
X241201735Y-161173776D01*
X241214433Y-161188126D01*
X241222526Y-161203978D01*
X241227042Y-161226554D01*
X241229006Y-161261078D01*
X241229444Y-161312776D01*
X241229444Y-161428289D01*
X241726155Y-161428289D01*
X241726155Y-161309756D01*
X241726662Y-161255148D01*
X241728698Y-161218275D01*
X241733035Y-161194307D01*
X241740447Y-161178415D01*
X241748733Y-161168645D01*
X241780594Y-161148844D01*
X241813823Y-161151533D01*
X241813823Y-161151533D01*
G37*
X241813823Y-161151533D02*
X241845202Y-161173776D01*
X241872911Y-161201485D01*
X241872911Y-161510920D01*
X241872838Y-161602799D01*
X241872495Y-161674840D01*
X241871692Y-161729780D01*
X241870241Y-161770360D01*
X241867952Y-161799317D01*
X241864636Y-161819391D01*
X241860105Y-161833321D01*
X241854169Y-161843845D01*
X241849514Y-161850100D01*
X241818783Y-161874673D01*
X241783496Y-161877341D01*
X241751245Y-161862271D01*
X241740588Y-161853374D01*
X241733464Y-161841557D01*
X241729167Y-161822526D01*
X241726991Y-161791992D01*
X241726228Y-161745662D01*
X241726155Y-161709871D01*
X241726155Y-161575045D01*
X241229444Y-161575045D01*
X241229444Y-161697700D01*
X241228931Y-161753787D01*
X241226876Y-161792333D01*
X241222508Y-161818361D01*
X241215056Y-161836897D01*
X241206047Y-161850100D01*
X241175144Y-161874604D01*
X241140196Y-161877506D01*
X241106738Y-161860089D01*
X241097604Y-161850959D01*
X241091152Y-161838855D01*
X241086897Y-161820001D01*
X241084352Y-161790620D01*
X241083029Y-161746937D01*
X241082443Y-161685175D01*
X241082375Y-161671000D01*
X241081891Y-161554631D01*
X241081641Y-161458727D01*
X241081723Y-161381177D01*
X241082231Y-161319869D01*
X241083262Y-161272690D01*
X241084913Y-161237530D01*
X241087279Y-161212276D01*
X241090457Y-161194817D01*
X241094544Y-161183041D01*
X241099634Y-161174835D01*
X241105266Y-161168645D01*
X241137128Y-161148844D01*
X241170357Y-161151533D01*
X241201735Y-161173776D01*
X241214433Y-161188126D01*
X241222526Y-161203978D01*
X241227042Y-161226554D01*
X241229006Y-161261078D01*
X241229444Y-161312776D01*
X241229444Y-161428289D01*
X241726155Y-161428289D01*
X241726155Y-161309756D01*
X241726662Y-161255148D01*
X241728698Y-161218275D01*
X241733035Y-161194307D01*
X241740447Y-161178415D01*
X241748733Y-161168645D01*
X241780594Y-161148844D01*
X241813823Y-161151533D01*
G36*
X232638600Y-156366054D02*
G01*
X232649465Y-156479993D01*
X232681082Y-156587616D01*
X232731985Y-156686615D01*
X232800707Y-156774684D01*
X232885781Y-156849516D01*
X232982768Y-156907384D01*
X233089036Y-156947005D01*
X233196050Y-156965573D01*
X233301700Y-156964434D01*
X233403875Y-156944930D01*
X233500466Y-156908406D01*
X233589362Y-156856205D01*
X233668454Y-156789673D01*
X233735631Y-156710152D01*
X233788783Y-156618987D01*
X233825801Y-156517523D01*
X233844573Y-156407102D01*
X233846511Y-156357206D01*
X233846511Y-156269267D01*
X233898440Y-156269267D01*
X233934747Y-156272111D01*
X233961645Y-156283911D01*
X233988751Y-156307649D01*
X234027133Y-156346031D01*
X234027133Y-158537602D01*
X234027124Y-158799739D01*
X234027092Y-159040241D01*
X234027028Y-159260048D01*
X234026924Y-159460101D01*
X234026773Y-159641344D01*
X234026566Y-159804716D01*
X234026294Y-159951160D01*
X234025950Y-160081617D01*
X234025526Y-160197029D01*
X234025013Y-160298338D01*
X234024403Y-160386484D01*
X234023688Y-160462410D01*
X234022860Y-160527057D01*
X234021911Y-160581367D01*
X234020833Y-160626280D01*
X234019617Y-160662740D01*
X234018255Y-160691687D01*
X234016739Y-160714063D01*
X234015062Y-160730809D01*
X234013214Y-160742868D01*
X234011187Y-160751180D01*
X234008975Y-160756687D01*
X234007892Y-160758537D01*
X234003729Y-160765549D01*
X234000195Y-160771996D01*
X233996365Y-160777900D01*
X233991318Y-160783286D01*
X233984129Y-160788178D01*
X233973877Y-160792598D01*
X233959636Y-160796572D01*
X233940486Y-160800121D01*
X233915501Y-160803270D01*
X233883760Y-160806042D01*
X233844338Y-160808461D01*
X233796314Y-160810551D01*
X233738763Y-160812335D01*
X233670763Y-160813837D01*
X233591390Y-160815080D01*
X233499721Y-160816089D01*
X233394834Y-160816885D01*
X233275804Y-160817494D01*
X233141710Y-160817939D01*
X232991627Y-160818243D01*
X232824633Y-160818430D01*
X232639804Y-160818524D01*
X232436217Y-160818548D01*
X232212950Y-160818525D01*
X231969078Y-160818480D01*
X231703679Y-160818437D01*
X231665296Y-160818432D01*
X231398318Y-160818389D01*
X231152998Y-160818318D01*
X230928417Y-160818213D01*
X230723655Y-160818066D01*
X230537794Y-160817869D01*
X230369912Y-160817616D01*
X230219092Y-160817300D01*
X230084413Y-160816913D01*
X229964956Y-160816447D01*
X229859801Y-160815897D01*
X229768029Y-160815253D01*
X229688721Y-160814511D01*
X229620957Y-160813661D01*
X229563818Y-160812697D01*
X229516383Y-160811611D01*
X229477734Y-160810397D01*
X229446951Y-160809047D01*
X229423115Y-160807555D01*
X229405306Y-160805911D01*
X229392605Y-160804111D01*
X229384092Y-160802145D01*
X229379734Y-160800477D01*
X229371272Y-160796906D01*
X229363503Y-160794270D01*
X229356398Y-160791634D01*
X229349927Y-160788062D01*
X229344061Y-160782621D01*
X229338771Y-160774375D01*
X229334026Y-160762390D01*
X229329798Y-160745731D01*
X229326057Y-160723463D01*
X229322773Y-160694652D01*
X229319917Y-160658363D01*
X229317460Y-160613661D01*
X229315371Y-160559611D01*
X229313622Y-160495279D01*
X229312183Y-160419730D01*
X229311024Y-160332030D01*
X229310117Y-160231243D01*
X229309431Y-160116434D01*
X229308937Y-159986670D01*
X229308605Y-159841015D01*
X229308407Y-159678535D01*
X229308313Y-159498295D01*
X229308292Y-159299360D01*
X229308315Y-159080796D01*
X229308354Y-158841668D01*
X229308378Y-158581040D01*
X229308378Y-158538889D01*
X229308364Y-158275992D01*
X229308339Y-158034732D01*
X229308329Y-157814165D01*
X229308358Y-157613352D01*
X229308452Y-157431349D01*
X229308638Y-157267216D01*
X229308941Y-157120011D01*
X229309386Y-156988792D01*
X229309966Y-156878867D01*
X229612803Y-156878867D01*
X229652593Y-156936711D01*
X229663764Y-156952479D01*
X229673834Y-156966441D01*
X229682862Y-156979784D01*
X229690903Y-156993693D01*
X229698014Y-157009356D01*
X229704253Y-157027958D01*
X229709675Y-157050686D01*
X229714338Y-157078727D01*
X229718299Y-157113267D01*
X229721615Y-157155492D01*
X229724341Y-157206589D01*
X229726536Y-157267744D01*
X229728255Y-157340144D01*
X229729556Y-157424975D01*
X229730495Y-157523422D01*
X229731130Y-157636674D01*
X229731516Y-157765916D01*
X229731712Y-157912334D01*
X229731773Y-158077116D01*
X229731757Y-158261447D01*
X229731720Y-158466513D01*
X229731711Y-158589133D01*
X229731735Y-158806082D01*
X229731769Y-159001642D01*
X229731757Y-159176999D01*
X229731642Y-159333341D01*
X229731370Y-159471857D01*
X229730882Y-159593734D01*
X229730124Y-159700160D01*
X229729038Y-159792322D01*
X229727569Y-159871409D01*
X229725660Y-159938608D01*
X229723256Y-159995107D01*
X229720299Y-160042093D01*
X229716734Y-160080755D01*
X229712505Y-160112280D01*
X229707554Y-160137855D01*
X229701827Y-160158670D01*
X229695267Y-160175911D01*
X229687817Y-160190765D01*
X229679421Y-160204422D01*
X229670024Y-160218069D01*
X229659568Y-160232893D01*
X229653477Y-160241783D01*
X229614704Y-160299400D01*
X230146268Y-160299400D01*
X230269517Y-160299365D01*
X230372013Y-160299215D01*
X230455580Y-160298878D01*
X230522044Y-160298286D01*
X230573229Y-160297367D01*
X230610959Y-160296051D01*
X230637060Y-160294269D01*
X230653356Y-160291951D01*
X230661672Y-160289026D01*
X230663832Y-160285424D01*
X230661661Y-160281075D01*
X230660465Y-160279645D01*
X230635315Y-160242573D01*
X230609417Y-160189772D01*
X230585808Y-160127770D01*
X230577539Y-160101357D01*
X230572922Y-160083416D01*
X230569021Y-160062355D01*
X230565752Y-160036089D01*
X230563034Y-160002532D01*
X230560785Y-159959599D01*
X230558923Y-159905204D01*
X230557364Y-159837262D01*
X230556028Y-159753688D01*
X230554831Y-159652395D01*
X230553692Y-159531300D01*
X230553315Y-159486600D01*
X230552298Y-159361449D01*
X230551540Y-159257082D01*
X230551097Y-159171707D01*
X230551030Y-159103533D01*
X230551395Y-159050765D01*
X230552252Y-159011614D01*
X230553659Y-158984285D01*
X230555675Y-158966986D01*
X230558357Y-158957926D01*
X230561764Y-158955312D01*
X230565956Y-158957351D01*
X230570429Y-158961667D01*
X230580784Y-158974602D01*
X230602842Y-159003676D01*
X230635043Y-159046759D01*
X230675826Y-159101718D01*
X230723630Y-159166423D01*
X230776895Y-159238742D01*
X230834060Y-159316544D01*
X230893563Y-159397698D01*
X230953845Y-159480072D01*
X231013345Y-159561536D01*
X231070502Y-159639957D01*
X231123755Y-159713204D01*
X231171543Y-159779147D01*
X231212307Y-159835654D01*
X231244484Y-159880593D01*
X231266515Y-159911834D01*
X231271083Y-159918466D01*
X231294004Y-159955369D01*
X231320812Y-160003359D01*
X231346211Y-160052897D01*
X231349432Y-160059577D01*
X231371110Y-160107772D01*
X231383696Y-160145334D01*
X231389426Y-160181160D01*
X231390544Y-160223200D01*
X231389910Y-160299400D01*
X232544349Y-160299400D01*
X232453185Y-160205669D01*
X232406388Y-160155775D01*
X232356101Y-160099295D01*
X232310056Y-160045026D01*
X232289631Y-160019673D01*
X232259193Y-159980128D01*
X232219138Y-159926916D01*
X232170639Y-159861667D01*
X232114865Y-159786011D01*
X232052989Y-159701577D01*
X231986181Y-159609994D01*
X231915613Y-159512892D01*
X231842455Y-159411901D01*
X231767879Y-159308650D01*
X231693056Y-159204768D01*
X231619157Y-159101885D01*
X231547354Y-159001631D01*
X231478816Y-158905636D01*
X231414716Y-158815527D01*
X231356225Y-158732936D01*
X231304514Y-158659492D01*
X231260753Y-158596824D01*
X231226115Y-158546561D01*
X231201770Y-158510334D01*
X231188889Y-158489771D01*
X231187131Y-158485668D01*
X231195090Y-158474342D01*
X231215885Y-158447162D01*
X231248153Y-158405829D01*
X231290530Y-158352044D01*
X231341653Y-158287506D01*
X231400159Y-158213918D01*
X231464686Y-158132978D01*
X231533869Y-158046388D01*
X231606347Y-157955848D01*
X231680754Y-157863060D01*
X231740483Y-157788702D01*
X232751489Y-157788702D01*
X232757398Y-157801659D01*
X232771728Y-157823908D01*
X232772775Y-157825391D01*
X232791562Y-157855544D01*
X232811209Y-157892375D01*
X232815108Y-157900511D01*
X232818644Y-157908940D01*
X232821770Y-157919059D01*
X232824514Y-157932260D01*
X232826908Y-157949938D01*
X232828981Y-157973484D01*
X232830765Y-158004293D01*
X232832288Y-158043757D01*
X232833581Y-158093269D01*
X232834674Y-158154223D01*
X232835597Y-158228011D01*
X232836381Y-158316028D01*
X232837055Y-158419665D01*
X232837650Y-158540316D01*
X232838195Y-158679374D01*
X232838721Y-158838232D01*
X232839255Y-159017089D01*
X232839794Y-159202207D01*
X232840228Y-159366145D01*
X232840491Y-159510303D01*
X232840516Y-159636079D01*
X232840235Y-159744871D01*
X232839581Y-159838077D01*
X232838486Y-159917097D01*
X232836882Y-159983328D01*
X232834703Y-160038170D01*
X232831881Y-160083021D01*
X232828349Y-160119278D01*
X232824039Y-160148341D01*
X232818883Y-160171609D01*
X232812815Y-160190479D01*
X232805767Y-160206351D01*
X232797671Y-160220622D01*
X232788460Y-160234691D01*
X232779960Y-160247158D01*
X232762824Y-160273452D01*
X232752678Y-160291037D01*
X232751489Y-160294257D01*
X232762396Y-160295334D01*
X232793589Y-160296335D01*
X232842777Y-160297235D01*
X232907667Y-160298010D01*
X232985970Y-160298637D01*
X233075393Y-160299091D01*
X233173644Y-160299349D01*
X233242555Y-160299400D01*
X233347548Y-160299180D01*
X233444390Y-160298548D01*
X233530893Y-160297549D01*
X233604868Y-160296227D01*
X233664126Y-160294626D01*
X233706480Y-160292791D01*
X233729740Y-160290765D01*
X233733622Y-160289493D01*
X233725924Y-160274591D01*
X233717926Y-160266560D01*
X233704754Y-160249434D01*
X233687515Y-160219183D01*
X233675593Y-160194622D01*
X233648955Y-160135711D01*
X233645880Y-158958845D01*
X233642805Y-157781978D01*
X233197147Y-157781978D01*
X233099330Y-157782142D01*
X233008936Y-157782611D01*
X232928370Y-157783347D01*
X232860038Y-157784316D01*
X232806344Y-157785480D01*
X232769695Y-157786803D01*
X232752496Y-157788249D01*
X232751489Y-157788702D01*
X231740483Y-157788702D01*
X231755730Y-157769722D01*
X231829910Y-157677537D01*
X231901931Y-157588204D01*
X231970431Y-157503424D01*
X232034045Y-157424898D01*
X232091412Y-157354326D01*
X232141167Y-157293409D01*
X232181948Y-157243847D01*
X232199112Y-157223178D01*
X232285404Y-157122516D01*
X232362003Y-157039259D01*
X232430817Y-156971438D01*
X232493752Y-156917089D01*
X232503133Y-156909722D01*
X232542644Y-156879117D01*
X231410884Y-156878867D01*
X231416173Y-156926844D01*
X231412870Y-156984188D01*
X231391339Y-157052463D01*
X231351365Y-157132212D01*
X231306057Y-157204495D01*
X231289839Y-157227140D01*
X231261786Y-157264696D01*
X231223570Y-157315021D01*
X231176863Y-157375973D01*
X231123339Y-157445411D01*
X231064669Y-157521194D01*
X231002525Y-157601180D01*
X230938579Y-157683228D01*
X230874505Y-157765196D01*
X230811973Y-157844943D01*
X230752657Y-157920327D01*
X230698229Y-157989207D01*
X230650361Y-158049442D01*
X230610725Y-158098889D01*
X230580994Y-158135408D01*
X230562839Y-158156858D01*
X230559780Y-158160156D01*
X230556921Y-158152149D01*
X230554707Y-158121855D01*
X230553143Y-158069556D01*
X230552233Y-157995531D01*
X230551980Y-157900063D01*
X230552387Y-157783434D01*
X230553296Y-157663445D01*
X230554618Y-157531333D01*
X230556143Y-157419594D01*
X230558119Y-157326025D01*
X230560794Y-157248419D01*
X230564418Y-157184574D01*
X230569239Y-157132283D01*
X230575506Y-157089344D01*
X230583468Y-157053551D01*
X230593373Y-157022700D01*
X230605469Y-156994586D01*
X230620007Y-156967005D01*
X230634689Y-156941966D01*
X230672686Y-156878867D01*
X229612803Y-156878867D01*
X229309966Y-156878867D01*
X229309999Y-156872617D01*
X229310805Y-156770544D01*
X229311830Y-156681633D01*
X229313100Y-156604941D01*
X229314640Y-156539527D01*
X229316476Y-156484449D01*
X229318633Y-156438765D01*
X229321137Y-156401534D01*
X229324013Y-156371813D01*
X229327287Y-156348662D01*
X229330985Y-156331139D01*
X229335131Y-156318301D01*
X229339753Y-156309208D01*
X229344874Y-156302918D01*
X229350522Y-156298488D01*
X229356721Y-156294978D01*
X229363496Y-156291445D01*
X229369492Y-156287876D01*
X229374725Y-156285300D01*
X229382901Y-156282972D01*
X229395114Y-156280878D01*
X229412459Y-156279007D01*
X229436031Y-156277347D01*
X229466923Y-156275884D01*
X229506232Y-156274608D01*
X229555050Y-156273504D01*
X229614473Y-156272561D01*
X229685596Y-156271767D01*
X229769512Y-156271109D01*
X229867317Y-156270575D01*
X229980106Y-156270153D01*
X230108971Y-156269829D01*
X230255009Y-156269592D01*
X230419314Y-156269430D01*
X230602980Y-156269330D01*
X230807103Y-156269280D01*
X231018247Y-156269267D01*
X232638600Y-156269267D01*
X232638600Y-156366054D01*
X232638600Y-156366054D01*
G37*
X232638600Y-156366054D02*
X232649465Y-156479993D01*
X232681082Y-156587616D01*
X232731985Y-156686615D01*
X232800707Y-156774684D01*
X232885781Y-156849516D01*
X232982768Y-156907384D01*
X233089036Y-156947005D01*
X233196050Y-156965573D01*
X233301700Y-156964434D01*
X233403875Y-156944930D01*
X233500466Y-156908406D01*
X233589362Y-156856205D01*
X233668454Y-156789673D01*
X233735631Y-156710152D01*
X233788783Y-156618987D01*
X233825801Y-156517523D01*
X233844573Y-156407102D01*
X233846511Y-156357206D01*
X233846511Y-156269267D01*
X233898440Y-156269267D01*
X233934747Y-156272111D01*
X233961645Y-156283911D01*
X233988751Y-156307649D01*
X234027133Y-156346031D01*
X234027133Y-158537602D01*
X234027124Y-158799739D01*
X234027092Y-159040241D01*
X234027028Y-159260048D01*
X234026924Y-159460101D01*
X234026773Y-159641344D01*
X234026566Y-159804716D01*
X234026294Y-159951160D01*
X234025950Y-160081617D01*
X234025526Y-160197029D01*
X234025013Y-160298338D01*
X234024403Y-160386484D01*
X234023688Y-160462410D01*
X234022860Y-160527057D01*
X234021911Y-160581367D01*
X234020833Y-160626280D01*
X234019617Y-160662740D01*
X234018255Y-160691687D01*
X234016739Y-160714063D01*
X234015062Y-160730809D01*
X234013214Y-160742868D01*
X234011187Y-160751180D01*
X234008975Y-160756687D01*
X234007892Y-160758537D01*
X234003729Y-160765549D01*
X234000195Y-160771996D01*
X233996365Y-160777900D01*
X233991318Y-160783286D01*
X233984129Y-160788178D01*
X233973877Y-160792598D01*
X233959636Y-160796572D01*
X233940486Y-160800121D01*
X233915501Y-160803270D01*
X233883760Y-160806042D01*
X233844338Y-160808461D01*
X233796314Y-160810551D01*
X233738763Y-160812335D01*
X233670763Y-160813837D01*
X233591390Y-160815080D01*
X233499721Y-160816089D01*
X233394834Y-160816885D01*
X233275804Y-160817494D01*
X233141710Y-160817939D01*
X232991627Y-160818243D01*
X232824633Y-160818430D01*
X232639804Y-160818524D01*
X232436217Y-160818548D01*
X232212950Y-160818525D01*
X231969078Y-160818480D01*
X231703679Y-160818437D01*
X231665296Y-160818432D01*
X231398318Y-160818389D01*
X231152998Y-160818318D01*
X230928417Y-160818213D01*
X230723655Y-160818066D01*
X230537794Y-160817869D01*
X230369912Y-160817616D01*
X230219092Y-160817300D01*
X230084413Y-160816913D01*
X229964956Y-160816447D01*
X229859801Y-160815897D01*
X229768029Y-160815253D01*
X229688721Y-160814511D01*
X229620957Y-160813661D01*
X229563818Y-160812697D01*
X229516383Y-160811611D01*
X229477734Y-160810397D01*
X229446951Y-160809047D01*
X229423115Y-160807555D01*
X229405306Y-160805911D01*
X229392605Y-160804111D01*
X229384092Y-160802145D01*
X229379734Y-160800477D01*
X229371272Y-160796906D01*
X229363503Y-160794270D01*
X229356398Y-160791634D01*
X229349927Y-160788062D01*
X229344061Y-160782621D01*
X229338771Y-160774375D01*
X229334026Y-160762390D01*
X229329798Y-160745731D01*
X229326057Y-160723463D01*
X229322773Y-160694652D01*
X229319917Y-160658363D01*
X229317460Y-160613661D01*
X229315371Y-160559611D01*
X229313622Y-160495279D01*
X229312183Y-160419730D01*
X229311024Y-160332030D01*
X229310117Y-160231243D01*
X229309431Y-160116434D01*
X229308937Y-159986670D01*
X229308605Y-159841015D01*
X229308407Y-159678535D01*
X229308313Y-159498295D01*
X229308292Y-159299360D01*
X229308315Y-159080796D01*
X229308354Y-158841668D01*
X229308378Y-158581040D01*
X229308378Y-158538889D01*
X229308364Y-158275992D01*
X229308339Y-158034732D01*
X229308329Y-157814165D01*
X229308358Y-157613352D01*
X229308452Y-157431349D01*
X229308638Y-157267216D01*
X229308941Y-157120011D01*
X229309386Y-156988792D01*
X229309966Y-156878867D01*
X229612803Y-156878867D01*
X229652593Y-156936711D01*
X229663764Y-156952479D01*
X229673834Y-156966441D01*
X229682862Y-156979784D01*
X229690903Y-156993693D01*
X229698014Y-157009356D01*
X229704253Y-157027958D01*
X229709675Y-157050686D01*
X229714338Y-157078727D01*
X229718299Y-157113267D01*
X229721615Y-157155492D01*
X229724341Y-157206589D01*
X229726536Y-157267744D01*
X229728255Y-157340144D01*
X229729556Y-157424975D01*
X229730495Y-157523422D01*
X229731130Y-157636674D01*
X229731516Y-157765916D01*
X229731712Y-157912334D01*
X229731773Y-158077116D01*
X229731757Y-158261447D01*
X229731720Y-158466513D01*
X229731711Y-158589133D01*
X229731735Y-158806082D01*
X229731769Y-159001642D01*
X229731757Y-159176999D01*
X229731642Y-159333341D01*
X229731370Y-159471857D01*
X229730882Y-159593734D01*
X229730124Y-159700160D01*
X229729038Y-159792322D01*
X229727569Y-159871409D01*
X229725660Y-159938608D01*
X229723256Y-159995107D01*
X229720299Y-160042093D01*
X229716734Y-160080755D01*
X229712505Y-160112280D01*
X229707554Y-160137855D01*
X229701827Y-160158670D01*
X229695267Y-160175911D01*
X229687817Y-160190765D01*
X229679421Y-160204422D01*
X229670024Y-160218069D01*
X229659568Y-160232893D01*
X229653477Y-160241783D01*
X229614704Y-160299400D01*
X230146268Y-160299400D01*
X230269517Y-160299365D01*
X230372013Y-160299215D01*
X230455580Y-160298878D01*
X230522044Y-160298286D01*
X230573229Y-160297367D01*
X230610959Y-160296051D01*
X230637060Y-160294269D01*
X230653356Y-160291951D01*
X230661672Y-160289026D01*
X230663832Y-160285424D01*
X230661661Y-160281075D01*
X230660465Y-160279645D01*
X230635315Y-160242573D01*
X230609417Y-160189772D01*
X230585808Y-160127770D01*
X230577539Y-160101357D01*
X230572922Y-160083416D01*
X230569021Y-160062355D01*
X230565752Y-160036089D01*
X230563034Y-160002532D01*
X230560785Y-159959599D01*
X230558923Y-159905204D01*
X230557364Y-159837262D01*
X230556028Y-159753688D01*
X230554831Y-159652395D01*
X230553692Y-159531300D01*
X230553315Y-159486600D01*
X230552298Y-159361449D01*
X230551540Y-159257082D01*
X230551097Y-159171707D01*
X230551030Y-159103533D01*
X230551395Y-159050765D01*
X230552252Y-159011614D01*
X230553659Y-158984285D01*
X230555675Y-158966986D01*
X230558357Y-158957926D01*
X230561764Y-158955312D01*
X230565956Y-158957351D01*
X230570429Y-158961667D01*
X230580784Y-158974602D01*
X230602842Y-159003676D01*
X230635043Y-159046759D01*
X230675826Y-159101718D01*
X230723630Y-159166423D01*
X230776895Y-159238742D01*
X230834060Y-159316544D01*
X230893563Y-159397698D01*
X230953845Y-159480072D01*
X231013345Y-159561536D01*
X231070502Y-159639957D01*
X231123755Y-159713204D01*
X231171543Y-159779147D01*
X231212307Y-159835654D01*
X231244484Y-159880593D01*
X231266515Y-159911834D01*
X231271083Y-159918466D01*
X231294004Y-159955369D01*
X231320812Y-160003359D01*
X231346211Y-160052897D01*
X231349432Y-160059577D01*
X231371110Y-160107772D01*
X231383696Y-160145334D01*
X231389426Y-160181160D01*
X231390544Y-160223200D01*
X231389910Y-160299400D01*
X232544349Y-160299400D01*
X232453185Y-160205669D01*
X232406388Y-160155775D01*
X232356101Y-160099295D01*
X232310056Y-160045026D01*
X232289631Y-160019673D01*
X232259193Y-159980128D01*
X232219138Y-159926916D01*
X232170639Y-159861667D01*
X232114865Y-159786011D01*
X232052989Y-159701577D01*
X231986181Y-159609994D01*
X231915613Y-159512892D01*
X231842455Y-159411901D01*
X231767879Y-159308650D01*
X231693056Y-159204768D01*
X231619157Y-159101885D01*
X231547354Y-159001631D01*
X231478816Y-158905636D01*
X231414716Y-158815527D01*
X231356225Y-158732936D01*
X231304514Y-158659492D01*
X231260753Y-158596824D01*
X231226115Y-158546561D01*
X231201770Y-158510334D01*
X231188889Y-158489771D01*
X231187131Y-158485668D01*
X231195090Y-158474342D01*
X231215885Y-158447162D01*
X231248153Y-158405829D01*
X231290530Y-158352044D01*
X231341653Y-158287506D01*
X231400159Y-158213918D01*
X231464686Y-158132978D01*
X231533869Y-158046388D01*
X231606347Y-157955848D01*
X231680754Y-157863060D01*
X231740483Y-157788702D01*
X232751489Y-157788702D01*
X232757398Y-157801659D01*
X232771728Y-157823908D01*
X232772775Y-157825391D01*
X232791562Y-157855544D01*
X232811209Y-157892375D01*
X232815108Y-157900511D01*
X232818644Y-157908940D01*
X232821770Y-157919059D01*
X232824514Y-157932260D01*
X232826908Y-157949938D01*
X232828981Y-157973484D01*
X232830765Y-158004293D01*
X232832288Y-158043757D01*
X232833581Y-158093269D01*
X232834674Y-158154223D01*
X232835597Y-158228011D01*
X232836381Y-158316028D01*
X232837055Y-158419665D01*
X232837650Y-158540316D01*
X232838195Y-158679374D01*
X232838721Y-158838232D01*
X232839255Y-159017089D01*
X232839794Y-159202207D01*
X232840228Y-159366145D01*
X232840491Y-159510303D01*
X232840516Y-159636079D01*
X232840235Y-159744871D01*
X232839581Y-159838077D01*
X232838486Y-159917097D01*
X232836882Y-159983328D01*
X232834703Y-160038170D01*
X232831881Y-160083021D01*
X232828349Y-160119278D01*
X232824039Y-160148341D01*
X232818883Y-160171609D01*
X232812815Y-160190479D01*
X232805767Y-160206351D01*
X232797671Y-160220622D01*
X232788460Y-160234691D01*
X232779960Y-160247158D01*
X232762824Y-160273452D01*
X232752678Y-160291037D01*
X232751489Y-160294257D01*
X232762396Y-160295334D01*
X232793589Y-160296335D01*
X232842777Y-160297235D01*
X232907667Y-160298010D01*
X232985970Y-160298637D01*
X233075393Y-160299091D01*
X233173644Y-160299349D01*
X233242555Y-160299400D01*
X233347548Y-160299180D01*
X233444390Y-160298548D01*
X233530893Y-160297549D01*
X233604868Y-160296227D01*
X233664126Y-160294626D01*
X233706480Y-160292791D01*
X233729740Y-160290765D01*
X233733622Y-160289493D01*
X233725924Y-160274591D01*
X233717926Y-160266560D01*
X233704754Y-160249434D01*
X233687515Y-160219183D01*
X233675593Y-160194622D01*
X233648955Y-160135711D01*
X233645880Y-158958845D01*
X233642805Y-157781978D01*
X233197147Y-157781978D01*
X233099330Y-157782142D01*
X233008936Y-157782611D01*
X232928370Y-157783347D01*
X232860038Y-157784316D01*
X232806344Y-157785480D01*
X232769695Y-157786803D01*
X232752496Y-157788249D01*
X232751489Y-157788702D01*
X231740483Y-157788702D01*
X231755730Y-157769722D01*
X231829910Y-157677537D01*
X231901931Y-157588204D01*
X231970431Y-157503424D01*
X232034045Y-157424898D01*
X232091412Y-157354326D01*
X232141167Y-157293409D01*
X232181948Y-157243847D01*
X232199112Y-157223178D01*
X232285404Y-157122516D01*
X232362003Y-157039259D01*
X232430817Y-156971438D01*
X232493752Y-156917089D01*
X232503133Y-156909722D01*
X232542644Y-156879117D01*
X231410884Y-156878867D01*
X231416173Y-156926844D01*
X231412870Y-156984188D01*
X231391339Y-157052463D01*
X231351365Y-157132212D01*
X231306057Y-157204495D01*
X231289839Y-157227140D01*
X231261786Y-157264696D01*
X231223570Y-157315021D01*
X231176863Y-157375973D01*
X231123339Y-157445411D01*
X231064669Y-157521194D01*
X231002525Y-157601180D01*
X230938579Y-157683228D01*
X230874505Y-157765196D01*
X230811973Y-157844943D01*
X230752657Y-157920327D01*
X230698229Y-157989207D01*
X230650361Y-158049442D01*
X230610725Y-158098889D01*
X230580994Y-158135408D01*
X230562839Y-158156858D01*
X230559780Y-158160156D01*
X230556921Y-158152149D01*
X230554707Y-158121855D01*
X230553143Y-158069556D01*
X230552233Y-157995531D01*
X230551980Y-157900063D01*
X230552387Y-157783434D01*
X230553296Y-157663445D01*
X230554618Y-157531333D01*
X230556143Y-157419594D01*
X230558119Y-157326025D01*
X230560794Y-157248419D01*
X230564418Y-157184574D01*
X230569239Y-157132283D01*
X230575506Y-157089344D01*
X230583468Y-157053551D01*
X230593373Y-157022700D01*
X230605469Y-156994586D01*
X230620007Y-156967005D01*
X230634689Y-156941966D01*
X230672686Y-156878867D01*
X229612803Y-156878867D01*
X229309966Y-156878867D01*
X229309999Y-156872617D01*
X229310805Y-156770544D01*
X229311830Y-156681633D01*
X229313100Y-156604941D01*
X229314640Y-156539527D01*
X229316476Y-156484449D01*
X229318633Y-156438765D01*
X229321137Y-156401534D01*
X229324013Y-156371813D01*
X229327287Y-156348662D01*
X229330985Y-156331139D01*
X229335131Y-156318301D01*
X229339753Y-156309208D01*
X229344874Y-156302918D01*
X229350522Y-156298488D01*
X229356721Y-156294978D01*
X229363496Y-156291445D01*
X229369492Y-156287876D01*
X229374725Y-156285300D01*
X229382901Y-156282972D01*
X229395114Y-156280878D01*
X229412459Y-156279007D01*
X229436031Y-156277347D01*
X229466923Y-156275884D01*
X229506232Y-156274608D01*
X229555050Y-156273504D01*
X229614473Y-156272561D01*
X229685596Y-156271767D01*
X229769512Y-156271109D01*
X229867317Y-156270575D01*
X229980106Y-156270153D01*
X230108971Y-156269829D01*
X230255009Y-156269592D01*
X230419314Y-156269430D01*
X230602980Y-156269330D01*
X230807103Y-156269280D01*
X231018247Y-156269267D01*
X232638600Y-156269267D01*
X232638600Y-156366054D01*
G36*
X235913429Y-156826071D02*
G01*
X236073570Y-156847245D01*
X236237510Y-156887385D01*
X236407313Y-156946889D01*
X236585043Y-157026154D01*
X236596310Y-157031699D01*
X236654005Y-157059725D01*
X236705552Y-157083802D01*
X236747191Y-157102249D01*
X236775162Y-157113386D01*
X236784733Y-157115933D01*
X236803950Y-157120941D01*
X236808561Y-157125147D01*
X236803458Y-157135580D01*
X236787418Y-157161868D01*
X236762288Y-157201257D01*
X236729914Y-157250991D01*
X236692143Y-157308315D01*
X236650822Y-157370476D01*
X236607798Y-157434718D01*
X236564917Y-157498285D01*
X236524026Y-157558425D01*
X236486971Y-157612380D01*
X236455600Y-157657397D01*
X236431759Y-157690721D01*
X236417294Y-157709597D01*
X236415309Y-157711787D01*
X236405191Y-157707138D01*
X236382850Y-157689962D01*
X236352280Y-157663440D01*
X236336536Y-157648964D01*
X236240047Y-157573682D01*
X236133336Y-157518241D01*
X236017832Y-157483141D01*
X235894962Y-157468880D01*
X235825561Y-157470051D01*
X235704423Y-157487212D01*
X235595205Y-157523094D01*
X235497582Y-157577959D01*
X235411228Y-157652070D01*
X235335815Y-157745688D01*
X235271018Y-157859076D01*
X235233601Y-157945667D01*
X235189748Y-158081366D01*
X235157428Y-158228850D01*
X235136557Y-158384314D01*
X235127051Y-158543956D01*
X235128827Y-158703973D01*
X235141803Y-158860561D01*
X235165894Y-159009918D01*
X235201018Y-159148240D01*
X235247092Y-159271724D01*
X235263373Y-159305978D01*
X235331620Y-159420064D01*
X235412079Y-159516557D01*
X235503570Y-159594670D01*
X235604911Y-159653617D01*
X235714920Y-159692612D01*
X235832415Y-159710868D01*
X235873883Y-159712211D01*
X235995441Y-159701290D01*
X236115878Y-159668474D01*
X236233666Y-159614439D01*
X236347277Y-159539865D01*
X236438685Y-159461539D01*
X236485215Y-159417008D01*
X236666483Y-159714271D01*
X236711580Y-159788433D01*
X236752819Y-159856646D01*
X236788735Y-159916459D01*
X236817866Y-159965420D01*
X236838750Y-160001079D01*
X236849924Y-160020984D01*
X236851375Y-160024079D01*
X236843146Y-160033718D01*
X236817567Y-160050999D01*
X236777873Y-160074283D01*
X236727297Y-160101934D01*
X236669074Y-160132315D01*
X236606437Y-160163790D01*
X236542621Y-160194722D01*
X236480860Y-160223473D01*
X236424388Y-160248408D01*
X236376438Y-160267889D01*
X236352986Y-160276318D01*
X236219221Y-160314133D01*
X236081327Y-160339136D01*
X235933622Y-160352140D01*
X235806833Y-160354468D01*
X235738878Y-160353373D01*
X235673277Y-160351275D01*
X235615847Y-160348434D01*
X235572403Y-160345106D01*
X235558298Y-160343422D01*
X235419284Y-160314587D01*
X235277757Y-160269468D01*
X235140275Y-160210750D01*
X235013394Y-160141120D01*
X234935889Y-160088441D01*
X234808481Y-159980239D01*
X234690178Y-159853671D01*
X234583172Y-159711866D01*
X234489652Y-159557951D01*
X234411810Y-159395053D01*
X234367956Y-159277756D01*
X234317708Y-159094128D01*
X234284209Y-158899581D01*
X234267449Y-158698325D01*
X234267416Y-158494568D01*
X234284101Y-158292521D01*
X234317493Y-158096392D01*
X234367580Y-157910391D01*
X234371397Y-157898803D01*
X234434281Y-157736750D01*
X234511028Y-157588832D01*
X234604242Y-157450865D01*
X234716527Y-157318661D01*
X234760392Y-157273399D01*
X234896534Y-157149457D01*
X235036491Y-157046915D01*
X235182411Y-156964656D01*
X235336442Y-156901564D01*
X235500732Y-156856523D01*
X235596289Y-156839033D01*
X235755023Y-156823466D01*
X235913429Y-156826071D01*
X235913429Y-156826071D01*
G37*
X235913429Y-156826071D02*
X236073570Y-156847245D01*
X236237510Y-156887385D01*
X236407313Y-156946889D01*
X236585043Y-157026154D01*
X236596310Y-157031699D01*
X236654005Y-157059725D01*
X236705552Y-157083802D01*
X236747191Y-157102249D01*
X236775162Y-157113386D01*
X236784733Y-157115933D01*
X236803950Y-157120941D01*
X236808561Y-157125147D01*
X236803458Y-157135580D01*
X236787418Y-157161868D01*
X236762288Y-157201257D01*
X236729914Y-157250991D01*
X236692143Y-157308315D01*
X236650822Y-157370476D01*
X236607798Y-157434718D01*
X236564917Y-157498285D01*
X236524026Y-157558425D01*
X236486971Y-157612380D01*
X236455600Y-157657397D01*
X236431759Y-157690721D01*
X236417294Y-157709597D01*
X236415309Y-157711787D01*
X236405191Y-157707138D01*
X236382850Y-157689962D01*
X236352280Y-157663440D01*
X236336536Y-157648964D01*
X236240047Y-157573682D01*
X236133336Y-157518241D01*
X236017832Y-157483141D01*
X235894962Y-157468880D01*
X235825561Y-157470051D01*
X235704423Y-157487212D01*
X235595205Y-157523094D01*
X235497582Y-157577959D01*
X235411228Y-157652070D01*
X235335815Y-157745688D01*
X235271018Y-157859076D01*
X235233601Y-157945667D01*
X235189748Y-158081366D01*
X235157428Y-158228850D01*
X235136557Y-158384314D01*
X235127051Y-158543956D01*
X235128827Y-158703973D01*
X235141803Y-158860561D01*
X235165894Y-159009918D01*
X235201018Y-159148240D01*
X235247092Y-159271724D01*
X235263373Y-159305978D01*
X235331620Y-159420064D01*
X235412079Y-159516557D01*
X235503570Y-159594670D01*
X235604911Y-159653617D01*
X235714920Y-159692612D01*
X235832415Y-159710868D01*
X235873883Y-159712211D01*
X235995441Y-159701290D01*
X236115878Y-159668474D01*
X236233666Y-159614439D01*
X236347277Y-159539865D01*
X236438685Y-159461539D01*
X236485215Y-159417008D01*
X236666483Y-159714271D01*
X236711580Y-159788433D01*
X236752819Y-159856646D01*
X236788735Y-159916459D01*
X236817866Y-159965420D01*
X236838750Y-160001079D01*
X236849924Y-160020984D01*
X236851375Y-160024079D01*
X236843146Y-160033718D01*
X236817567Y-160050999D01*
X236777873Y-160074283D01*
X236727297Y-160101934D01*
X236669074Y-160132315D01*
X236606437Y-160163790D01*
X236542621Y-160194722D01*
X236480860Y-160223473D01*
X236424388Y-160248408D01*
X236376438Y-160267889D01*
X236352986Y-160276318D01*
X236219221Y-160314133D01*
X236081327Y-160339136D01*
X235933622Y-160352140D01*
X235806833Y-160354468D01*
X235738878Y-160353373D01*
X235673277Y-160351275D01*
X235615847Y-160348434D01*
X235572403Y-160345106D01*
X235558298Y-160343422D01*
X235419284Y-160314587D01*
X235277757Y-160269468D01*
X235140275Y-160210750D01*
X235013394Y-160141120D01*
X234935889Y-160088441D01*
X234808481Y-159980239D01*
X234690178Y-159853671D01*
X234583172Y-159711866D01*
X234489652Y-159557951D01*
X234411810Y-159395053D01*
X234367956Y-159277756D01*
X234317708Y-159094128D01*
X234284209Y-158899581D01*
X234267449Y-158698325D01*
X234267416Y-158494568D01*
X234284101Y-158292521D01*
X234317493Y-158096392D01*
X234367580Y-157910391D01*
X234371397Y-157898803D01*
X234434281Y-157736750D01*
X234511028Y-157588832D01*
X234604242Y-157450865D01*
X234716527Y-157318661D01*
X234760392Y-157273399D01*
X234896534Y-157149457D01*
X235036491Y-157046915D01*
X235182411Y-156964656D01*
X235336442Y-156901564D01*
X235500732Y-156856523D01*
X235596289Y-156839033D01*
X235755023Y-156823466D01*
X235913429Y-156826071D01*
G36*
X238258574Y-157743552D02*
G01*
X238410492Y-157763567D01*
X238545756Y-157797202D01*
X238665239Y-157844725D01*
X238769815Y-157906405D01*
X238847424Y-157969965D01*
X238916265Y-158044099D01*
X238970006Y-158123871D01*
X239012910Y-158216091D01*
X239028384Y-158259161D01*
X239041244Y-158298142D01*
X239052446Y-158334289D01*
X239062120Y-158369434D01*
X239070396Y-158405410D01*
X239077403Y-158444050D01*
X239083272Y-158487185D01*
X239088131Y-158536649D01*
X239092110Y-158594273D01*
X239095340Y-158661891D01*
X239097949Y-158741334D01*
X239100067Y-158834436D01*
X239101824Y-158943027D01*
X239103349Y-159068942D01*
X239104772Y-159214012D01*
X239106025Y-159356778D01*
X239107351Y-159512968D01*
X239108556Y-159648239D01*
X239109766Y-159764246D01*
X239111106Y-159862645D01*
X239112700Y-159945093D01*
X239114675Y-160013246D01*
X239117156Y-160068760D01*
X239120269Y-160113292D01*
X239124138Y-160148498D01*
X239128889Y-160176034D01*
X239134648Y-160197556D01*
X239141539Y-160214722D01*
X239149689Y-160229186D01*
X239159223Y-160242606D01*
X239170266Y-160256638D01*
X239174566Y-160262071D01*
X239190386Y-160284910D01*
X239197422Y-160300463D01*
X239197444Y-160300922D01*
X239186567Y-160303121D01*
X239155582Y-160305147D01*
X239106957Y-160306942D01*
X239043163Y-160308451D01*
X238966669Y-160309616D01*
X238879944Y-160310380D01*
X238785457Y-160310686D01*
X238774550Y-160310689D01*
X238351657Y-160310689D01*
X238348395Y-160214622D01*
X238345133Y-160118556D01*
X238283044Y-160169543D01*
X238185714Y-160237057D01*
X238075813Y-160291749D01*
X237989349Y-160321978D01*
X237920278Y-160336666D01*
X237836925Y-160346659D01*
X237747159Y-160351646D01*
X237658845Y-160351313D01*
X237579851Y-160345351D01*
X237543622Y-160339638D01*
X237403603Y-160301776D01*
X237277178Y-160246932D01*
X237165260Y-160175924D01*
X237068762Y-160089568D01*
X236988600Y-159988679D01*
X236925687Y-159874076D01*
X236881312Y-159747984D01*
X236868978Y-159691401D01*
X236861368Y-159629202D01*
X236857739Y-159554363D01*
X236857245Y-159520467D01*
X236857310Y-159517282D01*
X237617248Y-159517282D01*
X237626541Y-159592333D01*
X237654728Y-159656160D01*
X237703197Y-159711798D01*
X237708254Y-159716211D01*
X237756548Y-159751037D01*
X237808257Y-159773620D01*
X237868989Y-159785540D01*
X237944352Y-159788383D01*
X237962459Y-159787978D01*
X238016278Y-159785325D01*
X238056308Y-159779909D01*
X238091324Y-159769745D01*
X238130103Y-159752850D01*
X238140745Y-159747672D01*
X238201396Y-159711844D01*
X238248215Y-159669212D01*
X238260952Y-159653973D01*
X238305622Y-159597462D01*
X238305622Y-159401586D01*
X238305086Y-159322939D01*
X238303396Y-159264988D01*
X238300428Y-159225875D01*
X238296057Y-159203741D01*
X238291972Y-159197274D01*
X238276047Y-159194111D01*
X238242264Y-159191488D01*
X238195340Y-159189655D01*
X238139993Y-159188857D01*
X238131106Y-159188842D01*
X238010330Y-159194096D01*
X237907660Y-159210263D01*
X237821106Y-159237961D01*
X237748681Y-159277808D01*
X237693751Y-159324758D01*
X237649204Y-159382645D01*
X237624480Y-159445693D01*
X237617248Y-159517282D01*
X236857310Y-159517282D01*
X236859178Y-159426712D01*
X236867522Y-159347812D01*
X236883768Y-159276590D01*
X236909405Y-159205864D01*
X236933401Y-159153493D01*
X236992020Y-159058196D01*
X237070117Y-158970170D01*
X237165315Y-158891017D01*
X237275238Y-158822340D01*
X237397510Y-158765741D01*
X237529755Y-158722821D01*
X237594422Y-158707882D01*
X237730604Y-158685777D01*
X237879049Y-158671194D01*
X238030505Y-158664813D01*
X238157064Y-158666445D01*
X238318950Y-158673224D01*
X238311530Y-158614245D01*
X238292238Y-158515092D01*
X238261104Y-158434372D01*
X238217269Y-158371466D01*
X238159871Y-158325756D01*
X238088048Y-158296622D01*
X238000941Y-158283447D01*
X237897686Y-158285611D01*
X237859711Y-158289612D01*
X237718520Y-158314780D01*
X237581707Y-158355814D01*
X237487178Y-158393815D01*
X237442018Y-158413190D01*
X237403585Y-158428760D01*
X237377234Y-158438405D01*
X237369546Y-158440452D01*
X237359802Y-158431374D01*
X237343083Y-158402405D01*
X237319232Y-158353217D01*
X237288093Y-158283484D01*
X237249507Y-158192879D01*
X237242910Y-158177089D01*
X237212853Y-158104772D01*
X237185874Y-158039425D01*
X237163136Y-157983906D01*
X237145806Y-157941072D01*
X237135048Y-157913781D01*
X237131941Y-157904942D01*
X237141940Y-157900187D01*
X237168217Y-157894910D01*
X237196489Y-157891231D01*
X237226646Y-157886474D01*
X237274433Y-157877028D01*
X237335612Y-157863820D01*
X237405946Y-157847776D01*
X237481194Y-157829820D01*
X237509755Y-157822797D01*
X237614816Y-157797209D01*
X237702480Y-157777147D01*
X237777068Y-157761969D01*
X237842903Y-157751035D01*
X237904307Y-157743704D01*
X237965602Y-157739335D01*
X238031110Y-157737287D01*
X238089128Y-157736889D01*
X238258574Y-157743552D01*
X238258574Y-157743552D01*
G37*
X238258574Y-157743552D02*
X238410492Y-157763567D01*
X238545756Y-157797202D01*
X238665239Y-157844725D01*
X238769815Y-157906405D01*
X238847424Y-157969965D01*
X238916265Y-158044099D01*
X238970006Y-158123871D01*
X239012910Y-158216091D01*
X239028384Y-158259161D01*
X239041244Y-158298142D01*
X239052446Y-158334289D01*
X239062120Y-158369434D01*
X239070396Y-158405410D01*
X239077403Y-158444050D01*
X239083272Y-158487185D01*
X239088131Y-158536649D01*
X239092110Y-158594273D01*
X239095340Y-158661891D01*
X239097949Y-158741334D01*
X239100067Y-158834436D01*
X239101824Y-158943027D01*
X239103349Y-159068942D01*
X239104772Y-159214012D01*
X239106025Y-159356778D01*
X239107351Y-159512968D01*
X239108556Y-159648239D01*
X239109766Y-159764246D01*
X239111106Y-159862645D01*
X239112700Y-159945093D01*
X239114675Y-160013246D01*
X239117156Y-160068760D01*
X239120269Y-160113292D01*
X239124138Y-160148498D01*
X239128889Y-160176034D01*
X239134648Y-160197556D01*
X239141539Y-160214722D01*
X239149689Y-160229186D01*
X239159223Y-160242606D01*
X239170266Y-160256638D01*
X239174566Y-160262071D01*
X239190386Y-160284910D01*
X239197422Y-160300463D01*
X239197444Y-160300922D01*
X239186567Y-160303121D01*
X239155582Y-160305147D01*
X239106957Y-160306942D01*
X239043163Y-160308451D01*
X238966669Y-160309616D01*
X238879944Y-160310380D01*
X238785457Y-160310686D01*
X238774550Y-160310689D01*
X238351657Y-160310689D01*
X238348395Y-160214622D01*
X238345133Y-160118556D01*
X238283044Y-160169543D01*
X238185714Y-160237057D01*
X238075813Y-160291749D01*
X237989349Y-160321978D01*
X237920278Y-160336666D01*
X237836925Y-160346659D01*
X237747159Y-160351646D01*
X237658845Y-160351313D01*
X237579851Y-160345351D01*
X237543622Y-160339638D01*
X237403603Y-160301776D01*
X237277178Y-160246932D01*
X237165260Y-160175924D01*
X237068762Y-160089568D01*
X236988600Y-159988679D01*
X236925687Y-159874076D01*
X236881312Y-159747984D01*
X236868978Y-159691401D01*
X236861368Y-159629202D01*
X236857739Y-159554363D01*
X236857245Y-159520467D01*
X236857310Y-159517282D01*
X237617248Y-159517282D01*
X237626541Y-159592333D01*
X237654728Y-159656160D01*
X237703197Y-159711798D01*
X237708254Y-159716211D01*
X237756548Y-159751037D01*
X237808257Y-159773620D01*
X237868989Y-159785540D01*
X237944352Y-159788383D01*
X237962459Y-159787978D01*
X238016278Y-159785325D01*
X238056308Y-159779909D01*
X238091324Y-159769745D01*
X238130103Y-159752850D01*
X238140745Y-159747672D01*
X238201396Y-159711844D01*
X238248215Y-159669212D01*
X238260952Y-159653973D01*
X238305622Y-159597462D01*
X238305622Y-159401586D01*
X238305086Y-159322939D01*
X238303396Y-159264988D01*
X238300428Y-159225875D01*
X238296057Y-159203741D01*
X238291972Y-159197274D01*
X238276047Y-159194111D01*
X238242264Y-159191488D01*
X238195340Y-159189655D01*
X238139993Y-159188857D01*
X238131106Y-159188842D01*
X238010330Y-159194096D01*
X237907660Y-159210263D01*
X237821106Y-159237961D01*
X237748681Y-159277808D01*
X237693751Y-159324758D01*
X237649204Y-159382645D01*
X237624480Y-159445693D01*
X237617248Y-159517282D01*
X236857310Y-159517282D01*
X236859178Y-159426712D01*
X236867522Y-159347812D01*
X236883768Y-159276590D01*
X236909405Y-159205864D01*
X236933401Y-159153493D01*
X236992020Y-159058196D01*
X237070117Y-158970170D01*
X237165315Y-158891017D01*
X237275238Y-158822340D01*
X237397510Y-158765741D01*
X237529755Y-158722821D01*
X237594422Y-158707882D01*
X237730604Y-158685777D01*
X237879049Y-158671194D01*
X238030505Y-158664813D01*
X238157064Y-158666445D01*
X238318950Y-158673224D01*
X238311530Y-158614245D01*
X238292238Y-158515092D01*
X238261104Y-158434372D01*
X238217269Y-158371466D01*
X238159871Y-158325756D01*
X238088048Y-158296622D01*
X238000941Y-158283447D01*
X237897686Y-158285611D01*
X237859711Y-158289612D01*
X237718520Y-158314780D01*
X237581707Y-158355814D01*
X237487178Y-158393815D01*
X237442018Y-158413190D01*
X237403585Y-158428760D01*
X237377234Y-158438405D01*
X237369546Y-158440452D01*
X237359802Y-158431374D01*
X237343083Y-158402405D01*
X237319232Y-158353217D01*
X237288093Y-158283484D01*
X237249507Y-158192879D01*
X237242910Y-158177089D01*
X237212853Y-158104772D01*
X237185874Y-158039425D01*
X237163136Y-157983906D01*
X237145806Y-157941072D01*
X237135048Y-157913781D01*
X237131941Y-157904942D01*
X237141940Y-157900187D01*
X237168217Y-157894910D01*
X237196489Y-157891231D01*
X237226646Y-157886474D01*
X237274433Y-157877028D01*
X237335612Y-157863820D01*
X237405946Y-157847776D01*
X237481194Y-157829820D01*
X237509755Y-157822797D01*
X237614816Y-157797209D01*
X237702480Y-157777147D01*
X237777068Y-157761969D01*
X237842903Y-157751035D01*
X237904307Y-157743704D01*
X237965602Y-157739335D01*
X238031110Y-157737287D01*
X238089128Y-157736889D01*
X238258574Y-157743552D01*
G36*
X241771507Y-158349245D02*
G01*
X241771526Y-158583662D01*
X241771552Y-158796603D01*
X241771625Y-158989168D01*
X241771782Y-159162459D01*
X241772064Y-159317576D01*
X241772509Y-159455620D01*
X241773156Y-159577692D01*
X241774045Y-159684894D01*
X241775213Y-159778326D01*
X241776701Y-159859090D01*
X241778546Y-159928286D01*
X241780789Y-159987015D01*
X241783469Y-160036379D01*
X241786623Y-160077478D01*
X241790292Y-160111413D01*
X241794513Y-160139286D01*
X241799327Y-160162198D01*
X241804773Y-160181249D01*
X241810888Y-160197540D01*
X241817712Y-160212173D01*
X241825285Y-160226249D01*
X241833645Y-160240868D01*
X241838839Y-160249974D01*
X241873104Y-160310689D01*
X241014955Y-160310689D01*
X241014955Y-160214733D01*
X241014224Y-160171370D01*
X241012272Y-160138205D01*
X241009463Y-160120424D01*
X241008221Y-160118778D01*
X240996799Y-160125662D01*
X240974084Y-160143505D01*
X240951385Y-160162879D01*
X240896800Y-160203614D01*
X240827321Y-160244617D01*
X240750270Y-160282123D01*
X240672965Y-160312364D01*
X240642113Y-160322012D01*
X240573616Y-160336578D01*
X240490764Y-160346539D01*
X240401371Y-160351583D01*
X240313248Y-160351396D01*
X240234207Y-160345666D01*
X240196511Y-160339858D01*
X240058414Y-160301797D01*
X239931113Y-160244073D01*
X239815292Y-160167211D01*
X239711637Y-160071739D01*
X239620833Y-159958179D01*
X239554031Y-159847381D01*
X239499164Y-159730625D01*
X239457163Y-159611276D01*
X239427167Y-159485283D01*
X239408311Y-159348594D01*
X239399732Y-159197158D01*
X239399006Y-159119711D01*
X239401100Y-159062934D01*
X240230217Y-159062934D01*
X240230424Y-159156002D01*
X240233337Y-159243692D01*
X240239000Y-159320772D01*
X240247455Y-159382009D01*
X240250038Y-159394350D01*
X240281840Y-159501633D01*
X240323498Y-159588658D01*
X240375363Y-159655642D01*
X240437781Y-159702805D01*
X240511100Y-159730365D01*
X240595669Y-159738541D01*
X240691835Y-159727551D01*
X240755311Y-159711829D01*
X240804454Y-159693639D01*
X240858583Y-159667791D01*
X240899244Y-159644089D01*
X240969800Y-159597721D01*
X240969800Y-158447530D01*
X240902392Y-158403962D01*
X240823867Y-158363040D01*
X240739681Y-158336389D01*
X240654557Y-158324465D01*
X240573216Y-158327722D01*
X240500380Y-158346615D01*
X240468426Y-158362184D01*
X240410501Y-158405181D01*
X240361544Y-158461953D01*
X240320390Y-158534575D01*
X240285874Y-158625121D01*
X240256833Y-158735666D01*
X240255552Y-158741533D01*
X240245381Y-158803788D01*
X240237739Y-158881594D01*
X240232670Y-158969720D01*
X240230217Y-159062934D01*
X239401100Y-159062934D01*
X239406857Y-158906895D01*
X239428802Y-158711059D01*
X239464786Y-158532332D01*
X239514759Y-158370845D01*
X239578668Y-158226726D01*
X239656462Y-158100106D01*
X239748089Y-157991115D01*
X239853497Y-157899883D01*
X239898662Y-157868932D01*
X239999611Y-157812785D01*
X240102901Y-157773174D01*
X240212989Y-157749014D01*
X240334330Y-157739219D01*
X240426836Y-157740265D01*
X240556490Y-157751231D01*
X240669084Y-157773046D01*
X240767875Y-157806714D01*
X240856121Y-157853236D01*
X240904986Y-157887448D01*
X240934353Y-157909362D01*
X240956043Y-157924333D01*
X240964253Y-157928733D01*
X240965868Y-157917904D01*
X240967159Y-157887251D01*
X240968138Y-157839526D01*
X240968817Y-157777479D01*
X240969210Y-157703862D01*
X240969330Y-157621427D01*
X240969188Y-157532925D01*
X240968797Y-157441107D01*
X240968171Y-157348724D01*
X240967320Y-157258528D01*
X240966260Y-157173271D01*
X240965001Y-157095703D01*
X240963556Y-157028576D01*
X240961938Y-156974641D01*
X240960161Y-156936650D01*
X240959669Y-156929667D01*
X240952092Y-156859251D01*
X240940531Y-156804102D01*
X240922792Y-156756981D01*
X240896682Y-156710647D01*
X240890415Y-156701067D01*
X240865983Y-156664378D01*
X241771311Y-156664378D01*
X241771507Y-158349245D01*
X241771507Y-158349245D01*
G37*
X241771507Y-158349245D02*
X241771526Y-158583662D01*
X241771552Y-158796603D01*
X241771625Y-158989168D01*
X241771782Y-159162459D01*
X241772064Y-159317576D01*
X241772509Y-159455620D01*
X241773156Y-159577692D01*
X241774045Y-159684894D01*
X241775213Y-159778326D01*
X241776701Y-159859090D01*
X241778546Y-159928286D01*
X241780789Y-159987015D01*
X241783469Y-160036379D01*
X241786623Y-160077478D01*
X241790292Y-160111413D01*
X241794513Y-160139286D01*
X241799327Y-160162198D01*
X241804773Y-160181249D01*
X241810888Y-160197540D01*
X241817712Y-160212173D01*
X241825285Y-160226249D01*
X241833645Y-160240868D01*
X241838839Y-160249974D01*
X241873104Y-160310689D01*
X241014955Y-160310689D01*
X241014955Y-160214733D01*
X241014224Y-160171370D01*
X241012272Y-160138205D01*
X241009463Y-160120424D01*
X241008221Y-160118778D01*
X240996799Y-160125662D01*
X240974084Y-160143505D01*
X240951385Y-160162879D01*
X240896800Y-160203614D01*
X240827321Y-160244617D01*
X240750270Y-160282123D01*
X240672965Y-160312364D01*
X240642113Y-160322012D01*
X240573616Y-160336578D01*
X240490764Y-160346539D01*
X240401371Y-160351583D01*
X240313248Y-160351396D01*
X240234207Y-160345666D01*
X240196511Y-160339858D01*
X240058414Y-160301797D01*
X239931113Y-160244073D01*
X239815292Y-160167211D01*
X239711637Y-160071739D01*
X239620833Y-159958179D01*
X239554031Y-159847381D01*
X239499164Y-159730625D01*
X239457163Y-159611276D01*
X239427167Y-159485283D01*
X239408311Y-159348594D01*
X239399732Y-159197158D01*
X239399006Y-159119711D01*
X239401100Y-159062934D01*
X240230217Y-159062934D01*
X240230424Y-159156002D01*
X240233337Y-159243692D01*
X240239000Y-159320772D01*
X240247455Y-159382009D01*
X240250038Y-159394350D01*
X240281840Y-159501633D01*
X240323498Y-159588658D01*
X240375363Y-159655642D01*
X240437781Y-159702805D01*
X240511100Y-159730365D01*
X240595669Y-159738541D01*
X240691835Y-159727551D01*
X240755311Y-159711829D01*
X240804454Y-159693639D01*
X240858583Y-159667791D01*
X240899244Y-159644089D01*
X240969800Y-159597721D01*
X240969800Y-158447530D01*
X240902392Y-158403962D01*
X240823867Y-158363040D01*
X240739681Y-158336389D01*
X240654557Y-158324465D01*
X240573216Y-158327722D01*
X240500380Y-158346615D01*
X240468426Y-158362184D01*
X240410501Y-158405181D01*
X240361544Y-158461953D01*
X240320390Y-158534575D01*
X240285874Y-158625121D01*
X240256833Y-158735666D01*
X240255552Y-158741533D01*
X240245381Y-158803788D01*
X240237739Y-158881594D01*
X240232670Y-158969720D01*
X240230217Y-159062934D01*
X239401100Y-159062934D01*
X239406857Y-158906895D01*
X239428802Y-158711059D01*
X239464786Y-158532332D01*
X239514759Y-158370845D01*
X239578668Y-158226726D01*
X239656462Y-158100106D01*
X239748089Y-157991115D01*
X239853497Y-157899883D01*
X239898662Y-157868932D01*
X239999611Y-157812785D01*
X240102901Y-157773174D01*
X240212989Y-157749014D01*
X240334330Y-157739219D01*
X240426836Y-157740265D01*
X240556490Y-157751231D01*
X240669084Y-157773046D01*
X240767875Y-157806714D01*
X240856121Y-157853236D01*
X240904986Y-157887448D01*
X240934353Y-157909362D01*
X240956043Y-157924333D01*
X240964253Y-157928733D01*
X240965868Y-157917904D01*
X240967159Y-157887251D01*
X240968138Y-157839526D01*
X240968817Y-157777479D01*
X240969210Y-157703862D01*
X240969330Y-157621427D01*
X240969188Y-157532925D01*
X240968797Y-157441107D01*
X240968171Y-157348724D01*
X240967320Y-157258528D01*
X240966260Y-157173271D01*
X240965001Y-157095703D01*
X240963556Y-157028576D01*
X240961938Y-156974641D01*
X240960161Y-156936650D01*
X240959669Y-156929667D01*
X240952092Y-156859251D01*
X240940531Y-156804102D01*
X240922792Y-156756981D01*
X240896682Y-156710647D01*
X240890415Y-156701067D01*
X240865983Y-156664378D01*
X241771311Y-156664378D01*
X241771507Y-158349245D01*
G36*
X233311957Y-155903571D02*
G01*
X233408232Y-155927809D01*
X233494816Y-155970641D01*
X233569627Y-156030419D01*
X233630582Y-156105494D01*
X233675601Y-156194220D01*
X233701864Y-156290530D01*
X233707714Y-156387795D01*
X233692860Y-156481654D01*
X233659160Y-156569511D01*
X233608472Y-156648770D01*
X233542655Y-156716836D01*
X233463566Y-156771112D01*
X233373066Y-156809002D01*
X233321800Y-156821426D01*
X233277302Y-156828947D01*
X233243001Y-156831919D01*
X233210040Y-156830094D01*
X233169566Y-156823225D01*
X233136469Y-156816250D01*
X233043053Y-156784741D01*
X232959381Y-156733617D01*
X232887335Y-156664429D01*
X232828800Y-156578728D01*
X232814852Y-156551489D01*
X232798414Y-156515122D01*
X232788106Y-156484582D01*
X232782540Y-156452450D01*
X232780331Y-156411307D01*
X232780052Y-156365222D01*
X232784139Y-156280865D01*
X232797554Y-156211586D01*
X232822744Y-156150961D01*
X232862154Y-156092567D01*
X232900702Y-156048302D01*
X232972594Y-155982484D01*
X233047687Y-155937053D01*
X233130438Y-155909850D01*
X233208072Y-155899576D01*
X233311957Y-155903571D01*
X233311957Y-155903571D01*
G37*
X233311957Y-155903571D02*
X233408232Y-155927809D01*
X233494816Y-155970641D01*
X233569627Y-156030419D01*
X233630582Y-156105494D01*
X233675601Y-156194220D01*
X233701864Y-156290530D01*
X233707714Y-156387795D01*
X233692860Y-156481654D01*
X233659160Y-156569511D01*
X233608472Y-156648770D01*
X233542655Y-156716836D01*
X233463566Y-156771112D01*
X233373066Y-156809002D01*
X233321800Y-156821426D01*
X233277302Y-156828947D01*
X233243001Y-156831919D01*
X233210040Y-156830094D01*
X233169566Y-156823225D01*
X233136469Y-156816250D01*
X233043053Y-156784741D01*
X232959381Y-156733617D01*
X232887335Y-156664429D01*
X232828800Y-156578728D01*
X232814852Y-156551489D01*
X232798414Y-156515122D01*
X232788106Y-156484582D01*
X232782540Y-156452450D01*
X232780331Y-156411307D01*
X232780052Y-156365222D01*
X232784139Y-156280865D01*
X232797554Y-156211586D01*
X232822744Y-156150961D01*
X232862154Y-156092567D01*
X232900702Y-156048302D01*
X232972594Y-155982484D01*
X233047687Y-155937053D01*
X233130438Y-155909850D01*
X233208072Y-155899576D01*
X233311957Y-155903571D01*
D11*
X308674000Y-149069000D02*
X308674000Y-149069000D01*
X308804000Y-149069000D02*
X308674000Y-149069000D01*
X308804000Y-149069000D02*
X308804000Y-149069000D01*
X308674000Y-149069000D02*
X308804000Y-149069000D01*
X308674000Y-151609000D02*
X308674000Y-151609000D01*
X308804000Y-151609000D02*
X308674000Y-151609000D01*
X308804000Y-151609000D02*
X308804000Y-151609000D01*
X308674000Y-151609000D02*
X308804000Y-151609000D01*
X308804000Y-148779000D02*
X308804000Y-148379000D01*
X309924000Y-148779000D02*
X308804000Y-148779000D01*
X309924000Y-148379000D02*
X309924000Y-148779000D01*
X308804000Y-148379000D02*
X309924000Y-148379000D01*
X308804000Y-151899000D02*
X308804000Y-148779000D01*
X308804000Y-148779000D02*
X312664000Y-148779000D01*
X308804000Y-151899000D02*
X312664000Y-151899000D01*
X312664000Y-148779000D02*
G75*
G02X312664000Y-151899000I0J-1560000D01*
G01*
X153366000Y-149212000D02*
X153210000Y-149212000D01*
X155682000Y-149212000D02*
X155526000Y-149212000D01*
X153366163Y-151813130D02*
G75*
G02X153366000Y-149731039I1079837J1041130D01*
G01*
X155525837Y-151813130D02*
G75*
G03X155526000Y-149731039I-1079837J1041130D01*
G01*
X153367392Y-152444335D02*
G75*
G02X153210484Y-149212000I1078608J1672335D01*
G01*
X155524608Y-152444335D02*
G75*
G03X155681516Y-149212000I-1078608J1672335D01*
G01*
X297954000Y-152899000D02*
X296754000Y-152899000D01*
X296754000Y-151139000D02*
X297954000Y-151139000D01*
X297954000Y-149929000D02*
X296754000Y-149929000D01*
X296754000Y-148169000D02*
X297954000Y-148169000D01*
X149615000Y-151349000D02*
X149615000Y-150149000D01*
X151375000Y-150149000D02*
X151375000Y-151349000D01*
X163948000Y-150149000D02*
X163948000Y-151349000D01*
X162188000Y-151349000D02*
X162188000Y-150149000D01*
D14*
X186880500Y-141795500D02*
X186880500Y-159575500D01*
X186880500Y-159575500D02*
X217360500Y-159575500D01*
X217360500Y-159575500D02*
X217360500Y-154495500D01*
X217360500Y-154495500D02*
X219900500Y-154495500D01*
X219900500Y-154495500D02*
X219900500Y-146875500D01*
X219900500Y-146875500D02*
X217360500Y-146875500D01*
X217360500Y-146875500D02*
X217360500Y-141795500D01*
X217360500Y-141795500D02*
X186880500Y-141795500D01*
D13*
G36*
X105370208Y-148168991D02*
G01*
X105761779Y-148317995D01*
X106329115Y-148680049D01*
X106775885Y-149137778D01*
X107097854Y-149667661D01*
X107290788Y-150246173D01*
X107350452Y-150849792D01*
X107272612Y-151454995D01*
X107053034Y-152038258D01*
X106687482Y-152576059D01*
X106554124Y-152719596D01*
X106096666Y-153078921D01*
X105557749Y-153339890D01*
X104980806Y-153490758D01*
X104409270Y-153519779D01*
X103928333Y-153429684D01*
X103293789Y-153150872D01*
X103062913Y-152978555D01*
X103490889Y-152978555D01*
X103502511Y-153028890D01*
X103547333Y-153035000D01*
X103617023Y-153004022D01*
X103603778Y-152978555D01*
X103503298Y-152968422D01*
X103490889Y-152978555D01*
X103062913Y-152978555D01*
X102968381Y-152908000D01*
X103293333Y-152908000D01*
X103335667Y-152950333D01*
X103378000Y-152908000D01*
X103335667Y-152865667D01*
X103293333Y-152908000D01*
X102968381Y-152908000D01*
X102854941Y-152823333D01*
X103124000Y-152823333D01*
X103166333Y-152865667D01*
X103208667Y-152823333D01*
X103166333Y-152781000D01*
X103124000Y-152823333D01*
X102854941Y-152823333D01*
X102782115Y-152768979D01*
X102537441Y-152470555D01*
X103067555Y-152470555D01*
X103079178Y-152520890D01*
X103124000Y-152527000D01*
X103193690Y-152496022D01*
X103180444Y-152470555D01*
X103079965Y-152460422D01*
X103067555Y-152470555D01*
X102537441Y-152470555D01*
X102369870Y-152266173D01*
X102342289Y-152223063D01*
X102060781Y-151628417D01*
X101934267Y-151009409D01*
X101936852Y-150933826D01*
X102041369Y-150933826D01*
X102069467Y-151108833D01*
X102232912Y-151514203D01*
X102507747Y-151831119D01*
X102860996Y-152051252D01*
X103259685Y-152166275D01*
X103670841Y-152167860D01*
X104061488Y-152047679D01*
X104398653Y-151797404D01*
X104469571Y-151715000D01*
X104614500Y-151473737D01*
X104735723Y-151178435D01*
X104755346Y-151112073D01*
X104827667Y-150885664D01*
X104914398Y-150780106D01*
X105062471Y-150750067D01*
X105131227Y-150749000D01*
X105325026Y-150768375D01*
X105400050Y-150848644D01*
X105408140Y-150939500D01*
X105350901Y-151218230D01*
X105205376Y-151550646D01*
X105004113Y-151871801D01*
X104850618Y-152052020D01*
X104447128Y-152351492D01*
X103972052Y-152506039D01*
X103655886Y-152532951D01*
X103429023Y-152543472D01*
X103357252Y-152569054D01*
X103420333Y-152611667D01*
X103790817Y-152690883D01*
X104223986Y-152661439D01*
X104664537Y-152536136D01*
X105057163Y-152327772D01*
X105219427Y-152195288D01*
X105457724Y-151893259D01*
X105643044Y-151522883D01*
X105741214Y-151158196D01*
X105748667Y-151048706D01*
X105758506Y-150857571D01*
X105820401Y-150772090D01*
X105982917Y-150749766D01*
X106091170Y-150749000D01*
X106433673Y-150749000D01*
X106377818Y-151066500D01*
X106192140Y-151676040D01*
X105870965Y-152203708D01*
X105696674Y-152396198D01*
X105233192Y-152760818D01*
X104729409Y-152971126D01*
X104182333Y-153041580D01*
X103918232Y-153052229D01*
X103810372Y-153072405D01*
X103845772Y-153105529D01*
X103886000Y-153119667D01*
X104350710Y-153191434D01*
X104877024Y-153141525D01*
X105108446Y-153083141D01*
X105685849Y-152826253D01*
X106158198Y-152441374D01*
X106513316Y-151942103D01*
X106739023Y-151342041D01*
X106762669Y-151235833D01*
X106829589Y-150955453D01*
X106898834Y-150806588D01*
X106991060Y-150752417D01*
X107035747Y-150749000D01*
X107149474Y-150726702D01*
X107182064Y-150627964D01*
X107162443Y-150454981D01*
X107021577Y-150052455D01*
X106739426Y-149736032D01*
X106462769Y-149564897D01*
X106011349Y-149417800D01*
X105559218Y-149432582D01*
X105182134Y-149559163D01*
X104869425Y-149780682D01*
X104626809Y-150102285D01*
X104493056Y-150465576D01*
X104478667Y-150618627D01*
X104458171Y-150762015D01*
X104363735Y-150822152D01*
X104171185Y-150833667D01*
X103863704Y-150833667D01*
X103911012Y-150480961D01*
X104054453Y-150012204D01*
X104332973Y-149610179D01*
X104717579Y-149299734D01*
X105179276Y-149105718D01*
X105235815Y-149098000D01*
X106087333Y-149098000D01*
X106129667Y-149140333D01*
X106172000Y-149098000D01*
X106129667Y-149055667D01*
X106087333Y-149098000D01*
X105235815Y-149098000D01*
X105579333Y-149051108D01*
X105832562Y-149039924D01*
X105928632Y-149014825D01*
X105879382Y-148972614D01*
X105875667Y-148971000D01*
X105529533Y-148896287D01*
X105107830Y-148915967D01*
X104671723Y-149024544D01*
X104500691Y-149094535D01*
X104076361Y-149381269D01*
X103746667Y-149785612D01*
X103539392Y-150269594D01*
X103498925Y-150463662D01*
X103455632Y-150693006D01*
X103388019Y-150800358D01*
X103251939Y-150831897D01*
X103145212Y-150833667D01*
X102846983Y-150833667D01*
X102901167Y-150438355D01*
X103052003Y-149919908D01*
X103340801Y-149441450D01*
X103736501Y-149053284D01*
X103772406Y-149027241D01*
X104068379Y-148844000D01*
X106172000Y-148844000D01*
X106214333Y-148886333D01*
X106256667Y-148844000D01*
X106214333Y-148801667D01*
X106172000Y-148844000D01*
X104068379Y-148844000D01*
X104193753Y-148766380D01*
X104588425Y-148616354D01*
X104800724Y-148585197D01*
X105691188Y-148585197D01*
X105748667Y-148632333D01*
X105903015Y-148703977D01*
X105960333Y-148714407D01*
X105975478Y-148679469D01*
X105918000Y-148632333D01*
X105763651Y-148560689D01*
X105706333Y-148550259D01*
X105691188Y-148585197D01*
X104800724Y-148585197D01*
X105030024Y-148551545D01*
X105156000Y-148545668D01*
X105404220Y-148532674D01*
X105497998Y-148511585D01*
X105452193Y-148477563D01*
X105410000Y-148463000D01*
X104954816Y-148393960D01*
X104442274Y-148439978D01*
X103925892Y-148588123D01*
X103459187Y-148825465D01*
X103247454Y-148985470D01*
X102978861Y-149296606D01*
X102736749Y-149711062D01*
X102555037Y-150162990D01*
X102480769Y-150473833D01*
X102431697Y-150702848D01*
X102357337Y-150807764D01*
X102224713Y-150833638D01*
X102217452Y-150833667D01*
X102079836Y-150850336D01*
X102041369Y-150933826D01*
X101936852Y-150933826D01*
X101955457Y-150390035D01*
X102117063Y-149794289D01*
X102411794Y-149246168D01*
X102832364Y-148769665D01*
X103371483Y-148388777D01*
X103531624Y-148307688D01*
X104124021Y-148117825D01*
X104752620Y-148071666D01*
X105370208Y-148168991D01*
X105370208Y-148168991D01*
G37*
X105370208Y-148168991D02*
X105761779Y-148317995D01*
X106329115Y-148680049D01*
X106775885Y-149137778D01*
X107097854Y-149667661D01*
X107290788Y-150246173D01*
X107350452Y-150849792D01*
X107272612Y-151454995D01*
X107053034Y-152038258D01*
X106687482Y-152576059D01*
X106554124Y-152719596D01*
X106096666Y-153078921D01*
X105557749Y-153339890D01*
X104980806Y-153490758D01*
X104409270Y-153519779D01*
X103928333Y-153429684D01*
X103293789Y-153150872D01*
X103062913Y-152978555D01*
X103490889Y-152978555D01*
X103502511Y-153028890D01*
X103547333Y-153035000D01*
X103617023Y-153004022D01*
X103603778Y-152978555D01*
X103503298Y-152968422D01*
X103490889Y-152978555D01*
X103062913Y-152978555D01*
X102968381Y-152908000D01*
X103293333Y-152908000D01*
X103335667Y-152950333D01*
X103378000Y-152908000D01*
X103335667Y-152865667D01*
X103293333Y-152908000D01*
X102968381Y-152908000D01*
X102854941Y-152823333D01*
X103124000Y-152823333D01*
X103166333Y-152865667D01*
X103208667Y-152823333D01*
X103166333Y-152781000D01*
X103124000Y-152823333D01*
X102854941Y-152823333D01*
X102782115Y-152768979D01*
X102537441Y-152470555D01*
X103067555Y-152470555D01*
X103079178Y-152520890D01*
X103124000Y-152527000D01*
X103193690Y-152496022D01*
X103180444Y-152470555D01*
X103079965Y-152460422D01*
X103067555Y-152470555D01*
X102537441Y-152470555D01*
X102369870Y-152266173D01*
X102342289Y-152223063D01*
X102060781Y-151628417D01*
X101934267Y-151009409D01*
X101936852Y-150933826D01*
X102041369Y-150933826D01*
X102069467Y-151108833D01*
X102232912Y-151514203D01*
X102507747Y-151831119D01*
X102860996Y-152051252D01*
X103259685Y-152166275D01*
X103670841Y-152167860D01*
X104061488Y-152047679D01*
X104398653Y-151797404D01*
X104469571Y-151715000D01*
X104614500Y-151473737D01*
X104735723Y-151178435D01*
X104755346Y-151112073D01*
X104827667Y-150885664D01*
X104914398Y-150780106D01*
X105062471Y-150750067D01*
X105131227Y-150749000D01*
X105325026Y-150768375D01*
X105400050Y-150848644D01*
X105408140Y-150939500D01*
X105350901Y-151218230D01*
X105205376Y-151550646D01*
X105004113Y-151871801D01*
X104850618Y-152052020D01*
X104447128Y-152351492D01*
X103972052Y-152506039D01*
X103655886Y-152532951D01*
X103429023Y-152543472D01*
X103357252Y-152569054D01*
X103420333Y-152611667D01*
X103790817Y-152690883D01*
X104223986Y-152661439D01*
X104664537Y-152536136D01*
X105057163Y-152327772D01*
X105219427Y-152195288D01*
X105457724Y-151893259D01*
X105643044Y-151522883D01*
X105741214Y-151158196D01*
X105748667Y-151048706D01*
X105758506Y-150857571D01*
X105820401Y-150772090D01*
X105982917Y-150749766D01*
X106091170Y-150749000D01*
X106433673Y-150749000D01*
X106377818Y-151066500D01*
X106192140Y-151676040D01*
X105870965Y-152203708D01*
X105696674Y-152396198D01*
X105233192Y-152760818D01*
X104729409Y-152971126D01*
X104182333Y-153041580D01*
X103918232Y-153052229D01*
X103810372Y-153072405D01*
X103845772Y-153105529D01*
X103886000Y-153119667D01*
X104350710Y-153191434D01*
X104877024Y-153141525D01*
X105108446Y-153083141D01*
X105685849Y-152826253D01*
X106158198Y-152441374D01*
X106513316Y-151942103D01*
X106739023Y-151342041D01*
X106762669Y-151235833D01*
X106829589Y-150955453D01*
X106898834Y-150806588D01*
X106991060Y-150752417D01*
X107035747Y-150749000D01*
X107149474Y-150726702D01*
X107182064Y-150627964D01*
X107162443Y-150454981D01*
X107021577Y-150052455D01*
X106739426Y-149736032D01*
X106462769Y-149564897D01*
X106011349Y-149417800D01*
X105559218Y-149432582D01*
X105182134Y-149559163D01*
X104869425Y-149780682D01*
X104626809Y-150102285D01*
X104493056Y-150465576D01*
X104478667Y-150618627D01*
X104458171Y-150762015D01*
X104363735Y-150822152D01*
X104171185Y-150833667D01*
X103863704Y-150833667D01*
X103911012Y-150480961D01*
X104054453Y-150012204D01*
X104332973Y-149610179D01*
X104717579Y-149299734D01*
X105179276Y-149105718D01*
X105235815Y-149098000D01*
X106087333Y-149098000D01*
X106129667Y-149140333D01*
X106172000Y-149098000D01*
X106129667Y-149055667D01*
X106087333Y-149098000D01*
X105235815Y-149098000D01*
X105579333Y-149051108D01*
X105832562Y-149039924D01*
X105928632Y-149014825D01*
X105879382Y-148972614D01*
X105875667Y-148971000D01*
X105529533Y-148896287D01*
X105107830Y-148915967D01*
X104671723Y-149024544D01*
X104500691Y-149094535D01*
X104076361Y-149381269D01*
X103746667Y-149785612D01*
X103539392Y-150269594D01*
X103498925Y-150463662D01*
X103455632Y-150693006D01*
X103388019Y-150800358D01*
X103251939Y-150831897D01*
X103145212Y-150833667D01*
X102846983Y-150833667D01*
X102901167Y-150438355D01*
X103052003Y-149919908D01*
X103340801Y-149441450D01*
X103736501Y-149053284D01*
X103772406Y-149027241D01*
X104068379Y-148844000D01*
X106172000Y-148844000D01*
X106214333Y-148886333D01*
X106256667Y-148844000D01*
X106214333Y-148801667D01*
X106172000Y-148844000D01*
X104068379Y-148844000D01*
X104193753Y-148766380D01*
X104588425Y-148616354D01*
X104800724Y-148585197D01*
X105691188Y-148585197D01*
X105748667Y-148632333D01*
X105903015Y-148703977D01*
X105960333Y-148714407D01*
X105975478Y-148679469D01*
X105918000Y-148632333D01*
X105763651Y-148560689D01*
X105706333Y-148550259D01*
X105691188Y-148585197D01*
X104800724Y-148585197D01*
X105030024Y-148551545D01*
X105156000Y-148545668D01*
X105404220Y-148532674D01*
X105497998Y-148511585D01*
X105452193Y-148477563D01*
X105410000Y-148463000D01*
X104954816Y-148393960D01*
X104442274Y-148439978D01*
X103925892Y-148588123D01*
X103459187Y-148825465D01*
X103247454Y-148985470D01*
X102978861Y-149296606D01*
X102736749Y-149711062D01*
X102555037Y-150162990D01*
X102480769Y-150473833D01*
X102431697Y-150702848D01*
X102357337Y-150807764D01*
X102224713Y-150833638D01*
X102217452Y-150833667D01*
X102079836Y-150850336D01*
X102041369Y-150933826D01*
X101936852Y-150933826D01*
X101955457Y-150390035D01*
X102117063Y-149794289D01*
X102411794Y-149246168D01*
X102832364Y-148769665D01*
X103371483Y-148388777D01*
X103531624Y-148307688D01*
X104124021Y-148117825D01*
X104752620Y-148071666D01*
X105370208Y-148168991D01*
G36*
X130371821Y-149881167D02*
G01*
X130283517Y-150378686D01*
X130197953Y-150842673D01*
X130122091Y-151236671D01*
X130062894Y-151524225D01*
X130036331Y-151638000D01*
X129873920Y-151983647D01*
X129590050Y-152327924D01*
X129228014Y-152630350D01*
X128831109Y-152850442D01*
X128683290Y-152903139D01*
X128222257Y-152997377D01*
X127718354Y-153031410D01*
X127231498Y-153006061D01*
X126821600Y-152922155D01*
X126700164Y-152875855D01*
X126420838Y-152707889D01*
X126167969Y-152491614D01*
X126128664Y-152447885D01*
X126015606Y-152292454D01*
X125937166Y-152120825D01*
X125893456Y-151910334D01*
X125884590Y-151638316D01*
X125910679Y-151282107D01*
X125971838Y-150819041D01*
X126068178Y-150226454D01*
X126141819Y-149805476D01*
X126372877Y-148505333D01*
X127109772Y-148480870D01*
X127439062Y-148476662D01*
X127692430Y-148486221D01*
X127831532Y-148507524D01*
X127846667Y-148519793D01*
X127832673Y-148620046D01*
X127793857Y-148858835D01*
X127734966Y-149207964D01*
X127660746Y-149639237D01*
X127589582Y-150046893D01*
X127488370Y-150638540D01*
X127422830Y-151084477D01*
X127396366Y-151405223D01*
X127412383Y-151621298D01*
X127474286Y-151753222D01*
X127585478Y-151821515D01*
X127749365Y-151846696D01*
X127888681Y-151849667D01*
X128163081Y-151822991D01*
X128364786Y-151726456D01*
X128512857Y-151535294D01*
X128626353Y-151224742D01*
X128724336Y-150770034D01*
X128725776Y-150762040D01*
X128806269Y-150313972D01*
X128898671Y-149799158D01*
X128985046Y-149317534D01*
X128997836Y-149246167D01*
X129138181Y-148463000D01*
X130618533Y-148463000D01*
X130371821Y-149881167D01*
X130371821Y-149881167D01*
G37*
X130371821Y-149881167D02*
X130283517Y-150378686D01*
X130197953Y-150842673D01*
X130122091Y-151236671D01*
X130062894Y-151524225D01*
X130036331Y-151638000D01*
X129873920Y-151983647D01*
X129590050Y-152327924D01*
X129228014Y-152630350D01*
X128831109Y-152850442D01*
X128683290Y-152903139D01*
X128222257Y-152997377D01*
X127718354Y-153031410D01*
X127231498Y-153006061D01*
X126821600Y-152922155D01*
X126700164Y-152875855D01*
X126420838Y-152707889D01*
X126167969Y-152491614D01*
X126128664Y-152447885D01*
X126015606Y-152292454D01*
X125937166Y-152120825D01*
X125893456Y-151910334D01*
X125884590Y-151638316D01*
X125910679Y-151282107D01*
X125971838Y-150819041D01*
X126068178Y-150226454D01*
X126141819Y-149805476D01*
X126372877Y-148505333D01*
X127109772Y-148480870D01*
X127439062Y-148476662D01*
X127692430Y-148486221D01*
X127831532Y-148507524D01*
X127846667Y-148519793D01*
X127832673Y-148620046D01*
X127793857Y-148858835D01*
X127734966Y-149207964D01*
X127660746Y-149639237D01*
X127589582Y-150046893D01*
X127488370Y-150638540D01*
X127422830Y-151084477D01*
X127396366Y-151405223D01*
X127412383Y-151621298D01*
X127474286Y-151753222D01*
X127585478Y-151821515D01*
X127749365Y-151846696D01*
X127888681Y-151849667D01*
X128163081Y-151822991D01*
X128364786Y-151726456D01*
X128512857Y-151535294D01*
X128626353Y-151224742D01*
X128724336Y-150770034D01*
X128725776Y-150762040D01*
X128806269Y-150313972D01*
X128898671Y-149799158D01*
X128985046Y-149317534D01*
X128997836Y-149246167D01*
X129138181Y-148463000D01*
X130618533Y-148463000D01*
X130371821Y-149881167D01*
G36*
X133614061Y-148412971D02*
G01*
X134117518Y-148529046D01*
X134490206Y-148743222D01*
X134748430Y-149069681D01*
X134908498Y-149522603D01*
X134912863Y-149542500D01*
X134972121Y-149817667D01*
X134213269Y-149817667D01*
X133850007Y-149814447D01*
X133621610Y-149799809D01*
X133493656Y-149766287D01*
X133431723Y-149706412D01*
X133408777Y-149643144D01*
X133353493Y-149533713D01*
X133231754Y-149490447D01*
X132996736Y-149494977D01*
X132758671Y-149527251D01*
X132642599Y-149595717D01*
X132603892Y-149707149D01*
X132614096Y-149831618D01*
X132714953Y-149914446D01*
X132942558Y-149986986D01*
X133486424Y-150139832D01*
X133894719Y-150286976D01*
X134200076Y-150442256D01*
X134435127Y-150619512D01*
X134436040Y-150620348D01*
X134626304Y-150820977D01*
X134712584Y-151010371D01*
X134732452Y-151265195D01*
X134651249Y-151737370D01*
X134424651Y-152173436D01*
X134076483Y-152543438D01*
X133630573Y-152817422D01*
X133439772Y-152890349D01*
X132944471Y-152995213D01*
X132399848Y-153021897D01*
X131881292Y-152970192D01*
X131596808Y-152895474D01*
X131214662Y-152692465D01*
X130924498Y-152403455D01*
X130755879Y-152064017D01*
X130725333Y-151846720D01*
X130725333Y-151511000D01*
X131435125Y-151511000D01*
X131786124Y-151515109D01*
X132003095Y-151532544D01*
X132121251Y-151570966D01*
X132175801Y-151638034D01*
X132187735Y-151674735D01*
X132295340Y-151806607D01*
X132500054Y-151882253D01*
X132750629Y-151903180D01*
X132995817Y-151870892D01*
X133184371Y-151786897D01*
X133265043Y-151652698D01*
X133265333Y-151643074D01*
X133223295Y-151527900D01*
X133080863Y-151429380D01*
X132813566Y-151335106D01*
X132503333Y-151256694D01*
X131910656Y-151071786D01*
X131465619Y-150825722D01*
X131233009Y-150603195D01*
X131113387Y-150405451D01*
X131074673Y-150180295D01*
X131085330Y-149968404D01*
X131209657Y-149497315D01*
X131473461Y-149092802D01*
X131855583Y-148767881D01*
X132334861Y-148535569D01*
X132890133Y-148408883D01*
X133500238Y-148400838D01*
X133614061Y-148412971D01*
X133614061Y-148412971D01*
G37*
X133614061Y-148412971D02*
X134117518Y-148529046D01*
X134490206Y-148743222D01*
X134748430Y-149069681D01*
X134908498Y-149522603D01*
X134912863Y-149542500D01*
X134972121Y-149817667D01*
X134213269Y-149817667D01*
X133850007Y-149814447D01*
X133621610Y-149799809D01*
X133493656Y-149766287D01*
X133431723Y-149706412D01*
X133408777Y-149643144D01*
X133353493Y-149533713D01*
X133231754Y-149490447D01*
X132996736Y-149494977D01*
X132758671Y-149527251D01*
X132642599Y-149595717D01*
X132603892Y-149707149D01*
X132614096Y-149831618D01*
X132714953Y-149914446D01*
X132942558Y-149986986D01*
X133486424Y-150139832D01*
X133894719Y-150286976D01*
X134200076Y-150442256D01*
X134435127Y-150619512D01*
X134436040Y-150620348D01*
X134626304Y-150820977D01*
X134712584Y-151010371D01*
X134732452Y-151265195D01*
X134651249Y-151737370D01*
X134424651Y-152173436D01*
X134076483Y-152543438D01*
X133630573Y-152817422D01*
X133439772Y-152890349D01*
X132944471Y-152995213D01*
X132399848Y-153021897D01*
X131881292Y-152970192D01*
X131596808Y-152895474D01*
X131214662Y-152692465D01*
X130924498Y-152403455D01*
X130755879Y-152064017D01*
X130725333Y-151846720D01*
X130725333Y-151511000D01*
X131435125Y-151511000D01*
X131786124Y-151515109D01*
X132003095Y-151532544D01*
X132121251Y-151570966D01*
X132175801Y-151638034D01*
X132187735Y-151674735D01*
X132295340Y-151806607D01*
X132500054Y-151882253D01*
X132750629Y-151903180D01*
X132995817Y-151870892D01*
X133184371Y-151786897D01*
X133265043Y-151652698D01*
X133265333Y-151643074D01*
X133223295Y-151527900D01*
X133080863Y-151429380D01*
X132813566Y-151335106D01*
X132503333Y-151256694D01*
X131910656Y-151071786D01*
X131465619Y-150825722D01*
X131233009Y-150603195D01*
X131113387Y-150405451D01*
X131074673Y-150180295D01*
X131085330Y-149968404D01*
X131209657Y-149497315D01*
X131473461Y-149092802D01*
X131855583Y-148767881D01*
X132334861Y-148535569D01*
X132890133Y-148408883D01*
X133500238Y-148400838D01*
X133614061Y-148412971D01*
G36*
X112429449Y-148907500D02*
G01*
X112502855Y-149284790D01*
X112588513Y-149740780D01*
X112681401Y-150246962D01*
X112776496Y-150774825D01*
X112868776Y-151295860D01*
X112953217Y-151781556D01*
X113024796Y-152203403D01*
X113078491Y-152532892D01*
X113109279Y-152741513D01*
X113114667Y-152796805D01*
X113096853Y-152872005D01*
X113021673Y-152917899D01*
X112856515Y-152941482D01*
X112568770Y-152949747D01*
X112398836Y-152950333D01*
X111683006Y-152950333D01*
X111627414Y-152654000D01*
X111571821Y-152357667D01*
X110238272Y-152357667D01*
X109990640Y-152950333D01*
X109266653Y-152950333D01*
X108940359Y-152944213D01*
X108690444Y-152927874D01*
X108555661Y-152904349D01*
X108542667Y-152893665D01*
X108580997Y-152807306D01*
X108689375Y-152590792D01*
X108857880Y-152263232D01*
X109076591Y-151843732D01*
X109335587Y-151351400D01*
X109357340Y-151310349D01*
X110744000Y-151310349D01*
X110819827Y-151328897D01*
X111012003Y-151340130D01*
X111131727Y-151341667D01*
X111367198Y-151335654D01*
X111473651Y-151299444D01*
X111491375Y-151205774D01*
X111475841Y-151108833D01*
X111437941Y-150883425D01*
X111392856Y-150584445D01*
X111374334Y-150452667D01*
X111316441Y-150029333D01*
X111030220Y-150654182D01*
X110897607Y-150947279D01*
X110797609Y-151175121D01*
X110747027Y-151299194D01*
X110744000Y-151310349D01*
X109357340Y-151310349D01*
X109624948Y-150805344D01*
X109706833Y-150651480D01*
X110871000Y-148465962D01*
X111605830Y-148464481D01*
X112340661Y-148463000D01*
X112429449Y-148907500D01*
X112429449Y-148907500D01*
G37*
X112429449Y-148907500D02*
X112502855Y-149284790D01*
X112588513Y-149740780D01*
X112681401Y-150246962D01*
X112776496Y-150774825D01*
X112868776Y-151295860D01*
X112953217Y-151781556D01*
X113024796Y-152203403D01*
X113078491Y-152532892D01*
X113109279Y-152741513D01*
X113114667Y-152796805D01*
X113096853Y-152872005D01*
X113021673Y-152917899D01*
X112856515Y-152941482D01*
X112568770Y-152949747D01*
X112398836Y-152950333D01*
X111683006Y-152950333D01*
X111627414Y-152654000D01*
X111571821Y-152357667D01*
X110238272Y-152357667D01*
X109990640Y-152950333D01*
X109266653Y-152950333D01*
X108940359Y-152944213D01*
X108690444Y-152927874D01*
X108555661Y-152904349D01*
X108542667Y-152893665D01*
X108580997Y-152807306D01*
X108689375Y-152590792D01*
X108857880Y-152263232D01*
X109076591Y-151843732D01*
X109335587Y-151351400D01*
X109357340Y-151310349D01*
X110744000Y-151310349D01*
X110819827Y-151328897D01*
X111012003Y-151340130D01*
X111131727Y-151341667D01*
X111367198Y-151335654D01*
X111473651Y-151299444D01*
X111491375Y-151205774D01*
X111475841Y-151108833D01*
X111437941Y-150883425D01*
X111392856Y-150584445D01*
X111374334Y-150452667D01*
X111316441Y-150029333D01*
X111030220Y-150654182D01*
X110897607Y-150947279D01*
X110797609Y-151175121D01*
X110747027Y-151299194D01*
X110744000Y-151310349D01*
X109357340Y-151310349D01*
X109624948Y-150805344D01*
X109706833Y-150651480D01*
X110871000Y-148465962D01*
X111605830Y-148464481D01*
X112340661Y-148463000D01*
X112429449Y-148907500D01*
G36*
X115958089Y-148695833D02*
G01*
X115925608Y-148864794D01*
X115871951Y-149159180D01*
X115801956Y-149551116D01*
X115720464Y-150012727D01*
X115632315Y-150516136D01*
X115542349Y-151033468D01*
X115455406Y-151536846D01*
X115376326Y-151998396D01*
X115309948Y-152390241D01*
X115261112Y-152684505D01*
X115234659Y-152853313D01*
X115231333Y-152881610D01*
X115152979Y-152911874D01*
X114943098Y-152935337D01*
X114639464Y-152948595D01*
X114469333Y-152950333D01*
X114133760Y-152944819D01*
X113873589Y-152930048D01*
X113726598Y-152908680D01*
X113707333Y-152896711D01*
X113721224Y-152802187D01*
X113759700Y-152568572D01*
X113817962Y-152223539D01*
X113891214Y-151794760D01*
X113974659Y-151309910D01*
X114063498Y-150796660D01*
X114152935Y-150282685D01*
X114238173Y-149795658D01*
X114314414Y-149363252D01*
X114376861Y-149013140D01*
X114420717Y-148772995D01*
X114435576Y-148695833D01*
X114482788Y-148463000D01*
X116006788Y-148463000D01*
X115958089Y-148695833D01*
X115958089Y-148695833D01*
G37*
X115958089Y-148695833D02*
X115925608Y-148864794D01*
X115871951Y-149159180D01*
X115801956Y-149551116D01*
X115720464Y-150012727D01*
X115632315Y-150516136D01*
X115542349Y-151033468D01*
X115455406Y-151536846D01*
X115376326Y-151998396D01*
X115309948Y-152390241D01*
X115261112Y-152684505D01*
X115234659Y-152853313D01*
X115231333Y-152881610D01*
X115152979Y-152911874D01*
X114943098Y-152935337D01*
X114639464Y-152948595D01*
X114469333Y-152950333D01*
X114133760Y-152944819D01*
X113873589Y-152930048D01*
X113726598Y-152908680D01*
X113707333Y-152896711D01*
X113721224Y-152802187D01*
X113759700Y-152568572D01*
X113817962Y-152223539D01*
X113891214Y-151794760D01*
X113974659Y-151309910D01*
X114063498Y-150796660D01*
X114152935Y-150282685D01*
X114238173Y-149795658D01*
X114314414Y-149363252D01*
X114376861Y-149013140D01*
X114420717Y-148772995D01*
X114435576Y-148695833D01*
X114482788Y-148463000D01*
X116006788Y-148463000D01*
X115958089Y-148695833D01*
G36*
X118188147Y-148466405D02*
G01*
X118622394Y-148475899D01*
X119029572Y-148493749D01*
X119376983Y-148519940D01*
X119584836Y-148546051D01*
X120053202Y-148683924D01*
X120387086Y-148915641D01*
X120579646Y-149230361D01*
X120624040Y-149617245D01*
X120525019Y-150035830D01*
X120373037Y-150322212D01*
X120169164Y-150577120D01*
X120101898Y-150637783D01*
X119823975Y-150859544D01*
X120040605Y-151045882D01*
X120163028Y-151170184D01*
X120223320Y-151308363D01*
X120237216Y-151517936D01*
X120228141Y-151731443D01*
X120212059Y-152082434D01*
X120202994Y-152429719D01*
X120202205Y-152590500D01*
X120205365Y-152950333D01*
X118679310Y-152950333D01*
X118737525Y-152307907D01*
X118762039Y-151914271D01*
X118737219Y-151658282D01*
X118643865Y-151510957D01*
X118462781Y-151443315D01*
X118174769Y-151426370D01*
X118153582Y-151426333D01*
X117709899Y-151426333D01*
X117604926Y-152077053D01*
X117549438Y-152402183D01*
X117498435Y-152668525D01*
X117461582Y-152826202D01*
X117457252Y-152839053D01*
X117374235Y-152899131D01*
X117168055Y-152935031D01*
X116818824Y-152949655D01*
X116694763Y-152950333D01*
X116346846Y-152948335D01*
X116136980Y-152936443D01*
X116033884Y-152905811D01*
X116006278Y-152847591D01*
X116021203Y-152759833D01*
X116050182Y-152617567D01*
X116101288Y-152343711D01*
X116169631Y-151966353D01*
X116250317Y-151513582D01*
X116338454Y-151013485D01*
X116429151Y-150494150D01*
X116476635Y-150219833D01*
X117941823Y-150219833D01*
X117961693Y-150340314D01*
X118053563Y-150395407D01*
X118262884Y-150409094D01*
X118300500Y-150409085D01*
X118583678Y-150382719D01*
X118830640Y-150319028D01*
X118872000Y-150300751D01*
X119040089Y-150153163D01*
X119083667Y-149942166D01*
X119076158Y-149803670D01*
X119027332Y-149726135D01*
X118897735Y-149688519D01*
X118647915Y-149669783D01*
X118565357Y-149665742D01*
X118246305Y-149665777D01*
X118059428Y-149724684D01*
X117969886Y-149873423D01*
X117942837Y-150142956D01*
X117941823Y-150219833D01*
X116476635Y-150219833D01*
X116517516Y-149983666D01*
X116598656Y-149510119D01*
X116667679Y-149101599D01*
X116719693Y-148786193D01*
X116749807Y-148591989D01*
X116755333Y-148544787D01*
X116834445Y-148512282D01*
X117049980Y-148488206D01*
X117369242Y-148472544D01*
X117759530Y-148465282D01*
X118188147Y-148466405D01*
X118188147Y-148466405D01*
G37*
X118188147Y-148466405D02*
X118622394Y-148475899D01*
X119029572Y-148493749D01*
X119376983Y-148519940D01*
X119584836Y-148546051D01*
X120053202Y-148683924D01*
X120387086Y-148915641D01*
X120579646Y-149230361D01*
X120624040Y-149617245D01*
X120525019Y-150035830D01*
X120373037Y-150322212D01*
X120169164Y-150577120D01*
X120101898Y-150637783D01*
X119823975Y-150859544D01*
X120040605Y-151045882D01*
X120163028Y-151170184D01*
X120223320Y-151308363D01*
X120237216Y-151517936D01*
X120228141Y-151731443D01*
X120212059Y-152082434D01*
X120202994Y-152429719D01*
X120202205Y-152590500D01*
X120205365Y-152950333D01*
X118679310Y-152950333D01*
X118737525Y-152307907D01*
X118762039Y-151914271D01*
X118737219Y-151658282D01*
X118643865Y-151510957D01*
X118462781Y-151443315D01*
X118174769Y-151426370D01*
X118153582Y-151426333D01*
X117709899Y-151426333D01*
X117604926Y-152077053D01*
X117549438Y-152402183D01*
X117498435Y-152668525D01*
X117461582Y-152826202D01*
X117457252Y-152839053D01*
X117374235Y-152899131D01*
X117168055Y-152935031D01*
X116818824Y-152949655D01*
X116694763Y-152950333D01*
X116346846Y-152948335D01*
X116136980Y-152936443D01*
X116033884Y-152905811D01*
X116006278Y-152847591D01*
X116021203Y-152759833D01*
X116050182Y-152617567D01*
X116101288Y-152343711D01*
X116169631Y-151966353D01*
X116250317Y-151513582D01*
X116338454Y-151013485D01*
X116429151Y-150494150D01*
X116476635Y-150219833D01*
X117941823Y-150219833D01*
X117961693Y-150340314D01*
X118053563Y-150395407D01*
X118262884Y-150409094D01*
X118300500Y-150409085D01*
X118583678Y-150382719D01*
X118830640Y-150319028D01*
X118872000Y-150300751D01*
X119040089Y-150153163D01*
X119083667Y-149942166D01*
X119076158Y-149803670D01*
X119027332Y-149726135D01*
X118897735Y-149688519D01*
X118647915Y-149669783D01*
X118565357Y-149665742D01*
X118246305Y-149665777D01*
X118059428Y-149724684D01*
X117969886Y-149873423D01*
X117942837Y-150142956D01*
X117941823Y-150219833D01*
X116476635Y-150219833D01*
X116517516Y-149983666D01*
X116598656Y-149510119D01*
X116667679Y-149101599D01*
X116719693Y-148786193D01*
X116749807Y-148591989D01*
X116755333Y-148544787D01*
X116834445Y-148512282D01*
X117049980Y-148488206D01*
X117369242Y-148472544D01*
X117759530Y-148465282D01*
X118188147Y-148466405D01*
G36*
X122836169Y-148465020D02*
G01*
X123469643Y-148472830D01*
X123960284Y-148496526D01*
X124334164Y-148539980D01*
X124617357Y-148607068D01*
X124835936Y-148701663D01*
X124956109Y-148780031D01*
X125189741Y-149049423D01*
X125287281Y-149383004D01*
X125249358Y-149745057D01*
X125076603Y-150099867D01*
X124929806Y-150273549D01*
X124645753Y-150557602D01*
X124870377Y-150782225D01*
X125018991Y-150971587D01*
X125084152Y-151192519D01*
X125095000Y-151413274D01*
X125014928Y-151876572D01*
X124783762Y-152280053D01*
X124415074Y-152603376D01*
X124232753Y-152705403D01*
X124070803Y-152778098D01*
X123906747Y-152831783D01*
X123710238Y-152870130D01*
X123450931Y-152896816D01*
X123098479Y-152915514D01*
X122622536Y-152929901D01*
X122322167Y-152936768D01*
X121729844Y-152945823D01*
X121295123Y-152943530D01*
X121006619Y-152929419D01*
X120852950Y-152903018D01*
X120819333Y-152874626D01*
X120833405Y-152765878D01*
X120872314Y-152519144D01*
X120931099Y-152163132D01*
X120980688Y-151869375D01*
X122428292Y-151869375D01*
X122984275Y-151833972D01*
X123352039Y-151790773D01*
X123570199Y-151719049D01*
X123617833Y-151675951D01*
X123683548Y-151490240D01*
X123696703Y-151372708D01*
X123648068Y-151228381D01*
X123486059Y-151138571D01*
X123190273Y-151095475D01*
X122954509Y-151088823D01*
X122735870Y-151097097D01*
X122609946Y-151150045D01*
X122538710Y-151287194D01*
X122484135Y-151548076D01*
X122477806Y-151584354D01*
X122428292Y-151869375D01*
X120980688Y-151869375D01*
X121004800Y-151726545D01*
X121088458Y-151238092D01*
X121177112Y-150726477D01*
X121265801Y-150220406D01*
X121301371Y-150020049D01*
X122764811Y-150020049D01*
X122796739Y-150168115D01*
X122942628Y-150229853D01*
X123176878Y-150241000D01*
X123480453Y-150216049D01*
X123676877Y-150129673D01*
X123744818Y-150066710D01*
X123852218Y-149875748D01*
X123800322Y-149725889D01*
X123595740Y-149624319D01*
X123298046Y-149580788D01*
X123042006Y-149573980D01*
X122905581Y-149604451D01*
X122840247Y-149689428D01*
X122821089Y-149750121D01*
X122764811Y-150020049D01*
X121301371Y-150020049D01*
X121349566Y-149748585D01*
X121423445Y-149339720D01*
X121482480Y-149022517D01*
X121504833Y-148907500D01*
X121593339Y-148463000D01*
X122836169Y-148465020D01*
X122836169Y-148465020D01*
G37*
X122836169Y-148465020D02*
X123469643Y-148472830D01*
X123960284Y-148496526D01*
X124334164Y-148539980D01*
X124617357Y-148607068D01*
X124835936Y-148701663D01*
X124956109Y-148780031D01*
X125189741Y-149049423D01*
X125287281Y-149383004D01*
X125249358Y-149745057D01*
X125076603Y-150099867D01*
X124929806Y-150273549D01*
X124645753Y-150557602D01*
X124870377Y-150782225D01*
X125018991Y-150971587D01*
X125084152Y-151192519D01*
X125095000Y-151413274D01*
X125014928Y-151876572D01*
X124783762Y-152280053D01*
X124415074Y-152603376D01*
X124232753Y-152705403D01*
X124070803Y-152778098D01*
X123906747Y-152831783D01*
X123710238Y-152870130D01*
X123450931Y-152896816D01*
X123098479Y-152915514D01*
X122622536Y-152929901D01*
X122322167Y-152936768D01*
X121729844Y-152945823D01*
X121295123Y-152943530D01*
X121006619Y-152929419D01*
X120852950Y-152903018D01*
X120819333Y-152874626D01*
X120833405Y-152765878D01*
X120872314Y-152519144D01*
X120931099Y-152163132D01*
X120980688Y-151869375D01*
X122428292Y-151869375D01*
X122984275Y-151833972D01*
X123352039Y-151790773D01*
X123570199Y-151719049D01*
X123617833Y-151675951D01*
X123683548Y-151490240D01*
X123696703Y-151372708D01*
X123648068Y-151228381D01*
X123486059Y-151138571D01*
X123190273Y-151095475D01*
X122954509Y-151088823D01*
X122735870Y-151097097D01*
X122609946Y-151150045D01*
X122538710Y-151287194D01*
X122484135Y-151548076D01*
X122477806Y-151584354D01*
X122428292Y-151869375D01*
X120980688Y-151869375D01*
X121004800Y-151726545D01*
X121088458Y-151238092D01*
X121177112Y-150726477D01*
X121265801Y-150220406D01*
X121301371Y-150020049D01*
X122764811Y-150020049D01*
X122796739Y-150168115D01*
X122942628Y-150229853D01*
X123176878Y-150241000D01*
X123480453Y-150216049D01*
X123676877Y-150129673D01*
X123744818Y-150066710D01*
X123852218Y-149875748D01*
X123800322Y-149725889D01*
X123595740Y-149624319D01*
X123298046Y-149580788D01*
X123042006Y-149573980D01*
X122905581Y-149604451D01*
X122840247Y-149689428D01*
X122821089Y-149750121D01*
X122764811Y-150020049D01*
X121301371Y-150020049D01*
X121349566Y-149748585D01*
X121423445Y-149339720D01*
X121482480Y-149022517D01*
X121504833Y-148907500D01*
X121593339Y-148463000D01*
X122836169Y-148465020D01*
D14*
X301188380Y-34004095D02*
X300188380Y-34004095D01*
X300664571Y-34004095D02*
X300664571Y-33432666D01*
X301188380Y-33432666D02*
X300188380Y-33432666D01*
X301188380Y-32432666D02*
X301188380Y-33004095D01*
X301188380Y-32718380D02*
X300188380Y-32718380D01*
X300331238Y-32813619D01*
X300426476Y-32908857D01*
X300474095Y-33004095D01*
X300188380Y-32099333D02*
X300188380Y-31480285D01*
X300569333Y-31813619D01*
X300569333Y-31670761D01*
X300616952Y-31575523D01*
X300664571Y-31527904D01*
X300759809Y-31480285D01*
X300997904Y-31480285D01*
X301093142Y-31527904D01*
X301140761Y-31575523D01*
X301188380Y-31670761D01*
X301188380Y-31956476D01*
X301140761Y-32051714D01*
X301093142Y-32099333D01*
X235291333Y-55394380D02*
X234958000Y-54918190D01*
X234719904Y-55394380D02*
X234719904Y-54394380D01*
X235100857Y-54394380D01*
X235196095Y-54442000D01*
X235243714Y-54489619D01*
X235291333Y-54584857D01*
X235291333Y-54727714D01*
X235243714Y-54822952D01*
X235196095Y-54870571D01*
X235100857Y-54918190D01*
X234719904Y-54918190D01*
X236243714Y-55394380D02*
X235672285Y-55394380D01*
X235958000Y-55394380D02*
X235958000Y-54394380D01*
X235862761Y-54537238D01*
X235767523Y-54632476D01*
X235672285Y-54680095D01*
X235291333Y-50949380D02*
X234958000Y-50473190D01*
X234719904Y-50949380D02*
X234719904Y-49949380D01*
X235100857Y-49949380D01*
X235196095Y-49997000D01*
X235243714Y-50044619D01*
X235291333Y-50139857D01*
X235291333Y-50282714D01*
X235243714Y-50377952D01*
X235196095Y-50425571D01*
X235100857Y-50473190D01*
X234719904Y-50473190D01*
X236148476Y-50282714D02*
X236148476Y-50949380D01*
X235910380Y-49901761D02*
X235672285Y-50616047D01*
X236291333Y-50616047D01*
X210764380Y-76072904D02*
X209764380Y-76072904D01*
X210240571Y-76072904D02*
X210240571Y-75501476D01*
X210764380Y-75501476D02*
X209764380Y-75501476D01*
X210764380Y-74501476D02*
X210764380Y-75072904D01*
X210764380Y-74787190D02*
X209764380Y-74787190D01*
X209907238Y-74882428D01*
X210002476Y-74977666D01*
X210050095Y-75072904D01*
X210764380Y-70103904D02*
X209764380Y-70103904D01*
X210240571Y-70103904D02*
X210240571Y-69532476D01*
X210764380Y-69532476D02*
X209764380Y-69532476D01*
X209859619Y-69103904D02*
X209812000Y-69056285D01*
X209764380Y-68961047D01*
X209764380Y-68722952D01*
X209812000Y-68627714D01*
X209859619Y-68580095D01*
X209954857Y-68532476D01*
X210050095Y-68532476D01*
X210192952Y-68580095D01*
X210764380Y-69151523D01*
X210764380Y-68532476D01*
X210764380Y-65023904D02*
X209764380Y-65023904D01*
X210240571Y-65023904D02*
X210240571Y-64452476D01*
X210764380Y-64452476D02*
X209764380Y-64452476D01*
X209764380Y-64071523D02*
X209764380Y-63452476D01*
X210145333Y-63785809D01*
X210145333Y-63642952D01*
X210192952Y-63547714D01*
X210240571Y-63500095D01*
X210335809Y-63452476D01*
X210573904Y-63452476D01*
X210669142Y-63500095D01*
X210716761Y-63547714D01*
X210764380Y-63642952D01*
X210764380Y-63928666D01*
X210716761Y-64023904D01*
X210669142Y-64071523D01*
X83764380Y-41886095D02*
X82764380Y-41886095D01*
X82764380Y-41648000D01*
X82812000Y-41505142D01*
X82907238Y-41409904D01*
X83002476Y-41362285D01*
X83192952Y-41314666D01*
X83335809Y-41314666D01*
X83526285Y-41362285D01*
X83621523Y-41409904D01*
X83716761Y-41505142D01*
X83764380Y-41648000D01*
X83764380Y-41886095D01*
X82859619Y-40933714D02*
X82812000Y-40886095D01*
X82764380Y-40790857D01*
X82764380Y-40552761D01*
X82812000Y-40457523D01*
X82859619Y-40409904D01*
X82954857Y-40362285D01*
X83050095Y-40362285D01*
X83192952Y-40409904D01*
X83764380Y-40981333D01*
X83764380Y-40362285D01*
X78811380Y-36552095D02*
X77811380Y-36552095D01*
X77811380Y-36314000D01*
X77859000Y-36171142D01*
X77954238Y-36075904D01*
X78049476Y-36028285D01*
X78239952Y-35980666D01*
X78382809Y-35980666D01*
X78573285Y-36028285D01*
X78668523Y-36075904D01*
X78763761Y-36171142D01*
X78811380Y-36314000D01*
X78811380Y-36552095D01*
X77811380Y-35075904D02*
X77811380Y-35552095D01*
X78287571Y-35599714D01*
X78239952Y-35552095D01*
X78192333Y-35456857D01*
X78192333Y-35218761D01*
X78239952Y-35123523D01*
X78287571Y-35075904D01*
X78382809Y-35028285D01*
X78620904Y-35028285D01*
X78716142Y-35075904D01*
X78763761Y-35123523D01*
X78811380Y-35218761D01*
X78811380Y-35456857D01*
X78763761Y-35552095D01*
X78716142Y-35599714D01*
X135549333Y-57905380D02*
X135216000Y-57429190D01*
X134977904Y-57905380D02*
X134977904Y-56905380D01*
X135358857Y-56905380D01*
X135454095Y-56953000D01*
X135501714Y-57000619D01*
X135549333Y-57095857D01*
X135549333Y-57238714D01*
X135501714Y-57333952D01*
X135454095Y-57381571D01*
X135358857Y-57429190D01*
X134977904Y-57429190D01*
X135930285Y-57000619D02*
X135977904Y-56953000D01*
X136073142Y-56905380D01*
X136311238Y-56905380D01*
X136406476Y-56953000D01*
X136454095Y-57000619D01*
X136501714Y-57095857D01*
X136501714Y-57191095D01*
X136454095Y-57333952D01*
X135882666Y-57905380D01*
X136501714Y-57905380D01*
X135549333Y-53460380D02*
X135216000Y-52984190D01*
X134977904Y-53460380D02*
X134977904Y-52460380D01*
X135358857Y-52460380D01*
X135454095Y-52508000D01*
X135501714Y-52555619D01*
X135549333Y-52650857D01*
X135549333Y-52793714D01*
X135501714Y-52888952D01*
X135454095Y-52936571D01*
X135358857Y-52984190D01*
X134977904Y-52984190D01*
X136454095Y-52460380D02*
X135977904Y-52460380D01*
X135930285Y-52936571D01*
X135977904Y-52888952D01*
X136073142Y-52841333D01*
X136311238Y-52841333D01*
X136406476Y-52888952D01*
X136454095Y-52936571D01*
X136501714Y-53031809D01*
X136501714Y-53269904D01*
X136454095Y-53365142D01*
X136406476Y-53412761D01*
X136311238Y-53460380D01*
X136073142Y-53460380D01*
X135977904Y-53412761D01*
X135930285Y-53365142D01*
X161488380Y-75691904D02*
X160488380Y-75691904D01*
X160964571Y-75691904D02*
X160964571Y-75120476D01*
X161488380Y-75120476D02*
X160488380Y-75120476D01*
X160821714Y-74215714D02*
X161488380Y-74215714D01*
X160440761Y-74453809D02*
X161155047Y-74691904D01*
X161155047Y-74072857D01*
X161488380Y-69214904D02*
X160488380Y-69214904D01*
X160964571Y-69214904D02*
X160964571Y-68643476D01*
X161488380Y-68643476D02*
X160488380Y-68643476D01*
X160488380Y-67691095D02*
X160488380Y-68167285D01*
X160964571Y-68214904D01*
X160916952Y-68167285D01*
X160869333Y-68072047D01*
X160869333Y-67833952D01*
X160916952Y-67738714D01*
X160964571Y-67691095D01*
X161059809Y-67643476D01*
X161297904Y-67643476D01*
X161393142Y-67691095D01*
X161440761Y-67738714D01*
X161488380Y-67833952D01*
X161488380Y-68072047D01*
X161440761Y-68167285D01*
X161393142Y-68214904D01*
X161488380Y-64134904D02*
X160488380Y-64134904D01*
X160964571Y-64134904D02*
X160964571Y-63563476D01*
X161488380Y-63563476D02*
X160488380Y-63563476D01*
X160488380Y-62658714D02*
X160488380Y-62849190D01*
X160536000Y-62944428D01*
X160583619Y-62992047D01*
X160726476Y-63087285D01*
X160916952Y-63134904D01*
X161297904Y-63134904D01*
X161393142Y-63087285D01*
X161440761Y-63039666D01*
X161488380Y-62944428D01*
X161488380Y-62753952D01*
X161440761Y-62658714D01*
X161393142Y-62611095D01*
X161297904Y-62563476D01*
X161059809Y-62563476D01*
X160964571Y-62611095D01*
X160916952Y-62658714D01*
X160869333Y-62753952D01*
X160869333Y-62944428D01*
X160916952Y-63039666D01*
X160964571Y-63087285D01*
X161059809Y-63134904D01*
X70810380Y-32988095D02*
X69810380Y-32988095D01*
X70286571Y-32988095D02*
X70286571Y-32416666D01*
X70810380Y-32416666D02*
X69810380Y-32416666D01*
X70810380Y-31416666D02*
X70810380Y-31988095D01*
X70810380Y-31702380D02*
X69810380Y-31702380D01*
X69953238Y-31797619D01*
X70048476Y-31892857D01*
X70096095Y-31988095D01*
X69810380Y-30511904D02*
X69810380Y-30988095D01*
X70286571Y-31035714D01*
X70238952Y-30988095D01*
X70191333Y-30892857D01*
X70191333Y-30654761D01*
X70238952Y-30559523D01*
X70286571Y-30511904D01*
X70381809Y-30464285D01*
X70619904Y-30464285D01*
X70715142Y-30511904D01*
X70762761Y-30559523D01*
X70810380Y-30654761D01*
X70810380Y-30892857D01*
X70762761Y-30988095D01*
X70715142Y-31035714D01*
X78811380Y-39846095D02*
X77811380Y-39846095D01*
X78287571Y-39846095D02*
X78287571Y-39274666D01*
X78811380Y-39274666D02*
X77811380Y-39274666D01*
X78811380Y-38274666D02*
X78811380Y-38846095D01*
X78811380Y-38560380D02*
X77811380Y-38560380D01*
X77954238Y-38655619D01*
X78049476Y-38750857D01*
X78097095Y-38846095D01*
X77811380Y-37417523D02*
X77811380Y-37608000D01*
X77859000Y-37703238D01*
X77906619Y-37750857D01*
X78049476Y-37846095D01*
X78239952Y-37893714D01*
X78620904Y-37893714D01*
X78716142Y-37846095D01*
X78763761Y-37798476D01*
X78811380Y-37703238D01*
X78811380Y-37512761D01*
X78763761Y-37417523D01*
X78716142Y-37369904D01*
X78620904Y-37322285D01*
X78382809Y-37322285D01*
X78287571Y-37369904D01*
X78239952Y-37417523D01*
X78192333Y-37512761D01*
X78192333Y-37703238D01*
X78239952Y-37798476D01*
X78287571Y-37846095D01*
X78382809Y-37893714D01*
X293314380Y-40608095D02*
X292314380Y-40608095D01*
X292790571Y-40608095D02*
X292790571Y-40036666D01*
X293314380Y-40036666D02*
X292314380Y-40036666D01*
X293314380Y-39036666D02*
X293314380Y-39608095D01*
X293314380Y-39322380D02*
X292314380Y-39322380D01*
X292457238Y-39417619D01*
X292552476Y-39512857D01*
X292600095Y-39608095D01*
X292647714Y-38179523D02*
X293314380Y-38179523D01*
X292266761Y-38417619D02*
X292981047Y-38655714D01*
X292981047Y-38036666D01*
X310459380Y-151077095D02*
X309459380Y-151077095D01*
X309459380Y-150839000D01*
X309507000Y-150696142D01*
X309602238Y-150600904D01*
X309697476Y-150553285D01*
X309887952Y-150505666D01*
X310030809Y-150505666D01*
X310221285Y-150553285D01*
X310316523Y-150600904D01*
X310411761Y-150696142D01*
X310459380Y-150839000D01*
X310459380Y-151077095D01*
X309459380Y-150172333D02*
X309459380Y-149553285D01*
X309840333Y-149886619D01*
X309840333Y-149743761D01*
X309887952Y-149648523D01*
X309935571Y-149600904D01*
X310030809Y-149553285D01*
X310268904Y-149553285D01*
X310364142Y-149600904D01*
X310411761Y-149648523D01*
X310459380Y-149743761D01*
X310459380Y-150029476D01*
X310411761Y-150124714D01*
X310364142Y-150172333D01*
X157297380Y-153900095D02*
X156297380Y-153900095D01*
X156297380Y-153662000D01*
X156345000Y-153519142D01*
X156440238Y-153423904D01*
X156535476Y-153376285D01*
X156725952Y-153328666D01*
X156868809Y-153328666D01*
X157059285Y-153376285D01*
X157154523Y-153423904D01*
X157249761Y-153519142D01*
X157297380Y-153662000D01*
X157297380Y-153900095D01*
X156297380Y-152995333D02*
X156297380Y-152328666D01*
X157297380Y-152757238D01*
X297187333Y-154630380D02*
X296854000Y-154154190D01*
X296615904Y-154630380D02*
X296615904Y-153630380D01*
X296996857Y-153630380D01*
X297092095Y-153678000D01*
X297139714Y-153725619D01*
X297187333Y-153820857D01*
X297187333Y-153963714D01*
X297139714Y-154058952D01*
X297092095Y-154106571D01*
X296996857Y-154154190D01*
X296615904Y-154154190D01*
X297520666Y-153630380D02*
X298139714Y-153630380D01*
X297806380Y-154011333D01*
X297949238Y-154011333D01*
X298044476Y-154058952D01*
X298092095Y-154106571D01*
X298139714Y-154201809D01*
X298139714Y-154439904D01*
X298092095Y-154535142D01*
X298044476Y-154582761D01*
X297949238Y-154630380D01*
X297663523Y-154630380D01*
X297568285Y-154582761D01*
X297520666Y-154535142D01*
X293965333Y-150947380D02*
X293632000Y-150471190D01*
X293393904Y-150947380D02*
X293393904Y-149947380D01*
X293774857Y-149947380D01*
X293870095Y-149995000D01*
X293917714Y-150042619D01*
X293965333Y-150137857D01*
X293965333Y-150280714D01*
X293917714Y-150375952D01*
X293870095Y-150423571D01*
X293774857Y-150471190D01*
X293393904Y-150471190D01*
X294822476Y-149947380D02*
X294632000Y-149947380D01*
X294536761Y-149995000D01*
X294489142Y-150042619D01*
X294393904Y-150185476D01*
X294346285Y-150375952D01*
X294346285Y-150756904D01*
X294393904Y-150852142D01*
X294441523Y-150899761D01*
X294536761Y-150947380D01*
X294727238Y-150947380D01*
X294822476Y-150899761D01*
X294870095Y-150852142D01*
X294917714Y-150756904D01*
X294917714Y-150518809D01*
X294870095Y-150423571D01*
X294822476Y-150375952D01*
X294727238Y-150328333D01*
X294536761Y-150328333D01*
X294441523Y-150375952D01*
X294393904Y-150423571D01*
X294346285Y-150518809D01*
X150947380Y-147232666D02*
X150471190Y-147566000D01*
X150947380Y-147804095D02*
X149947380Y-147804095D01*
X149947380Y-147423142D01*
X149995000Y-147327904D01*
X150042619Y-147280285D01*
X150137857Y-147232666D01*
X150280714Y-147232666D01*
X150375952Y-147280285D01*
X150423571Y-147327904D01*
X150471190Y-147423142D01*
X150471190Y-147804095D01*
X149947380Y-146899333D02*
X149947380Y-146232666D01*
X150947380Y-146661238D01*
X165552380Y-150915666D02*
X165076190Y-151249000D01*
X165552380Y-151487095D02*
X164552380Y-151487095D01*
X164552380Y-151106142D01*
X164600000Y-151010904D01*
X164647619Y-150963285D01*
X164742857Y-150915666D01*
X164885714Y-150915666D01*
X164980952Y-150963285D01*
X165028571Y-151010904D01*
X165076190Y-151106142D01*
X165076190Y-151487095D01*
X164980952Y-150344238D02*
X164933333Y-150439476D01*
X164885714Y-150487095D01*
X164790476Y-150534714D01*
X164742857Y-150534714D01*
X164647619Y-150487095D01*
X164600000Y-150439476D01*
X164552380Y-150344238D01*
X164552380Y-150153761D01*
X164600000Y-150058523D01*
X164647619Y-150010904D01*
X164742857Y-149963285D01*
X164790476Y-149963285D01*
X164885714Y-150010904D01*
X164933333Y-150058523D01*
X164980952Y-150153761D01*
X164980952Y-150344238D01*
X165028571Y-150439476D01*
X165076190Y-150487095D01*
X165171428Y-150534714D01*
X165361904Y-150534714D01*
X165457142Y-150487095D01*
X165504761Y-150439476D01*
X165552380Y-150344238D01*
X165552380Y-150153761D01*
X165504761Y-150058523D01*
X165457142Y-150010904D01*
X165361904Y-149963285D01*
X165171428Y-149963285D01*
X165076190Y-150010904D01*
X165028571Y-150058523D01*
X164980952Y-150153761D01*
X152908095Y-159075380D02*
X152908095Y-158075380D01*
X152908095Y-158551571D02*
X153479523Y-158551571D01*
X153479523Y-159075380D02*
X153479523Y-158075380D01*
X153860476Y-158075380D02*
X154527142Y-158075380D01*
X154098571Y-159075380D01*
X160782095Y-158186380D02*
X160782095Y-157186380D01*
X160782095Y-157662571D02*
X161353523Y-157662571D01*
X161353523Y-158186380D02*
X161353523Y-157186380D01*
X161972571Y-157614952D02*
X161877333Y-157567333D01*
X161829714Y-157519714D01*
X161782095Y-157424476D01*
X161782095Y-157376857D01*
X161829714Y-157281619D01*
X161877333Y-157234000D01*
X161972571Y-157186380D01*
X162163047Y-157186380D01*
X162258285Y-157234000D01*
X162305904Y-157281619D01*
X162353523Y-157376857D01*
X162353523Y-157424476D01*
X162305904Y-157519714D01*
X162258285Y-157567333D01*
X162163047Y-157614952D01*
X161972571Y-157614952D01*
X161877333Y-157662571D01*
X161829714Y-157710190D01*
X161782095Y-157805428D01*
X161782095Y-157995904D01*
X161829714Y-158091142D01*
X161877333Y-158138761D01*
X161972571Y-158186380D01*
X162163047Y-158186380D01*
X162258285Y-158138761D01*
X162305904Y-158091142D01*
X162353523Y-157995904D01*
X162353523Y-157805428D01*
X162305904Y-157710190D01*
X162258285Y-157662571D01*
X162163047Y-157614952D01*
X165862095Y-158059380D02*
X165862095Y-157059380D01*
X165862095Y-157535571D02*
X166433523Y-157535571D01*
X166433523Y-158059380D02*
X166433523Y-157059380D01*
X166957333Y-158059380D02*
X167147809Y-158059380D01*
X167243047Y-158011761D01*
X167290666Y-157964142D01*
X167385904Y-157821285D01*
X167433523Y-157630809D01*
X167433523Y-157249857D01*
X167385904Y-157154619D01*
X167338285Y-157107000D01*
X167243047Y-157059380D01*
X167052571Y-157059380D01*
X166957333Y-157107000D01*
X166909714Y-157154619D01*
X166862095Y-157249857D01*
X166862095Y-157487952D01*
X166909714Y-157583190D01*
X166957333Y-157630809D01*
X167052571Y-157678428D01*
X167243047Y-157678428D01*
X167338285Y-157630809D01*
X167385904Y-157583190D01*
X167433523Y-157487952D01*
X155098904Y-144851380D02*
X155098904Y-143851380D01*
X155098904Y-144327571D02*
X155670333Y-144327571D01*
X155670333Y-144851380D02*
X155670333Y-143851380D01*
X156670333Y-144851380D02*
X156098904Y-144851380D01*
X156384619Y-144851380D02*
X156384619Y-143851380D01*
X156289380Y-143994238D01*
X156194142Y-144089476D01*
X156098904Y-144137095D01*
X157289380Y-143851380D02*
X157384619Y-143851380D01*
X157479857Y-143899000D01*
X157527476Y-143946619D01*
X157575095Y-144041857D01*
X157622714Y-144232333D01*
X157622714Y-144470428D01*
X157575095Y-144660904D01*
X157527476Y-144756142D01*
X157479857Y-144803761D01*
X157384619Y-144851380D01*
X157289380Y-144851380D01*
X157194142Y-144803761D01*
X157146523Y-144756142D01*
X157098904Y-144660904D01*
X157051285Y-144470428D01*
X157051285Y-144232333D01*
X157098904Y-144041857D01*
X157146523Y-143946619D01*
X157194142Y-143899000D01*
X157289380Y-143851380D01*
X160305904Y-144851380D02*
X160305904Y-143851380D01*
X160305904Y-144327571D02*
X160877333Y-144327571D01*
X160877333Y-144851380D02*
X160877333Y-143851380D01*
X161877333Y-144851380D02*
X161305904Y-144851380D01*
X161591619Y-144851380D02*
X161591619Y-143851380D01*
X161496380Y-143994238D01*
X161401142Y-144089476D01*
X161305904Y-144137095D01*
X162829714Y-144851380D02*
X162258285Y-144851380D01*
X162544000Y-144851380D02*
X162544000Y-143851380D01*
X162448761Y-143994238D01*
X162353523Y-144089476D01*
X162258285Y-144137095D01*
X165258904Y-144851380D02*
X165258904Y-143851380D01*
X165258904Y-144327571D02*
X165830333Y-144327571D01*
X165830333Y-144851380D02*
X165830333Y-143851380D01*
X166830333Y-144851380D02*
X166258904Y-144851380D01*
X166544619Y-144851380D02*
X166544619Y-143851380D01*
X166449380Y-143994238D01*
X166354142Y-144089476D01*
X166258904Y-144137095D01*
X167211285Y-143946619D02*
X167258904Y-143899000D01*
X167354142Y-143851380D01*
X167592238Y-143851380D01*
X167687476Y-143899000D01*
X167735095Y-143946619D01*
X167782714Y-144041857D01*
X167782714Y-144137095D01*
X167735095Y-144279952D01*
X167163666Y-144851380D01*
X167782714Y-144851380D01*
M02*
