G04 #@! TF.GenerationSoftware,KiCad,Pcbnew,(5.1.0)-1*
G04 #@! TF.CreationDate,2019-05-22T09:29:33+02:00*
G04 #@! TF.ProjectId,A320,41333230-2e6b-4696-9361-645f70636258,1*
G04 #@! TF.SameCoordinates,Original*
G04 #@! TF.FileFunction,Soldermask,Bot*
G04 #@! TF.FilePolarity,Negative*
%FSLAX46Y46*%
G04 Gerber Fmt 4.6, Leading zero omitted, Abs format (unit mm)*
G04 Created by KiCad (PCBNEW (5.1.0)-1) date 2019-05-22 09:29:33*
%MOMM*%
%LPD*%
G04 APERTURE LIST*
%ADD10C,0.100000*%
G04 APERTURE END LIST*
D10*
G36*
X168656000Y-60198000D02*
G01*
X165481000Y-60198000D01*
X165481000Y-49784000D01*
X168656000Y-49784000D01*
X168656000Y-60198000D01*
G37*
X168656000Y-60198000D02*
X165481000Y-60198000D01*
X165481000Y-49784000D01*
X168656000Y-49784000D01*
X168656000Y-60198000D01*
G36*
X168656000Y-87376000D02*
G01*
X165481000Y-87376000D01*
X165481000Y-76962000D01*
X168656000Y-76962000D01*
X168656000Y-87376000D01*
G37*
X168656000Y-87376000D02*
X165481000Y-87376000D01*
X165481000Y-76962000D01*
X168656000Y-76962000D01*
X168656000Y-87376000D01*
G36*
X205867000Y-61087000D02*
G01*
X202692000Y-61087000D01*
X202692000Y-50673000D01*
X205867000Y-50673000D01*
X205867000Y-61087000D01*
G37*
X205867000Y-61087000D02*
X202692000Y-61087000D01*
X202692000Y-50673000D01*
X205867000Y-50673000D01*
X205867000Y-61087000D01*
G36*
X205867000Y-88265000D02*
G01*
X202692000Y-88265000D01*
X202692000Y-77851000D01*
X205867000Y-77851000D01*
X205867000Y-88265000D01*
G37*
X205867000Y-88265000D02*
X202692000Y-88265000D01*
X202692000Y-77851000D01*
X205867000Y-77851000D01*
X205867000Y-88265000D01*
G36*
X180213000Y-164084000D02*
G01*
X169799000Y-164084000D01*
X169799000Y-160909000D01*
X180213000Y-160909000D01*
X180213000Y-164084000D01*
G37*
X180213000Y-164084000D02*
X169799000Y-164084000D01*
X169799000Y-160909000D01*
X180213000Y-160909000D01*
X180213000Y-164084000D01*
G36*
X153035000Y-164084000D02*
G01*
X142621000Y-164084000D01*
X142621000Y-160909000D01*
X153035000Y-160909000D01*
X153035000Y-164084000D01*
G37*
X153035000Y-164084000D02*
X142621000Y-164084000D01*
X142621000Y-160909000D01*
X153035000Y-160909000D01*
X153035000Y-164084000D01*
G36*
X180213000Y-140398500D02*
G01*
X169799000Y-140398500D01*
X169799000Y-137223500D01*
X180213000Y-137223500D01*
X180213000Y-140398500D01*
G37*
X180213000Y-140398500D02*
X169799000Y-140398500D01*
X169799000Y-137223500D01*
X180213000Y-137223500D01*
X180213000Y-140398500D01*
G36*
X152971500Y-140398500D02*
G01*
X142557500Y-140398500D01*
X142557500Y-137223500D01*
X152971500Y-137223500D01*
X152971500Y-140398500D01*
G37*
X152971500Y-140398500D02*
X142557500Y-140398500D01*
X142557500Y-137223500D01*
X152971500Y-137223500D01*
X152971500Y-140398500D01*
G36*
X156690905Y-159117789D02*
G01*
X156989350Y-159177153D01*
X157317122Y-159312921D01*
X157612109Y-159510025D01*
X157862975Y-159760891D01*
X158060079Y-160055878D01*
X158195847Y-160383650D01*
X158265060Y-160731611D01*
X158265060Y-161086389D01*
X158195847Y-161434350D01*
X158060079Y-161762122D01*
X157862975Y-162057109D01*
X157612109Y-162307975D01*
X157317122Y-162505079D01*
X156989350Y-162640847D01*
X156690905Y-162700211D01*
X156641390Y-162710060D01*
X156286610Y-162710060D01*
X156237095Y-162700211D01*
X155938650Y-162640847D01*
X155610878Y-162505079D01*
X155315891Y-162307975D01*
X155065025Y-162057109D01*
X154867921Y-161762122D01*
X154732153Y-161434350D01*
X154662940Y-161086389D01*
X154662940Y-160731611D01*
X154732153Y-160383650D01*
X154867921Y-160055878D01*
X155065025Y-159760891D01*
X155315891Y-159510025D01*
X155610878Y-159312921D01*
X155938650Y-159177153D01*
X156237095Y-159117789D01*
X156286610Y-159107940D01*
X156641390Y-159107940D01*
X156690905Y-159117789D01*
X156690905Y-159117789D01*
G37*
G36*
X166850905Y-159117789D02*
G01*
X167149350Y-159177153D01*
X167477122Y-159312921D01*
X167772109Y-159510025D01*
X168022975Y-159760891D01*
X168220079Y-160055878D01*
X168355847Y-160383650D01*
X168425060Y-160731611D01*
X168425060Y-161086389D01*
X168355847Y-161434350D01*
X168220079Y-161762122D01*
X168022975Y-162057109D01*
X167772109Y-162307975D01*
X167477122Y-162505079D01*
X167149350Y-162640847D01*
X166850905Y-162700211D01*
X166801390Y-162710060D01*
X166446610Y-162710060D01*
X166397095Y-162700211D01*
X166098650Y-162640847D01*
X165770878Y-162505079D01*
X165475891Y-162307975D01*
X165225025Y-162057109D01*
X165027921Y-161762122D01*
X164892153Y-161434350D01*
X164822940Y-161086389D01*
X164822940Y-160731611D01*
X164892153Y-160383650D01*
X165027921Y-160055878D01*
X165225025Y-159760891D01*
X165475891Y-159510025D01*
X165770878Y-159312921D01*
X166098650Y-159177153D01*
X166397095Y-159117789D01*
X166446610Y-159107940D01*
X166801390Y-159107940D01*
X166850905Y-159117789D01*
X166850905Y-159117789D01*
G37*
G36*
X161770905Y-159117789D02*
G01*
X162069350Y-159177153D01*
X162397122Y-159312921D01*
X162692109Y-159510025D01*
X162942975Y-159760891D01*
X163140079Y-160055878D01*
X163275847Y-160383650D01*
X163345060Y-160731611D01*
X163345060Y-161086389D01*
X163275847Y-161434350D01*
X163140079Y-161762122D01*
X162942975Y-162057109D01*
X162692109Y-162307975D01*
X162397122Y-162505079D01*
X162069350Y-162640847D01*
X161770905Y-162700211D01*
X161721390Y-162710060D01*
X161366610Y-162710060D01*
X161317095Y-162700211D01*
X161018650Y-162640847D01*
X160690878Y-162505079D01*
X160395891Y-162307975D01*
X160145025Y-162057109D01*
X159947921Y-161762122D01*
X159812153Y-161434350D01*
X159742940Y-161086389D01*
X159742940Y-160731611D01*
X159812153Y-160383650D01*
X159947921Y-160055878D01*
X160145025Y-159760891D01*
X160395891Y-159510025D01*
X160690878Y-159312921D01*
X161018650Y-159177153D01*
X161317095Y-159117789D01*
X161366610Y-159107940D01*
X161721390Y-159107940D01*
X161770905Y-159117789D01*
X161770905Y-159117789D01*
G37*
G36*
X216941500Y-159156500D02*
G01*
X215239500Y-159156500D01*
X215239500Y-157454500D01*
X216941500Y-157454500D01*
X216941500Y-159156500D01*
X216941500Y-159156500D01*
G37*
G36*
X188398728Y-157487203D02*
G01*
X188553600Y-157551353D01*
X188692981Y-157644485D01*
X188811515Y-157763019D01*
X188904647Y-157902400D01*
X188968797Y-158057272D01*
X189001500Y-158221684D01*
X189001500Y-158389316D01*
X188968797Y-158553728D01*
X188904647Y-158708600D01*
X188811515Y-158847981D01*
X188692981Y-158966515D01*
X188553600Y-159059647D01*
X188398728Y-159123797D01*
X188234316Y-159156500D01*
X188066684Y-159156500D01*
X187902272Y-159123797D01*
X187747400Y-159059647D01*
X187608019Y-158966515D01*
X187489485Y-158847981D01*
X187396353Y-158708600D01*
X187332203Y-158553728D01*
X187299500Y-158389316D01*
X187299500Y-158221684D01*
X187332203Y-158057272D01*
X187396353Y-157902400D01*
X187489485Y-157763019D01*
X187608019Y-157644485D01*
X187747400Y-157551353D01*
X187902272Y-157487203D01*
X188066684Y-157454500D01*
X188234316Y-157454500D01*
X188398728Y-157487203D01*
X188398728Y-157487203D01*
G37*
G36*
X213798728Y-157487203D02*
G01*
X213953600Y-157551353D01*
X214092981Y-157644485D01*
X214211515Y-157763019D01*
X214304647Y-157902400D01*
X214368797Y-158057272D01*
X214401500Y-158221684D01*
X214401500Y-158389316D01*
X214368797Y-158553728D01*
X214304647Y-158708600D01*
X214211515Y-158847981D01*
X214092981Y-158966515D01*
X213953600Y-159059647D01*
X213798728Y-159123797D01*
X213634316Y-159156500D01*
X213466684Y-159156500D01*
X213302272Y-159123797D01*
X213147400Y-159059647D01*
X213008019Y-158966515D01*
X212889485Y-158847981D01*
X212796353Y-158708600D01*
X212732203Y-158553728D01*
X212699500Y-158389316D01*
X212699500Y-158221684D01*
X212732203Y-158057272D01*
X212796353Y-157902400D01*
X212889485Y-157763019D01*
X213008019Y-157644485D01*
X213147400Y-157551353D01*
X213302272Y-157487203D01*
X213466684Y-157454500D01*
X213634316Y-157454500D01*
X213798728Y-157487203D01*
X213798728Y-157487203D01*
G37*
G36*
X211258728Y-157487203D02*
G01*
X211413600Y-157551353D01*
X211552981Y-157644485D01*
X211671515Y-157763019D01*
X211764647Y-157902400D01*
X211828797Y-158057272D01*
X211861500Y-158221684D01*
X211861500Y-158389316D01*
X211828797Y-158553728D01*
X211764647Y-158708600D01*
X211671515Y-158847981D01*
X211552981Y-158966515D01*
X211413600Y-159059647D01*
X211258728Y-159123797D01*
X211094316Y-159156500D01*
X210926684Y-159156500D01*
X210762272Y-159123797D01*
X210607400Y-159059647D01*
X210468019Y-158966515D01*
X210349485Y-158847981D01*
X210256353Y-158708600D01*
X210192203Y-158553728D01*
X210159500Y-158389316D01*
X210159500Y-158221684D01*
X210192203Y-158057272D01*
X210256353Y-157902400D01*
X210349485Y-157763019D01*
X210468019Y-157644485D01*
X210607400Y-157551353D01*
X210762272Y-157487203D01*
X210926684Y-157454500D01*
X211094316Y-157454500D01*
X211258728Y-157487203D01*
X211258728Y-157487203D01*
G37*
G36*
X208718728Y-157487203D02*
G01*
X208873600Y-157551353D01*
X209012981Y-157644485D01*
X209131515Y-157763019D01*
X209224647Y-157902400D01*
X209288797Y-158057272D01*
X209321500Y-158221684D01*
X209321500Y-158389316D01*
X209288797Y-158553728D01*
X209224647Y-158708600D01*
X209131515Y-158847981D01*
X209012981Y-158966515D01*
X208873600Y-159059647D01*
X208718728Y-159123797D01*
X208554316Y-159156500D01*
X208386684Y-159156500D01*
X208222272Y-159123797D01*
X208067400Y-159059647D01*
X207928019Y-158966515D01*
X207809485Y-158847981D01*
X207716353Y-158708600D01*
X207652203Y-158553728D01*
X207619500Y-158389316D01*
X207619500Y-158221684D01*
X207652203Y-158057272D01*
X207716353Y-157902400D01*
X207809485Y-157763019D01*
X207928019Y-157644485D01*
X208067400Y-157551353D01*
X208222272Y-157487203D01*
X208386684Y-157454500D01*
X208554316Y-157454500D01*
X208718728Y-157487203D01*
X208718728Y-157487203D01*
G37*
G36*
X206178728Y-157487203D02*
G01*
X206333600Y-157551353D01*
X206472981Y-157644485D01*
X206591515Y-157763019D01*
X206684647Y-157902400D01*
X206748797Y-158057272D01*
X206781500Y-158221684D01*
X206781500Y-158389316D01*
X206748797Y-158553728D01*
X206684647Y-158708600D01*
X206591515Y-158847981D01*
X206472981Y-158966515D01*
X206333600Y-159059647D01*
X206178728Y-159123797D01*
X206014316Y-159156500D01*
X205846684Y-159156500D01*
X205682272Y-159123797D01*
X205527400Y-159059647D01*
X205388019Y-158966515D01*
X205269485Y-158847981D01*
X205176353Y-158708600D01*
X205112203Y-158553728D01*
X205079500Y-158389316D01*
X205079500Y-158221684D01*
X205112203Y-158057272D01*
X205176353Y-157902400D01*
X205269485Y-157763019D01*
X205388019Y-157644485D01*
X205527400Y-157551353D01*
X205682272Y-157487203D01*
X205846684Y-157454500D01*
X206014316Y-157454500D01*
X206178728Y-157487203D01*
X206178728Y-157487203D01*
G37*
G36*
X203638728Y-157487203D02*
G01*
X203793600Y-157551353D01*
X203932981Y-157644485D01*
X204051515Y-157763019D01*
X204144647Y-157902400D01*
X204208797Y-158057272D01*
X204241500Y-158221684D01*
X204241500Y-158389316D01*
X204208797Y-158553728D01*
X204144647Y-158708600D01*
X204051515Y-158847981D01*
X203932981Y-158966515D01*
X203793600Y-159059647D01*
X203638728Y-159123797D01*
X203474316Y-159156500D01*
X203306684Y-159156500D01*
X203142272Y-159123797D01*
X202987400Y-159059647D01*
X202848019Y-158966515D01*
X202729485Y-158847981D01*
X202636353Y-158708600D01*
X202572203Y-158553728D01*
X202539500Y-158389316D01*
X202539500Y-158221684D01*
X202572203Y-158057272D01*
X202636353Y-157902400D01*
X202729485Y-157763019D01*
X202848019Y-157644485D01*
X202987400Y-157551353D01*
X203142272Y-157487203D01*
X203306684Y-157454500D01*
X203474316Y-157454500D01*
X203638728Y-157487203D01*
X203638728Y-157487203D01*
G37*
G36*
X201098728Y-157487203D02*
G01*
X201253600Y-157551353D01*
X201392981Y-157644485D01*
X201511515Y-157763019D01*
X201604647Y-157902400D01*
X201668797Y-158057272D01*
X201701500Y-158221684D01*
X201701500Y-158389316D01*
X201668797Y-158553728D01*
X201604647Y-158708600D01*
X201511515Y-158847981D01*
X201392981Y-158966515D01*
X201253600Y-159059647D01*
X201098728Y-159123797D01*
X200934316Y-159156500D01*
X200766684Y-159156500D01*
X200602272Y-159123797D01*
X200447400Y-159059647D01*
X200308019Y-158966515D01*
X200189485Y-158847981D01*
X200096353Y-158708600D01*
X200032203Y-158553728D01*
X199999500Y-158389316D01*
X199999500Y-158221684D01*
X200032203Y-158057272D01*
X200096353Y-157902400D01*
X200189485Y-157763019D01*
X200308019Y-157644485D01*
X200447400Y-157551353D01*
X200602272Y-157487203D01*
X200766684Y-157454500D01*
X200934316Y-157454500D01*
X201098728Y-157487203D01*
X201098728Y-157487203D01*
G37*
G36*
X198558728Y-157487203D02*
G01*
X198713600Y-157551353D01*
X198852981Y-157644485D01*
X198971515Y-157763019D01*
X199064647Y-157902400D01*
X199128797Y-158057272D01*
X199161500Y-158221684D01*
X199161500Y-158389316D01*
X199128797Y-158553728D01*
X199064647Y-158708600D01*
X198971515Y-158847981D01*
X198852981Y-158966515D01*
X198713600Y-159059647D01*
X198558728Y-159123797D01*
X198394316Y-159156500D01*
X198226684Y-159156500D01*
X198062272Y-159123797D01*
X197907400Y-159059647D01*
X197768019Y-158966515D01*
X197649485Y-158847981D01*
X197556353Y-158708600D01*
X197492203Y-158553728D01*
X197459500Y-158389316D01*
X197459500Y-158221684D01*
X197492203Y-158057272D01*
X197556353Y-157902400D01*
X197649485Y-157763019D01*
X197768019Y-157644485D01*
X197907400Y-157551353D01*
X198062272Y-157487203D01*
X198226684Y-157454500D01*
X198394316Y-157454500D01*
X198558728Y-157487203D01*
X198558728Y-157487203D01*
G37*
G36*
X196018728Y-157487203D02*
G01*
X196173600Y-157551353D01*
X196312981Y-157644485D01*
X196431515Y-157763019D01*
X196524647Y-157902400D01*
X196588797Y-158057272D01*
X196621500Y-158221684D01*
X196621500Y-158389316D01*
X196588797Y-158553728D01*
X196524647Y-158708600D01*
X196431515Y-158847981D01*
X196312981Y-158966515D01*
X196173600Y-159059647D01*
X196018728Y-159123797D01*
X195854316Y-159156500D01*
X195686684Y-159156500D01*
X195522272Y-159123797D01*
X195367400Y-159059647D01*
X195228019Y-158966515D01*
X195109485Y-158847981D01*
X195016353Y-158708600D01*
X194952203Y-158553728D01*
X194919500Y-158389316D01*
X194919500Y-158221684D01*
X194952203Y-158057272D01*
X195016353Y-157902400D01*
X195109485Y-157763019D01*
X195228019Y-157644485D01*
X195367400Y-157551353D01*
X195522272Y-157487203D01*
X195686684Y-157454500D01*
X195854316Y-157454500D01*
X196018728Y-157487203D01*
X196018728Y-157487203D01*
G37*
G36*
X193478728Y-157487203D02*
G01*
X193633600Y-157551353D01*
X193772981Y-157644485D01*
X193891515Y-157763019D01*
X193984647Y-157902400D01*
X194048797Y-158057272D01*
X194081500Y-158221684D01*
X194081500Y-158389316D01*
X194048797Y-158553728D01*
X193984647Y-158708600D01*
X193891515Y-158847981D01*
X193772981Y-158966515D01*
X193633600Y-159059647D01*
X193478728Y-159123797D01*
X193314316Y-159156500D01*
X193146684Y-159156500D01*
X192982272Y-159123797D01*
X192827400Y-159059647D01*
X192688019Y-158966515D01*
X192569485Y-158847981D01*
X192476353Y-158708600D01*
X192412203Y-158553728D01*
X192379500Y-158389316D01*
X192379500Y-158221684D01*
X192412203Y-158057272D01*
X192476353Y-157902400D01*
X192569485Y-157763019D01*
X192688019Y-157644485D01*
X192827400Y-157551353D01*
X192982272Y-157487203D01*
X193146684Y-157454500D01*
X193314316Y-157454500D01*
X193478728Y-157487203D01*
X193478728Y-157487203D01*
G37*
G36*
X190938728Y-157487203D02*
G01*
X191093600Y-157551353D01*
X191232981Y-157644485D01*
X191351515Y-157763019D01*
X191444647Y-157902400D01*
X191508797Y-158057272D01*
X191541500Y-158221684D01*
X191541500Y-158389316D01*
X191508797Y-158553728D01*
X191444647Y-158708600D01*
X191351515Y-158847981D01*
X191232981Y-158966515D01*
X191093600Y-159059647D01*
X190938728Y-159123797D01*
X190774316Y-159156500D01*
X190606684Y-159156500D01*
X190442272Y-159123797D01*
X190287400Y-159059647D01*
X190148019Y-158966515D01*
X190029485Y-158847981D01*
X189936353Y-158708600D01*
X189872203Y-158553728D01*
X189839500Y-158389316D01*
X189839500Y-158221684D01*
X189872203Y-158057272D01*
X189936353Y-157902400D01*
X190029485Y-157763019D01*
X190148019Y-157644485D01*
X190287400Y-157551353D01*
X190442272Y-157487203D01*
X190606684Y-157454500D01*
X190774316Y-157454500D01*
X190938728Y-157487203D01*
X190938728Y-157487203D01*
G37*
G36*
X159168395Y-151127546D02*
G01*
X159341466Y-151199234D01*
X159341467Y-151199235D01*
X159497227Y-151303310D01*
X159629690Y-151435773D01*
X159629691Y-151435775D01*
X159733766Y-151591534D01*
X159805454Y-151764605D01*
X159842000Y-151948333D01*
X159842000Y-152135667D01*
X159805454Y-152319395D01*
X159733766Y-152492466D01*
X159733765Y-152492467D01*
X159629690Y-152648227D01*
X159497227Y-152780690D01*
X159418818Y-152833081D01*
X159341466Y-152884766D01*
X159168395Y-152956454D01*
X158984667Y-152993000D01*
X158797333Y-152993000D01*
X158613605Y-152956454D01*
X158440534Y-152884766D01*
X158363182Y-152833081D01*
X158284773Y-152780690D01*
X158152310Y-152648227D01*
X158048235Y-152492467D01*
X158048234Y-152492466D01*
X157976546Y-152319395D01*
X157940000Y-152135667D01*
X157940000Y-151948333D01*
X157976546Y-151764605D01*
X158048234Y-151591534D01*
X158152309Y-151435775D01*
X158152310Y-151435773D01*
X158284773Y-151303310D01*
X158440533Y-151199235D01*
X158440534Y-151199234D01*
X158613605Y-151127546D01*
X158797333Y-151091000D01*
X158984667Y-151091000D01*
X159168395Y-151127546D01*
X159168395Y-151127546D01*
G37*
G36*
X154723395Y-151127546D02*
G01*
X154896466Y-151199234D01*
X154896467Y-151199235D01*
X155052227Y-151303310D01*
X155184690Y-151435773D01*
X155184691Y-151435775D01*
X155288766Y-151591534D01*
X155360454Y-151764605D01*
X155397000Y-151948333D01*
X155397000Y-152135667D01*
X155360454Y-152319395D01*
X155288766Y-152492466D01*
X155288765Y-152492467D01*
X155184690Y-152648227D01*
X155052227Y-152780690D01*
X154973818Y-152833081D01*
X154896466Y-152884766D01*
X154723395Y-152956454D01*
X154539667Y-152993000D01*
X154352333Y-152993000D01*
X154168605Y-152956454D01*
X153995534Y-152884766D01*
X153918182Y-152833081D01*
X153839773Y-152780690D01*
X153707310Y-152648227D01*
X153603235Y-152492467D01*
X153603234Y-152492466D01*
X153531546Y-152319395D01*
X153495000Y-152135667D01*
X153495000Y-151948333D01*
X153531546Y-151764605D01*
X153603234Y-151591534D01*
X153707309Y-151435775D01*
X153707310Y-151435773D01*
X153839773Y-151303310D01*
X153995533Y-151199235D01*
X153995534Y-151199234D01*
X154168605Y-151127546D01*
X154352333Y-151091000D01*
X154539667Y-151091000D01*
X154723395Y-151127546D01*
X154723395Y-151127546D01*
G37*
G36*
X308545000Y-152560000D02*
G01*
X306643000Y-152560000D01*
X306643000Y-150658000D01*
X308545000Y-150658000D01*
X308545000Y-152560000D01*
X308545000Y-152560000D01*
G37*
G36*
X304561395Y-150694546D02*
G01*
X304734466Y-150766234D01*
X304734467Y-150766235D01*
X304890227Y-150870310D01*
X305022690Y-151002773D01*
X305022691Y-151002775D01*
X305126766Y-151158534D01*
X305198454Y-151331605D01*
X305235000Y-151515333D01*
X305235000Y-151702667D01*
X305198454Y-151886395D01*
X305126766Y-152059466D01*
X305126765Y-152059467D01*
X305022690Y-152215227D01*
X304890227Y-152347690D01*
X304811818Y-152400081D01*
X304734466Y-152451766D01*
X304561395Y-152523454D01*
X304377667Y-152560000D01*
X304190333Y-152560000D01*
X304006605Y-152523454D01*
X303833534Y-152451766D01*
X303756182Y-152400081D01*
X303677773Y-152347690D01*
X303545310Y-152215227D01*
X303441235Y-152059467D01*
X303441234Y-152059466D01*
X303369546Y-151886395D01*
X303333000Y-151702667D01*
X303333000Y-151515333D01*
X303369546Y-151331605D01*
X303441234Y-151158534D01*
X303545309Y-151002775D01*
X303545310Y-151002773D01*
X303677773Y-150870310D01*
X303833533Y-150766235D01*
X303833534Y-150766234D01*
X304006605Y-150694546D01*
X304190333Y-150658000D01*
X304377667Y-150658000D01*
X304561395Y-150694546D01*
X304561395Y-150694546D01*
G37*
G36*
X159842000Y-150453000D02*
G01*
X157940000Y-150453000D01*
X157940000Y-148551000D01*
X159842000Y-148551000D01*
X159842000Y-150453000D01*
X159842000Y-150453000D01*
G37*
G36*
X155397000Y-150453000D02*
G01*
X153495000Y-150453000D01*
X153495000Y-148551000D01*
X155397000Y-148551000D01*
X155397000Y-150453000D01*
X155397000Y-150453000D01*
G37*
G36*
X307871395Y-148154546D02*
G01*
X308044466Y-148226234D01*
X308044467Y-148226235D01*
X308200227Y-148330310D01*
X308332690Y-148462773D01*
X308332691Y-148462775D01*
X308436766Y-148618534D01*
X308508454Y-148791605D01*
X308545000Y-148975333D01*
X308545000Y-149162667D01*
X308508454Y-149346395D01*
X308436766Y-149519466D01*
X308436765Y-149519467D01*
X308332690Y-149675227D01*
X308200227Y-149807690D01*
X308121818Y-149860081D01*
X308044466Y-149911766D01*
X307871395Y-149983454D01*
X307687667Y-150020000D01*
X307500333Y-150020000D01*
X307316605Y-149983454D01*
X307143534Y-149911766D01*
X307066182Y-149860081D01*
X306987773Y-149807690D01*
X306855310Y-149675227D01*
X306751235Y-149519467D01*
X306751234Y-149519466D01*
X306679546Y-149346395D01*
X306643000Y-149162667D01*
X306643000Y-148975333D01*
X306679546Y-148791605D01*
X306751234Y-148618534D01*
X306855309Y-148462775D01*
X306855310Y-148462773D01*
X306987773Y-148330310D01*
X307143533Y-148226235D01*
X307143534Y-148226234D01*
X307316605Y-148154546D01*
X307500333Y-148118000D01*
X307687667Y-148118000D01*
X307871395Y-148154546D01*
X307871395Y-148154546D01*
G37*
G36*
X305235000Y-150020000D02*
G01*
X303333000Y-150020000D01*
X303333000Y-148118000D01*
X305235000Y-148118000D01*
X305235000Y-150020000D01*
X305235000Y-150020000D01*
G37*
G36*
X229267376Y-143097764D02*
G01*
X229420627Y-143144252D01*
X229420630Y-143144253D01*
X229561863Y-143219744D01*
X229685659Y-143321341D01*
X229787256Y-143445137D01*
X229862747Y-143586370D01*
X229862748Y-143586373D01*
X229909236Y-143739624D01*
X229921000Y-143859067D01*
X229921000Y-144938933D01*
X229909236Y-145058376D01*
X229862748Y-145211626D01*
X229862747Y-145211630D01*
X229787256Y-145352863D01*
X229685659Y-145476659D01*
X229561863Y-145578256D01*
X229420629Y-145653747D01*
X229420626Y-145653748D01*
X229267375Y-145700236D01*
X229108000Y-145715933D01*
X228948624Y-145700236D01*
X228795373Y-145653748D01*
X228795370Y-145653747D01*
X228654137Y-145578256D01*
X228530341Y-145476659D01*
X228428744Y-145352863D01*
X228353253Y-145211629D01*
X228353252Y-145211626D01*
X228306764Y-145058375D01*
X228295000Y-144938932D01*
X228295001Y-143859067D01*
X228306765Y-143739624D01*
X228353253Y-143586373D01*
X228353254Y-143586370D01*
X228428745Y-143445137D01*
X228530342Y-143321341D01*
X228654138Y-143219744D01*
X228795371Y-143144253D01*
X228795374Y-143144252D01*
X228948625Y-143097764D01*
X229108000Y-143082067D01*
X229267376Y-143097764D01*
X229267376Y-143097764D01*
G37*
G36*
X224187376Y-143097764D02*
G01*
X224340627Y-143144252D01*
X224340630Y-143144253D01*
X224481863Y-143219744D01*
X224605659Y-143321341D01*
X224707256Y-143445137D01*
X224782747Y-143586370D01*
X224782748Y-143586373D01*
X224829236Y-143739624D01*
X224841000Y-143859067D01*
X224841000Y-144938933D01*
X224829236Y-145058376D01*
X224782748Y-145211626D01*
X224782747Y-145211630D01*
X224707256Y-145352863D01*
X224605659Y-145476659D01*
X224481863Y-145578256D01*
X224340629Y-145653747D01*
X224340626Y-145653748D01*
X224187375Y-145700236D01*
X224028000Y-145715933D01*
X223868624Y-145700236D01*
X223715373Y-145653748D01*
X223715370Y-145653747D01*
X223574137Y-145578256D01*
X223450341Y-145476659D01*
X223348744Y-145352863D01*
X223273253Y-145211629D01*
X223273252Y-145211626D01*
X223226764Y-145058375D01*
X223215000Y-144938932D01*
X223215001Y-143859067D01*
X223226765Y-143739624D01*
X223273253Y-143586373D01*
X223273254Y-143586370D01*
X223348745Y-143445137D01*
X223450342Y-143321341D01*
X223574138Y-143219744D01*
X223715371Y-143144253D01*
X223715374Y-143144252D01*
X223868625Y-143097764D01*
X224028000Y-143082067D01*
X224187376Y-143097764D01*
X224187376Y-143097764D01*
G37*
G36*
X226727376Y-143097764D02*
G01*
X226880627Y-143144252D01*
X226880630Y-143144253D01*
X227021863Y-143219744D01*
X227145659Y-143321341D01*
X227247256Y-143445137D01*
X227322747Y-143586370D01*
X227322748Y-143586373D01*
X227369236Y-143739624D01*
X227381000Y-143859067D01*
X227381000Y-144938933D01*
X227369236Y-145058376D01*
X227322748Y-145211626D01*
X227322747Y-145211630D01*
X227247256Y-145352863D01*
X227145659Y-145476659D01*
X227021863Y-145578256D01*
X226880629Y-145653747D01*
X226880626Y-145653748D01*
X226727375Y-145700236D01*
X226568000Y-145715933D01*
X226408624Y-145700236D01*
X226255373Y-145653748D01*
X226255370Y-145653747D01*
X226114137Y-145578256D01*
X225990341Y-145476659D01*
X225888744Y-145352863D01*
X225813253Y-145211629D01*
X225813252Y-145211626D01*
X225766764Y-145058375D01*
X225755000Y-144938932D01*
X225755001Y-143859067D01*
X225766765Y-143739624D01*
X225813253Y-143586373D01*
X225813254Y-143586370D01*
X225888745Y-143445137D01*
X225990342Y-143321341D01*
X226114138Y-143219744D01*
X226255371Y-143144253D01*
X226255374Y-143144252D01*
X226408625Y-143097764D01*
X226568000Y-143082067D01*
X226727376Y-143097764D01*
X226727376Y-143097764D01*
G37*
G36*
X208718728Y-142247203D02*
G01*
X208873600Y-142311353D01*
X209012981Y-142404485D01*
X209131515Y-142523019D01*
X209224647Y-142662400D01*
X209288797Y-142817272D01*
X209321500Y-142981684D01*
X209321500Y-143149316D01*
X209288797Y-143313728D01*
X209224647Y-143468600D01*
X209131515Y-143607981D01*
X209012981Y-143726515D01*
X208873600Y-143819647D01*
X208718728Y-143883797D01*
X208554316Y-143916500D01*
X208386684Y-143916500D01*
X208222272Y-143883797D01*
X208067400Y-143819647D01*
X207928019Y-143726515D01*
X207809485Y-143607981D01*
X207716353Y-143468600D01*
X207652203Y-143313728D01*
X207619500Y-143149316D01*
X207619500Y-142981684D01*
X207652203Y-142817272D01*
X207716353Y-142662400D01*
X207809485Y-142523019D01*
X207928019Y-142404485D01*
X208067400Y-142311353D01*
X208222272Y-142247203D01*
X208386684Y-142214500D01*
X208554316Y-142214500D01*
X208718728Y-142247203D01*
X208718728Y-142247203D01*
G37*
G36*
X188398728Y-142247203D02*
G01*
X188553600Y-142311353D01*
X188692981Y-142404485D01*
X188811515Y-142523019D01*
X188904647Y-142662400D01*
X188968797Y-142817272D01*
X189001500Y-142981684D01*
X189001500Y-143149316D01*
X188968797Y-143313728D01*
X188904647Y-143468600D01*
X188811515Y-143607981D01*
X188692981Y-143726515D01*
X188553600Y-143819647D01*
X188398728Y-143883797D01*
X188234316Y-143916500D01*
X188066684Y-143916500D01*
X187902272Y-143883797D01*
X187747400Y-143819647D01*
X187608019Y-143726515D01*
X187489485Y-143607981D01*
X187396353Y-143468600D01*
X187332203Y-143313728D01*
X187299500Y-143149316D01*
X187299500Y-142981684D01*
X187332203Y-142817272D01*
X187396353Y-142662400D01*
X187489485Y-142523019D01*
X187608019Y-142404485D01*
X187747400Y-142311353D01*
X187902272Y-142247203D01*
X188066684Y-142214500D01*
X188234316Y-142214500D01*
X188398728Y-142247203D01*
X188398728Y-142247203D01*
G37*
G36*
X190938728Y-142247203D02*
G01*
X191093600Y-142311353D01*
X191232981Y-142404485D01*
X191351515Y-142523019D01*
X191444647Y-142662400D01*
X191508797Y-142817272D01*
X191541500Y-142981684D01*
X191541500Y-143149316D01*
X191508797Y-143313728D01*
X191444647Y-143468600D01*
X191351515Y-143607981D01*
X191232981Y-143726515D01*
X191093600Y-143819647D01*
X190938728Y-143883797D01*
X190774316Y-143916500D01*
X190606684Y-143916500D01*
X190442272Y-143883797D01*
X190287400Y-143819647D01*
X190148019Y-143726515D01*
X190029485Y-143607981D01*
X189936353Y-143468600D01*
X189872203Y-143313728D01*
X189839500Y-143149316D01*
X189839500Y-142981684D01*
X189872203Y-142817272D01*
X189936353Y-142662400D01*
X190029485Y-142523019D01*
X190148019Y-142404485D01*
X190287400Y-142311353D01*
X190442272Y-142247203D01*
X190606684Y-142214500D01*
X190774316Y-142214500D01*
X190938728Y-142247203D01*
X190938728Y-142247203D01*
G37*
G36*
X193478728Y-142247203D02*
G01*
X193633600Y-142311353D01*
X193772981Y-142404485D01*
X193891515Y-142523019D01*
X193984647Y-142662400D01*
X194048797Y-142817272D01*
X194081500Y-142981684D01*
X194081500Y-143149316D01*
X194048797Y-143313728D01*
X193984647Y-143468600D01*
X193891515Y-143607981D01*
X193772981Y-143726515D01*
X193633600Y-143819647D01*
X193478728Y-143883797D01*
X193314316Y-143916500D01*
X193146684Y-143916500D01*
X192982272Y-143883797D01*
X192827400Y-143819647D01*
X192688019Y-143726515D01*
X192569485Y-143607981D01*
X192476353Y-143468600D01*
X192412203Y-143313728D01*
X192379500Y-143149316D01*
X192379500Y-142981684D01*
X192412203Y-142817272D01*
X192476353Y-142662400D01*
X192569485Y-142523019D01*
X192688019Y-142404485D01*
X192827400Y-142311353D01*
X192982272Y-142247203D01*
X193146684Y-142214500D01*
X193314316Y-142214500D01*
X193478728Y-142247203D01*
X193478728Y-142247203D01*
G37*
G36*
X196018728Y-142247203D02*
G01*
X196173600Y-142311353D01*
X196312981Y-142404485D01*
X196431515Y-142523019D01*
X196524647Y-142662400D01*
X196588797Y-142817272D01*
X196621500Y-142981684D01*
X196621500Y-143149316D01*
X196588797Y-143313728D01*
X196524647Y-143468600D01*
X196431515Y-143607981D01*
X196312981Y-143726515D01*
X196173600Y-143819647D01*
X196018728Y-143883797D01*
X195854316Y-143916500D01*
X195686684Y-143916500D01*
X195522272Y-143883797D01*
X195367400Y-143819647D01*
X195228019Y-143726515D01*
X195109485Y-143607981D01*
X195016353Y-143468600D01*
X194952203Y-143313728D01*
X194919500Y-143149316D01*
X194919500Y-142981684D01*
X194952203Y-142817272D01*
X195016353Y-142662400D01*
X195109485Y-142523019D01*
X195228019Y-142404485D01*
X195367400Y-142311353D01*
X195522272Y-142247203D01*
X195686684Y-142214500D01*
X195854316Y-142214500D01*
X196018728Y-142247203D01*
X196018728Y-142247203D01*
G37*
G36*
X198558728Y-142247203D02*
G01*
X198713600Y-142311353D01*
X198852981Y-142404485D01*
X198971515Y-142523019D01*
X199064647Y-142662400D01*
X199128797Y-142817272D01*
X199161500Y-142981684D01*
X199161500Y-143149316D01*
X199128797Y-143313728D01*
X199064647Y-143468600D01*
X198971515Y-143607981D01*
X198852981Y-143726515D01*
X198713600Y-143819647D01*
X198558728Y-143883797D01*
X198394316Y-143916500D01*
X198226684Y-143916500D01*
X198062272Y-143883797D01*
X197907400Y-143819647D01*
X197768019Y-143726515D01*
X197649485Y-143607981D01*
X197556353Y-143468600D01*
X197492203Y-143313728D01*
X197459500Y-143149316D01*
X197459500Y-142981684D01*
X197492203Y-142817272D01*
X197556353Y-142662400D01*
X197649485Y-142523019D01*
X197768019Y-142404485D01*
X197907400Y-142311353D01*
X198062272Y-142247203D01*
X198226684Y-142214500D01*
X198394316Y-142214500D01*
X198558728Y-142247203D01*
X198558728Y-142247203D01*
G37*
G36*
X206178728Y-142247203D02*
G01*
X206333600Y-142311353D01*
X206472981Y-142404485D01*
X206591515Y-142523019D01*
X206684647Y-142662400D01*
X206748797Y-142817272D01*
X206781500Y-142981684D01*
X206781500Y-143149316D01*
X206748797Y-143313728D01*
X206684647Y-143468600D01*
X206591515Y-143607981D01*
X206472981Y-143726515D01*
X206333600Y-143819647D01*
X206178728Y-143883797D01*
X206014316Y-143916500D01*
X205846684Y-143916500D01*
X205682272Y-143883797D01*
X205527400Y-143819647D01*
X205388019Y-143726515D01*
X205269485Y-143607981D01*
X205176353Y-143468600D01*
X205112203Y-143313728D01*
X205079500Y-143149316D01*
X205079500Y-142981684D01*
X205112203Y-142817272D01*
X205176353Y-142662400D01*
X205269485Y-142523019D01*
X205388019Y-142404485D01*
X205527400Y-142311353D01*
X205682272Y-142247203D01*
X205846684Y-142214500D01*
X206014316Y-142214500D01*
X206178728Y-142247203D01*
X206178728Y-142247203D01*
G37*
G36*
X211258728Y-142247203D02*
G01*
X211413600Y-142311353D01*
X211552981Y-142404485D01*
X211671515Y-142523019D01*
X211764647Y-142662400D01*
X211828797Y-142817272D01*
X211861500Y-142981684D01*
X211861500Y-143149316D01*
X211828797Y-143313728D01*
X211764647Y-143468600D01*
X211671515Y-143607981D01*
X211552981Y-143726515D01*
X211413600Y-143819647D01*
X211258728Y-143883797D01*
X211094316Y-143916500D01*
X210926684Y-143916500D01*
X210762272Y-143883797D01*
X210607400Y-143819647D01*
X210468019Y-143726515D01*
X210349485Y-143607981D01*
X210256353Y-143468600D01*
X210192203Y-143313728D01*
X210159500Y-143149316D01*
X210159500Y-142981684D01*
X210192203Y-142817272D01*
X210256353Y-142662400D01*
X210349485Y-142523019D01*
X210468019Y-142404485D01*
X210607400Y-142311353D01*
X210762272Y-142247203D01*
X210926684Y-142214500D01*
X211094316Y-142214500D01*
X211258728Y-142247203D01*
X211258728Y-142247203D01*
G37*
G36*
X213798728Y-142247203D02*
G01*
X213953600Y-142311353D01*
X214092981Y-142404485D01*
X214211515Y-142523019D01*
X214304647Y-142662400D01*
X214368797Y-142817272D01*
X214401500Y-142981684D01*
X214401500Y-143149316D01*
X214368797Y-143313728D01*
X214304647Y-143468600D01*
X214211515Y-143607981D01*
X214092981Y-143726515D01*
X213953600Y-143819647D01*
X213798728Y-143883797D01*
X213634316Y-143916500D01*
X213466684Y-143916500D01*
X213302272Y-143883797D01*
X213147400Y-143819647D01*
X213008019Y-143726515D01*
X212889485Y-143607981D01*
X212796353Y-143468600D01*
X212732203Y-143313728D01*
X212699500Y-143149316D01*
X212699500Y-142981684D01*
X212732203Y-142817272D01*
X212796353Y-142662400D01*
X212889485Y-142523019D01*
X213008019Y-142404485D01*
X213147400Y-142311353D01*
X213302272Y-142247203D01*
X213466684Y-142214500D01*
X213634316Y-142214500D01*
X213798728Y-142247203D01*
X213798728Y-142247203D01*
G37*
G36*
X216338728Y-142247203D02*
G01*
X216493600Y-142311353D01*
X216632981Y-142404485D01*
X216751515Y-142523019D01*
X216844647Y-142662400D01*
X216908797Y-142817272D01*
X216941500Y-142981684D01*
X216941500Y-143149316D01*
X216908797Y-143313728D01*
X216844647Y-143468600D01*
X216751515Y-143607981D01*
X216632981Y-143726515D01*
X216493600Y-143819647D01*
X216338728Y-143883797D01*
X216174316Y-143916500D01*
X216006684Y-143916500D01*
X215842272Y-143883797D01*
X215687400Y-143819647D01*
X215548019Y-143726515D01*
X215429485Y-143607981D01*
X215336353Y-143468600D01*
X215272203Y-143313728D01*
X215239500Y-143149316D01*
X215239500Y-142981684D01*
X215272203Y-142817272D01*
X215336353Y-142662400D01*
X215429485Y-142523019D01*
X215548019Y-142404485D01*
X215687400Y-142311353D01*
X215842272Y-142247203D01*
X216006684Y-142214500D01*
X216174316Y-142214500D01*
X216338728Y-142247203D01*
X216338728Y-142247203D01*
G37*
G36*
X203638728Y-142247203D02*
G01*
X203793600Y-142311353D01*
X203932981Y-142404485D01*
X204051515Y-142523019D01*
X204144647Y-142662400D01*
X204208797Y-142817272D01*
X204241500Y-142981684D01*
X204241500Y-143149316D01*
X204208797Y-143313728D01*
X204144647Y-143468600D01*
X204051515Y-143607981D01*
X203932981Y-143726515D01*
X203793600Y-143819647D01*
X203638728Y-143883797D01*
X203474316Y-143916500D01*
X203306684Y-143916500D01*
X203142272Y-143883797D01*
X202987400Y-143819647D01*
X202848019Y-143726515D01*
X202729485Y-143607981D01*
X202636353Y-143468600D01*
X202572203Y-143313728D01*
X202539500Y-143149316D01*
X202539500Y-142981684D01*
X202572203Y-142817272D01*
X202636353Y-142662400D01*
X202729485Y-142523019D01*
X202848019Y-142404485D01*
X202987400Y-142311353D01*
X203142272Y-142247203D01*
X203306684Y-142214500D01*
X203474316Y-142214500D01*
X203638728Y-142247203D01*
X203638728Y-142247203D01*
G37*
G36*
X201098728Y-142247203D02*
G01*
X201253600Y-142311353D01*
X201392981Y-142404485D01*
X201511515Y-142523019D01*
X201604647Y-142662400D01*
X201668797Y-142817272D01*
X201701500Y-142981684D01*
X201701500Y-143149316D01*
X201668797Y-143313728D01*
X201604647Y-143468600D01*
X201511515Y-143607981D01*
X201392981Y-143726515D01*
X201253600Y-143819647D01*
X201098728Y-143883797D01*
X200934316Y-143916500D01*
X200766684Y-143916500D01*
X200602272Y-143883797D01*
X200447400Y-143819647D01*
X200308019Y-143726515D01*
X200189485Y-143607981D01*
X200096353Y-143468600D01*
X200032203Y-143313728D01*
X199999500Y-143149316D01*
X199999500Y-142981684D01*
X200032203Y-142817272D01*
X200096353Y-142662400D01*
X200189485Y-142523019D01*
X200308019Y-142404485D01*
X200447400Y-142311353D01*
X200602272Y-142247203D01*
X200766684Y-142214500D01*
X200934316Y-142214500D01*
X201098728Y-142247203D01*
X201098728Y-142247203D01*
G37*
G36*
X234708000Y-143903000D02*
G01*
X232906000Y-143903000D01*
X232906000Y-142101000D01*
X234708000Y-142101000D01*
X234708000Y-143903000D01*
X234708000Y-143903000D01*
G37*
G36*
X156690905Y-138670789D02*
G01*
X156989350Y-138730153D01*
X157317122Y-138865921D01*
X157612109Y-139063025D01*
X157862975Y-139313891D01*
X158060079Y-139608878D01*
X158195847Y-139936650D01*
X158265060Y-140284611D01*
X158265060Y-140639389D01*
X158195847Y-140987350D01*
X158060079Y-141315122D01*
X157862975Y-141610109D01*
X157612109Y-141860975D01*
X157317122Y-142058079D01*
X156989350Y-142193847D01*
X156721108Y-142247203D01*
X156641390Y-142263060D01*
X156286610Y-142263060D01*
X156206892Y-142247203D01*
X155938650Y-142193847D01*
X155610878Y-142058079D01*
X155315891Y-141860975D01*
X155065025Y-141610109D01*
X154867921Y-141315122D01*
X154732153Y-140987350D01*
X154662940Y-140639389D01*
X154662940Y-140284611D01*
X154732153Y-139936650D01*
X154867921Y-139608878D01*
X155065025Y-139313891D01*
X155315891Y-139063025D01*
X155610878Y-138865921D01*
X155938650Y-138730153D01*
X156237095Y-138670789D01*
X156286610Y-138660940D01*
X156641390Y-138660940D01*
X156690905Y-138670789D01*
X156690905Y-138670789D01*
G37*
G36*
X161770905Y-138670789D02*
G01*
X162069350Y-138730153D01*
X162397122Y-138865921D01*
X162692109Y-139063025D01*
X162942975Y-139313891D01*
X163140079Y-139608878D01*
X163275847Y-139936650D01*
X163345060Y-140284611D01*
X163345060Y-140639389D01*
X163275847Y-140987350D01*
X163140079Y-141315122D01*
X162942975Y-141610109D01*
X162692109Y-141860975D01*
X162397122Y-142058079D01*
X162069350Y-142193847D01*
X161801108Y-142247203D01*
X161721390Y-142263060D01*
X161366610Y-142263060D01*
X161286892Y-142247203D01*
X161018650Y-142193847D01*
X160690878Y-142058079D01*
X160395891Y-141860975D01*
X160145025Y-141610109D01*
X159947921Y-141315122D01*
X159812153Y-140987350D01*
X159742940Y-140639389D01*
X159742940Y-140284611D01*
X159812153Y-139936650D01*
X159947921Y-139608878D01*
X160145025Y-139313891D01*
X160395891Y-139063025D01*
X160690878Y-138865921D01*
X161018650Y-138730153D01*
X161317095Y-138670789D01*
X161366610Y-138660940D01*
X161721390Y-138660940D01*
X161770905Y-138670789D01*
X161770905Y-138670789D01*
G37*
G36*
X166850905Y-138670789D02*
G01*
X167149350Y-138730153D01*
X167477122Y-138865921D01*
X167772109Y-139063025D01*
X168022975Y-139313891D01*
X168220079Y-139608878D01*
X168355847Y-139936650D01*
X168425060Y-140284611D01*
X168425060Y-140639389D01*
X168355847Y-140987350D01*
X168220079Y-141315122D01*
X168022975Y-141610109D01*
X167772109Y-141860975D01*
X167477122Y-142058079D01*
X167149350Y-142193847D01*
X166881108Y-142247203D01*
X166801390Y-142263060D01*
X166446610Y-142263060D01*
X166366892Y-142247203D01*
X166098650Y-142193847D01*
X165770878Y-142058079D01*
X165475891Y-141860975D01*
X165225025Y-141610109D01*
X165027921Y-141315122D01*
X164892153Y-140987350D01*
X164822940Y-140639389D01*
X164822940Y-140284611D01*
X164892153Y-139936650D01*
X165027921Y-139608878D01*
X165225025Y-139313891D01*
X165475891Y-139063025D01*
X165770878Y-138865921D01*
X166098650Y-138730153D01*
X166397095Y-138670789D01*
X166446610Y-138660940D01*
X166801390Y-138660940D01*
X166850905Y-138670789D01*
X166850905Y-138670789D01*
G37*
G36*
X233917442Y-139567518D02*
G01*
X233983627Y-139574037D01*
X234153466Y-139625557D01*
X234309991Y-139709222D01*
X234345729Y-139738552D01*
X234447186Y-139821814D01*
X234530448Y-139923271D01*
X234559778Y-139959009D01*
X234643443Y-140115534D01*
X234694963Y-140285373D01*
X234712359Y-140462000D01*
X234694963Y-140638627D01*
X234643443Y-140808466D01*
X234559778Y-140964991D01*
X234541429Y-140987349D01*
X234447186Y-141102186D01*
X234345729Y-141185448D01*
X234309991Y-141214778D01*
X234153466Y-141298443D01*
X233983627Y-141349963D01*
X233917442Y-141356482D01*
X233851260Y-141363000D01*
X233762740Y-141363000D01*
X233696558Y-141356482D01*
X233630373Y-141349963D01*
X233460534Y-141298443D01*
X233304009Y-141214778D01*
X233268271Y-141185448D01*
X233166814Y-141102186D01*
X233072571Y-140987349D01*
X233054222Y-140964991D01*
X232970557Y-140808466D01*
X232919037Y-140638627D01*
X232901641Y-140462000D01*
X232919037Y-140285373D01*
X232970557Y-140115534D01*
X233054222Y-139959009D01*
X233083552Y-139923271D01*
X233166814Y-139821814D01*
X233268271Y-139738552D01*
X233304009Y-139709222D01*
X233460534Y-139625557D01*
X233630373Y-139574037D01*
X233696558Y-139567518D01*
X233762740Y-139561000D01*
X233851260Y-139561000D01*
X233917442Y-139567518D01*
X233917442Y-139567518D01*
G37*
G36*
X206728905Y-72630789D02*
G01*
X207027350Y-72690153D01*
X207355122Y-72825921D01*
X207650109Y-73023025D01*
X207900975Y-73273891D01*
X208098079Y-73568878D01*
X208233847Y-73896650D01*
X208303060Y-74244611D01*
X208303060Y-74599389D01*
X208233847Y-74947350D01*
X208098079Y-75275122D01*
X207900975Y-75570109D01*
X207650109Y-75820975D01*
X207355122Y-76018079D01*
X207027350Y-76153847D01*
X206728905Y-76213211D01*
X206679390Y-76223060D01*
X206324610Y-76223060D01*
X206275095Y-76213211D01*
X205976650Y-76153847D01*
X205648878Y-76018079D01*
X205353891Y-75820975D01*
X205103025Y-75570109D01*
X204905921Y-75275122D01*
X204770153Y-74947350D01*
X204700940Y-74599389D01*
X204700940Y-74244611D01*
X204770153Y-73896650D01*
X204905921Y-73568878D01*
X205103025Y-73273891D01*
X205353891Y-73023025D01*
X205648878Y-72825921D01*
X205976650Y-72690153D01*
X206275095Y-72630789D01*
X206324610Y-72620940D01*
X206679390Y-72620940D01*
X206728905Y-72630789D01*
X206728905Y-72630789D01*
G37*
G36*
X165072905Y-71741789D02*
G01*
X165371350Y-71801153D01*
X165699122Y-71936921D01*
X165994109Y-72134025D01*
X166244975Y-72384891D01*
X166442079Y-72679878D01*
X166577847Y-73007650D01*
X166647060Y-73355611D01*
X166647060Y-73710389D01*
X166577847Y-74058350D01*
X166442079Y-74386122D01*
X166244975Y-74681109D01*
X165994109Y-74931975D01*
X165699122Y-75129079D01*
X165371350Y-75264847D01*
X165072905Y-75324211D01*
X165023390Y-75334060D01*
X164668610Y-75334060D01*
X164619095Y-75324211D01*
X164320650Y-75264847D01*
X163992878Y-75129079D01*
X163697891Y-74931975D01*
X163447025Y-74681109D01*
X163249921Y-74386122D01*
X163114153Y-74058350D01*
X163044940Y-73710389D01*
X163044940Y-73355611D01*
X163114153Y-73007650D01*
X163249921Y-72679878D01*
X163447025Y-72384891D01*
X163697891Y-72134025D01*
X163992878Y-71936921D01*
X164320650Y-71801153D01*
X164619095Y-71741789D01*
X164668610Y-71731940D01*
X165023390Y-71731940D01*
X165072905Y-71741789D01*
X165072905Y-71741789D01*
G37*
G36*
X206728905Y-67550789D02*
G01*
X207027350Y-67610153D01*
X207355122Y-67745921D01*
X207650109Y-67943025D01*
X207900975Y-68193891D01*
X208098079Y-68488878D01*
X208233847Y-68816650D01*
X208303060Y-69164611D01*
X208303060Y-69519389D01*
X208233847Y-69867350D01*
X208098079Y-70195122D01*
X207900975Y-70490109D01*
X207650109Y-70740975D01*
X207355122Y-70938079D01*
X207027350Y-71073847D01*
X206728905Y-71133211D01*
X206679390Y-71143060D01*
X206324610Y-71143060D01*
X206275095Y-71133211D01*
X205976650Y-71073847D01*
X205648878Y-70938079D01*
X205353891Y-70740975D01*
X205103025Y-70490109D01*
X204905921Y-70195122D01*
X204770153Y-69867350D01*
X204700940Y-69519389D01*
X204700940Y-69164611D01*
X204770153Y-68816650D01*
X204905921Y-68488878D01*
X205103025Y-68193891D01*
X205353891Y-67943025D01*
X205648878Y-67745921D01*
X205976650Y-67610153D01*
X206275095Y-67550789D01*
X206324610Y-67540940D01*
X206679390Y-67540940D01*
X206728905Y-67550789D01*
X206728905Y-67550789D01*
G37*
G36*
X165072905Y-66661789D02*
G01*
X165371350Y-66721153D01*
X165699122Y-66856921D01*
X165994109Y-67054025D01*
X166244975Y-67304891D01*
X166442079Y-67599878D01*
X166577847Y-67927650D01*
X166647060Y-68275611D01*
X166647060Y-68630389D01*
X166577847Y-68978350D01*
X166442079Y-69306122D01*
X166244975Y-69601109D01*
X165994109Y-69851975D01*
X165699122Y-70049079D01*
X165371350Y-70184847D01*
X165072905Y-70244211D01*
X165023390Y-70254060D01*
X164668610Y-70254060D01*
X164619095Y-70244211D01*
X164320650Y-70184847D01*
X163992878Y-70049079D01*
X163697891Y-69851975D01*
X163447025Y-69601109D01*
X163249921Y-69306122D01*
X163114153Y-68978350D01*
X163044940Y-68630389D01*
X163044940Y-68275611D01*
X163114153Y-67927650D01*
X163249921Y-67599878D01*
X163447025Y-67304891D01*
X163697891Y-67054025D01*
X163992878Y-66856921D01*
X164320650Y-66721153D01*
X164619095Y-66661789D01*
X164668610Y-66651940D01*
X165023390Y-66651940D01*
X165072905Y-66661789D01*
X165072905Y-66661789D01*
G37*
G36*
X206728905Y-62470789D02*
G01*
X207027350Y-62530153D01*
X207355122Y-62665921D01*
X207650109Y-62863025D01*
X207900975Y-63113891D01*
X208098079Y-63408878D01*
X208233847Y-63736650D01*
X208303060Y-64084611D01*
X208303060Y-64439389D01*
X208233847Y-64787350D01*
X208098079Y-65115122D01*
X207900975Y-65410109D01*
X207650109Y-65660975D01*
X207355122Y-65858079D01*
X207027350Y-65993847D01*
X206728905Y-66053211D01*
X206679390Y-66063060D01*
X206324610Y-66063060D01*
X206275095Y-66053211D01*
X205976650Y-65993847D01*
X205648878Y-65858079D01*
X205353891Y-65660975D01*
X205103025Y-65410109D01*
X204905921Y-65115122D01*
X204770153Y-64787350D01*
X204700940Y-64439389D01*
X204700940Y-64084611D01*
X204770153Y-63736650D01*
X204905921Y-63408878D01*
X205103025Y-63113891D01*
X205353891Y-62863025D01*
X205648878Y-62665921D01*
X205976650Y-62530153D01*
X206275095Y-62470789D01*
X206324610Y-62460940D01*
X206679390Y-62460940D01*
X206728905Y-62470789D01*
X206728905Y-62470789D01*
G37*
G36*
X165072905Y-61581789D02*
G01*
X165371350Y-61641153D01*
X165699122Y-61776921D01*
X165994109Y-61974025D01*
X166244975Y-62224891D01*
X166442079Y-62519878D01*
X166577847Y-62847650D01*
X166647060Y-63195611D01*
X166647060Y-63550389D01*
X166577847Y-63898350D01*
X166442079Y-64226122D01*
X166244975Y-64521109D01*
X165994109Y-64771975D01*
X165699122Y-64969079D01*
X165371350Y-65104847D01*
X165072905Y-65164211D01*
X165023390Y-65174060D01*
X164668610Y-65174060D01*
X164619095Y-65164211D01*
X164320650Y-65104847D01*
X163992878Y-64969079D01*
X163697891Y-64771975D01*
X163447025Y-64521109D01*
X163249921Y-64226122D01*
X163114153Y-63898350D01*
X163044940Y-63550389D01*
X163044940Y-63195611D01*
X163114153Y-62847650D01*
X163249921Y-62519878D01*
X163447025Y-62224891D01*
X163697891Y-61974025D01*
X163992878Y-61776921D01*
X164320650Y-61641153D01*
X164619095Y-61581789D01*
X164668610Y-61571940D01*
X165023390Y-61571940D01*
X165072905Y-61581789D01*
X165072905Y-61581789D01*
G37*
G36*
X290091395Y-39725546D02*
G01*
X290264466Y-39797234D01*
X290264467Y-39797235D01*
X290420227Y-39901310D01*
X290552690Y-40033773D01*
X290552691Y-40033775D01*
X290656766Y-40189534D01*
X290728454Y-40362605D01*
X290765000Y-40546333D01*
X290765000Y-40733667D01*
X290728454Y-40917395D01*
X290656766Y-41090466D01*
X290656765Y-41090467D01*
X290552690Y-41246227D01*
X290420227Y-41378690D01*
X290341818Y-41431081D01*
X290264466Y-41482766D01*
X290091395Y-41554454D01*
X289907667Y-41591000D01*
X289720333Y-41591000D01*
X289536605Y-41554454D01*
X289363534Y-41482766D01*
X289286182Y-41431081D01*
X289207773Y-41378690D01*
X289075310Y-41246227D01*
X288971235Y-41090467D01*
X288971234Y-41090466D01*
X288899546Y-40917395D01*
X288863000Y-40733667D01*
X288863000Y-40546333D01*
X288899546Y-40362605D01*
X288971234Y-40189534D01*
X289075309Y-40033775D01*
X289075310Y-40033773D01*
X289207773Y-39901310D01*
X289363533Y-39797235D01*
X289363534Y-39797234D01*
X289536605Y-39725546D01*
X289720333Y-39689000D01*
X289907667Y-39689000D01*
X290091395Y-39725546D01*
X290091395Y-39725546D01*
G37*
G36*
X81684395Y-38836546D02*
G01*
X81857466Y-38908234D01*
X81857467Y-38908235D01*
X82013227Y-39012310D01*
X82145690Y-39144773D01*
X82145691Y-39144775D01*
X82249766Y-39300534D01*
X82321454Y-39473605D01*
X82358000Y-39657333D01*
X82358000Y-39844667D01*
X82321454Y-40028395D01*
X82249766Y-40201466D01*
X82249765Y-40201467D01*
X82145690Y-40357227D01*
X82013227Y-40489690D01*
X81934818Y-40542081D01*
X81857466Y-40593766D01*
X81684395Y-40665454D01*
X81500667Y-40702000D01*
X81313333Y-40702000D01*
X81129605Y-40665454D01*
X80956534Y-40593766D01*
X80879182Y-40542081D01*
X80800773Y-40489690D01*
X80668310Y-40357227D01*
X80564235Y-40201467D01*
X80564234Y-40201466D01*
X80492546Y-40028395D01*
X80456000Y-39844667D01*
X80456000Y-39657333D01*
X80492546Y-39473605D01*
X80564234Y-39300534D01*
X80668309Y-39144775D01*
X80668310Y-39144773D01*
X80800773Y-39012310D01*
X80956533Y-38908235D01*
X80956534Y-38908234D01*
X81129605Y-38836546D01*
X81313333Y-38800000D01*
X81500667Y-38800000D01*
X81684395Y-38836546D01*
X81684395Y-38836546D01*
G37*
G36*
X296670487Y-38118996D02*
G01*
X296907253Y-38217068D01*
X296907255Y-38217069D01*
X297110482Y-38352861D01*
X297120339Y-38359447D01*
X297301553Y-38540661D01*
X297443932Y-38753747D01*
X297542004Y-38990513D01*
X297592000Y-39241861D01*
X297592000Y-39498139D01*
X297542004Y-39749487D01*
X297443932Y-39986253D01*
X297443931Y-39986255D01*
X297301553Y-40199339D01*
X297120339Y-40380553D01*
X296907255Y-40522931D01*
X296907254Y-40522932D01*
X296907253Y-40522932D01*
X296670487Y-40621004D01*
X296419139Y-40671000D01*
X296162861Y-40671000D01*
X295911513Y-40621004D01*
X295674747Y-40522932D01*
X295674746Y-40522932D01*
X295674745Y-40522931D01*
X295461661Y-40380553D01*
X295280447Y-40199339D01*
X295138069Y-39986255D01*
X295138068Y-39986253D01*
X295039996Y-39749487D01*
X294990000Y-39498139D01*
X294990000Y-39241861D01*
X295039996Y-38990513D01*
X295138068Y-38753747D01*
X295280447Y-38540661D01*
X295461661Y-38359447D01*
X295471518Y-38352861D01*
X295674745Y-38217069D01*
X295674747Y-38217068D01*
X295911513Y-38118996D01*
X296162861Y-38069000D01*
X296419139Y-38069000D01*
X296670487Y-38118996D01*
X296670487Y-38118996D01*
G37*
G36*
X75309487Y-37229996D02*
G01*
X75546253Y-37328068D01*
X75546255Y-37328069D01*
X75759339Y-37470447D01*
X75940553Y-37651661D01*
X76082932Y-37864747D01*
X76181004Y-38101513D01*
X76231000Y-38352861D01*
X76231000Y-38609139D01*
X76181004Y-38860487D01*
X76082932Y-39097253D01*
X76082931Y-39097255D01*
X75940553Y-39310339D01*
X75759339Y-39491553D01*
X75546255Y-39633931D01*
X75546254Y-39633932D01*
X75546253Y-39633932D01*
X75309487Y-39732004D01*
X75058139Y-39782000D01*
X74801861Y-39782000D01*
X74550513Y-39732004D01*
X74313747Y-39633932D01*
X74313746Y-39633932D01*
X74313745Y-39633931D01*
X74100661Y-39491553D01*
X73919447Y-39310339D01*
X73777069Y-39097255D01*
X73777068Y-39097253D01*
X73678996Y-38860487D01*
X73629000Y-38609139D01*
X73629000Y-38352861D01*
X73678996Y-38101513D01*
X73777068Y-37864747D01*
X73919447Y-37651661D01*
X74100661Y-37470447D01*
X74313745Y-37328069D01*
X74313747Y-37328068D01*
X74550513Y-37229996D01*
X74801861Y-37180000D01*
X75058139Y-37180000D01*
X75309487Y-37229996D01*
X75309487Y-37229996D01*
G37*
G36*
X290765000Y-39051000D02*
G01*
X288863000Y-39051000D01*
X288863000Y-37149000D01*
X290765000Y-37149000D01*
X290765000Y-39051000D01*
X290765000Y-39051000D01*
G37*
G36*
X82358000Y-38162000D02*
G01*
X80456000Y-38162000D01*
X80456000Y-36260000D01*
X82358000Y-36260000D01*
X82358000Y-38162000D01*
X82358000Y-38162000D01*
G37*
G36*
X295171395Y-35788546D02*
G01*
X295344466Y-35860234D01*
X295344467Y-35860235D01*
X295500227Y-35964310D01*
X295632690Y-36096773D01*
X295632691Y-36096775D01*
X295736766Y-36252534D01*
X295808454Y-36425605D01*
X295845000Y-36609333D01*
X295845000Y-36796667D01*
X295808454Y-36980395D01*
X295736766Y-37153466D01*
X295685630Y-37229996D01*
X295632690Y-37309227D01*
X295500227Y-37441690D01*
X295457189Y-37470447D01*
X295344466Y-37545766D01*
X295171395Y-37617454D01*
X294987667Y-37654000D01*
X294800333Y-37654000D01*
X294616605Y-37617454D01*
X294443534Y-37545766D01*
X294330811Y-37470447D01*
X294287773Y-37441690D01*
X294155310Y-37309227D01*
X294102370Y-37229996D01*
X294051234Y-37153466D01*
X293979546Y-36980395D01*
X293943000Y-36796667D01*
X293943000Y-36609333D01*
X293979546Y-36425605D01*
X294051234Y-36252534D01*
X294155309Y-36096775D01*
X294155310Y-36096773D01*
X294287773Y-35964310D01*
X294443533Y-35860235D01*
X294443534Y-35860234D01*
X294616605Y-35788546D01*
X294800333Y-35752000D01*
X294987667Y-35752000D01*
X295171395Y-35788546D01*
X295171395Y-35788546D01*
G37*
G36*
X76731395Y-34899546D02*
G01*
X76904466Y-34971234D01*
X76904467Y-34971235D01*
X77060227Y-35075310D01*
X77192690Y-35207773D01*
X77192691Y-35207775D01*
X77296766Y-35363534D01*
X77368454Y-35536605D01*
X77405000Y-35720333D01*
X77405000Y-35907667D01*
X77368454Y-36091395D01*
X77296766Y-36264466D01*
X77296765Y-36264467D01*
X77192690Y-36420227D01*
X77060227Y-36552690D01*
X76981818Y-36605081D01*
X76904466Y-36656766D01*
X76731395Y-36728454D01*
X76547667Y-36765000D01*
X76360333Y-36765000D01*
X76176605Y-36728454D01*
X76003534Y-36656766D01*
X75926182Y-36605081D01*
X75847773Y-36552690D01*
X75715310Y-36420227D01*
X75611235Y-36264467D01*
X75611234Y-36264466D01*
X75539546Y-36091395D01*
X75503000Y-35907667D01*
X75503000Y-35720333D01*
X75539546Y-35536605D01*
X75611234Y-35363534D01*
X75715309Y-35207775D01*
X75715310Y-35207773D01*
X75847773Y-35075310D01*
X76003533Y-34971235D01*
X76003534Y-34971234D01*
X76176605Y-34899546D01*
X76360333Y-34863000D01*
X76547667Y-34863000D01*
X76731395Y-34899546D01*
X76731395Y-34899546D01*
G37*
G36*
X298956487Y-34181996D02*
G01*
X299193253Y-34280068D01*
X299193255Y-34280069D01*
X299396482Y-34415861D01*
X299406339Y-34422447D01*
X299587553Y-34603661D01*
X299729932Y-34816747D01*
X299828004Y-35053513D01*
X299878000Y-35304861D01*
X299878000Y-35561139D01*
X299828004Y-35812487D01*
X299729932Y-36049253D01*
X299729931Y-36049255D01*
X299587553Y-36262339D01*
X299406339Y-36443553D01*
X299193255Y-36585931D01*
X299193254Y-36585932D01*
X299193253Y-36585932D01*
X298956487Y-36684004D01*
X298705139Y-36734000D01*
X298448861Y-36734000D01*
X298197513Y-36684004D01*
X297960747Y-36585932D01*
X297960746Y-36585932D01*
X297960745Y-36585931D01*
X297747661Y-36443553D01*
X297566447Y-36262339D01*
X297424069Y-36049255D01*
X297424068Y-36049253D01*
X297325996Y-35812487D01*
X297276000Y-35561139D01*
X297276000Y-35304861D01*
X297325996Y-35053513D01*
X297424068Y-34816747D01*
X297566447Y-34603661D01*
X297747661Y-34422447D01*
X297757518Y-34415861D01*
X297960745Y-34280069D01*
X297960747Y-34280068D01*
X298197513Y-34181996D01*
X298448861Y-34132000D01*
X298705139Y-34132000D01*
X298956487Y-34181996D01*
X298956487Y-34181996D01*
G37*
G36*
X73023487Y-33292996D02*
G01*
X73260253Y-33391068D01*
X73260255Y-33391069D01*
X73473339Y-33533447D01*
X73654553Y-33714661D01*
X73796932Y-33927747D01*
X73895004Y-34164513D01*
X73945000Y-34415861D01*
X73945000Y-34672139D01*
X73895004Y-34923487D01*
X73796932Y-35160253D01*
X73796931Y-35160255D01*
X73654553Y-35373339D01*
X73473339Y-35554553D01*
X73260255Y-35696931D01*
X73260254Y-35696932D01*
X73260253Y-35696932D01*
X73023487Y-35795004D01*
X72772139Y-35845000D01*
X72515861Y-35845000D01*
X72264513Y-35795004D01*
X72027747Y-35696932D01*
X72027746Y-35696932D01*
X72027745Y-35696931D01*
X71814661Y-35554553D01*
X71633447Y-35373339D01*
X71491069Y-35160255D01*
X71491068Y-35160253D01*
X71392996Y-34923487D01*
X71343000Y-34672139D01*
X71343000Y-34415861D01*
X71392996Y-34164513D01*
X71491068Y-33927747D01*
X71633447Y-33714661D01*
X71814661Y-33533447D01*
X72027745Y-33391069D01*
X72027747Y-33391068D01*
X72264513Y-33292996D01*
X72515861Y-33243000D01*
X72772139Y-33243000D01*
X73023487Y-33292996D01*
X73023487Y-33292996D01*
G37*
G36*
X295845000Y-35114000D02*
G01*
X293943000Y-35114000D01*
X293943000Y-33212000D01*
X295845000Y-33212000D01*
X295845000Y-35114000D01*
X295845000Y-35114000D01*
G37*
G36*
X77405000Y-34225000D02*
G01*
X75503000Y-34225000D01*
X75503000Y-32323000D01*
X77405000Y-32323000D01*
X77405000Y-34225000D01*
X77405000Y-34225000D01*
G37*
M02*
