M48
; DRILL file {KiCad (5.1.0)-1} date 22.5.2019 9:29:30
; FORMAT={-:-/ absolute / metric / decimal}
; #@! TF.CreationDate,2019-05-22T09:29:30+02:00
; #@! TF.GenerationSoftware,Kicad,Pcbnew,(5.1.0)-1
FMAT,2
METRIC
T1C0.400
T2C0.900
T3C1.000
T4C1.100
T5C1.199
T6C2.500
%
G90
G05
T1
X198.31Y-147.955
T2
X304.284Y-149.069
X304.284Y-151.609
X158.891Y-149.502
X158.891Y-152.042
X76.454Y-33.274
X76.454Y-35.814
X294.894Y-34.163
X294.894Y-36.703
X154.446Y-149.502
X154.446Y-152.042
X81.407Y-37.211
X81.407Y-39.751
X307.594Y-149.069
X307.594Y-151.609
X289.814Y-38.1
X289.814Y-40.64
T3
X224.028Y-144.399
X226.568Y-144.399
X229.108Y-144.399
X233.807Y-140.462
X233.807Y-143.002
T4
X188.15Y-143.065
X188.15Y-158.305
X190.69Y-143.065
X190.69Y-158.305
X193.23Y-143.065
X193.23Y-158.305
X195.77Y-143.065
X195.77Y-158.305
X198.31Y-143.065
X198.31Y-158.305
X200.85Y-143.065
X200.85Y-158.305
X203.391Y-143.065
X203.391Y-158.305
X205.93Y-143.065
X205.93Y-158.305
X208.47Y-143.065
X208.47Y-158.305
X211.01Y-143.065
X211.01Y-158.305
X213.55Y-143.065
X213.55Y-158.305
X216.09Y-143.065
X216.09Y-158.305
T5
X166.624Y-160.909
X206.502Y-69.342
X164.846Y-63.373
X161.544Y-160.909
X206.502Y-74.422
X161.544Y-140.462
X166.624Y-140.462
X164.846Y-68.453
X156.464Y-160.909
X156.464Y-140.462
X206.502Y-64.262
X164.846Y-73.533
T6
X296.291Y-39.37
X298.577Y-35.433
X74.93Y-38.481
X72.644Y-34.544
T0
M30
